<svg xmlns="http://www.w3.org/2000/svg" viewBox="0 0 594.82 128"><defs><style>.cls-1{fill:#3c82f6;}</style></defs><title>资源 1@4x</title><g id="图层_2" data-name="图层 2"><g id="图层_1-2" data-name="图层 1"><path class="cls-1" d="M283.78,31v48.6c0,24-15.36,37.32-41.28,37.32-11,0-19.67-2.88-26-7.92-6.24,5-15,7.92-26,7.92-25.8,0-41.16-13.32-41.16-37.32V31h28.32V78.78C177.59,88.86,181.43,94,190,94s12.36-5.16,12.36-15.24V31h28.32V78.78c0,10.08,3.84,15.24,12.47,15.24s12.36-5.16,12.36-15.24V31Z"/><path class="cls-1" d="M293.15,30.3c0-7.79,6.36-13.79,16.32-13.79S325.79,22,325.79,29.83c0,8.27-6.36,14.27-16.32,14.27S293.15,38.1,293.15,30.3Zm2.76,19.08H323V115H295.91Z"/><path class="cls-1" d="M407.5,77.58V115H380.38V82.26c0-8.16-3.12-11.28-8-11.28-5.51,0-10.2,3.48-10.2,13.2V115H335V49.38h25.8v6.48c5.15-5.16,12.11-7.68,19.79-7.68C395.74,48.18,407.5,56.94,407.5,77.58Z"/><path class="cls-1" d="M464.38,112.74c-4.2,2.4-10.32,3.48-16.68,3.48-18.12,0-28.67-8.52-28.67-26.64v-55h27.11V53h13.44v19.8H446.14V89.34c0,4.08,2.4,6.36,5.64,6.36a11.06,11.06,0,0,0,6.12-1.8Z"/><path class="cls-1" d="M520.18,91.38l14.16,14.28c-6.48,7-15.72,10.56-28.68,10.56-24.12,0-39.71-14.52-39.71-34.08,0-19.92,16.08-34,37.67-34,19.08,0,35.64,11.76,35.64,33.6l-44.88,8.64c2.16,4.08,6.24,5.76,12.12,5.76S515.86,94.62,520.18,91.38Zm-27.6-13.8,21-4.08a10,10,0,0,0-9.84-6.84C497.62,66.66,493.42,70.14,492.58,77.58Z"/><path class="cls-1" d="M594.82,48.18v24a37.58,37.58,0,0,0-6-.48c-8.16,0-13.92,3.72-13.92,14.16V115H547.79V49.38h25.79v7.08C578.38,50.94,585.7,48.18,594.82,48.18Z"/><path class="cls-1" d="M75.44,44A23,23,0,0,0,44,52.56c-.34.61-.66,1.23-.95,1.86L64,64,42.82,73A23,23,0,1,0,75.44,44Z"/><rect class="cls-1" x="65" y="53" width="62" height="21"/><polyline class="cls-1" points="127 55 127 55.69 127 56"/><path class="cls-1" d="M124.67,56l-24,3.16A38.7,38.7,0,0,1,101,64,37,37,0,1,1,85.76,34.08l15.88-21.83A64,64,0,1,0,128,64a81,81,0,0,0-1-9Z"/></g></g></svg>