<svg width="500" height="500" xmlns="http://www.w3.org/2000/svg">
 <g>
  <title>Layer 1</title>
  <polyline id="svg_1" class="cls-1" points="34.630615234375,103.3974609375 34.630615234375,104.08746337890625 34.630615234375,104.3974609375 " fill="#3c82f6" stroke="null"/>
  <g id="svg_4">
   <path id="svg_2" class="cls-1" d="m161.69999,355.08001l0,48.6c0,24 -15.36,37.32 -41.28,37.32c-11,0 -19.67,-2.88 -26,-7.92c-6.24,5 -15,7.92 -26,7.92c-25.8,0 -41.16,-13.32 -41.16,-37.32l0,-48.6l28.32,0l0,47.78c-0.07,10.08 3.77,15.22 12.34,15.22s12.36,-5.16 12.36,-15.24l0,-47.76l28.32,0l0,47.78c0,10.08 3.84,15.24 12.47,15.24s12.36,-5.16 12.36,-15.24l0,-47.78l28.27,0z" fill="#3c82f6" stroke="null"/>
   <path id="svg_3" class="cls-1" d="m171.06999,354.38001c0,-7.79 6.36,-13.79 16.32,-13.79s16.32,5.49 16.32,13.32c0,8.27 -6.36,14.27 -16.32,14.27s-16.32,-6 -16.32,-13.8zm2.76,19.08l27.09,0l0,65.62l-27.09,0l0,-65.62z" fill="#3c82f6" stroke="null"/>
   <path id="svg_5" class="cls-1" d="m285.41999,401.66001l0,37.42l-27.12,0l0,-32.74c0,-8.16 -3.12,-11.28 -8,-11.28c-5.51,0 -10.2,3.48 -10.2,13.2l0,30.82l-27.18,0l0,-65.62l25.8,0l0,6.48c5.15,-5.16 12.11,-7.68 19.79,-7.68c15.15,0 26.91,8.76 26.91,29.4z" fill="#3c82f6" stroke="null"/>
   <path id="svg_6" class="cls-1" d="m342.29999,436.82001c-4.2,2.4 -10.32,3.48 -16.68,3.48c-18.12,0 -28.67,-8.52 -28.67,-26.64l0,-55l27.11,0l0,18.42l13.44,0l0,19.8l-13.44,0l0,16.54c0,4.08 2.4,6.36 5.64,6.36a11.06,11.06 0 0 0 6.12,-1.8l6.48,18.84z" fill="#3c82f6" stroke="null"/>
   <path id="svg_7" class="cls-1" d="m398.09999,415.46001l14.16,14.28c-6.48,7 -15.72,10.56 -28.68,10.56c-24.12,0 -39.71,-14.52 -39.71,-34.08c0,-19.92 16.08,-34 37.67,-34c19.08,0 35.64,11.76 35.64,33.6l-44.88,8.64c2.16,4.08 6.24,5.76 12.12,5.76s9.36,-1.52 13.68,-4.76zm-27.6,-13.8l21,-4.08a10,10 0 0 0 -9.84,-6.84c-6.12,0 -10.32,3.48 -11.16,10.92z" fill="#3c82f6" stroke="null"/>
   <path id="svg_8" class="cls-1" d="m472.73999,372.26001l0,24a37.58,37.58 0 0 0 -6,-0.48c-8.16,0 -13.92,3.72 -13.92,14.16l0,29.14l-27.11,0l0,-65.62l25.79,0l0,7.08c4.8,-5.52 12.12,-8.28 21.24,-8.28z" fill="#3c82f6" stroke="null"/>
  </g>
  <g stroke="null">
   <path stroke="null" p-id="30540" fill="#FF6E6E" d="m392.599,294.39751l-255.94059,0a104.30485,86.6581 0 0 1 -102.38486,-88.16364c0,-48.68805 40.53543,-82.10563 97.07793,-82.10563a185.76403,154.33565 0 0 1 32.35931,0c17.33381,-34.7887 54.16949,-62.73079 100.91791,-62.73079c62.60448,0 114.81084,35.71174 114.81084,89.61541c0,3.68319 0.46382,14.33847 0,17.92308c3.57031,-0.44808 7.21613,-0.44808 10.78644,0a76.00124,63.14302 0 0 1 75.50506,62.48882a74.50192,61.89736 0 0 1 -73.13205,62.97275z"/>
   <path stroke="null" p-id="30541" fill="#0C0058" d="m86.14552,282.864l133.90283,-111.92964l39.66173,32.95158l-108.37134,90.51156l-14.68034,0a99.05185,82.29383 0 0 1 -50.51289,-11.5335z"/>
   <path stroke="null" p-id="30542" fill="#FFFFFF" d="m340.8996,134.6222a75.94731,63.09821 0 0 1 -15.56483,69.48779a74.09204,61.55682 0 0 1 -69.31365,16.68639a81.68569,67.86575 0 0 1 -58.10654,-59.63905a75.30012,62.56052 0 0 1 21.65917,-45.70386a74.26462,61.70021 0 0 1 82.8722,-13.048l-54.02927,45.30059l38.46444,32.26155l54.01848,-45.3454z"/>
  </g>
 </g>

</svg>