<svg xmlns="http://www.w3.org/2000/svg" width="256" height="250" version="1.1" template-width="256" template-height="250" sillyvg="true" node-id="1">
 <defs/>
 <g>
  <title>Layer 1</title>
  <g xmlns="http://www.w3.org/2000/svg" id="svg_1" node-id="1054">
    
   <path xmlns="http://www.w3.org/2000/svg" id="svg_2" target-y="22.3" target-x="18.4" target-width="237.6" target-height="227.2" node-id="313" group-id="1" fill-rule="nonzero" fill-opacity="0" fill="#d6f0ff" d="m256,126.4l-0.2,-5.8l-0.7,-5.7l-1.1,-5.4l-1.6,-5.2l-1.9,-5.2l-2.3,-4.9l-2.7,-4.7l-3,-4.4l-3.4,-4.3l-3.6,-3.9l-4,-3.6l-4.2,-3.4l-4.5,-3l-4.7,-2.6l-4.9,-2.3l-5.1,-2l-5.3,-1.5l-5.4,-1.1l-5.7,-0.7l-7.6,-0.2l-3.3,-5l-3.6,-4.7l-4,-4.3l-4.4,-4l-4.8,-3.6l-5,-3.2l-5.2,-2.8l-5.6,-2.3l-5.8,-1.9l-5.9,-1.3l-6.2,-0.8l-6.4,-0.3l-5.9,0.2l-5.6,0.7l-5.4,1.1l-5.3,1.5l-5.2,2l-4.9,2.3l-4.7,2.6l-4.4,3.1l-4.3,3.3l-3.9,3.6l-3.6,4l-3.4,4.2l-3,4.5l-2.7,4.6l-2.3,4.9l-1.9,5.2l-1.6,5.3l-1.1,5.4l-0.7,5.6l-0.2,7.3l-5.2,3.2l-4.8,3.7l-4.4,4l-4.2,4.4l-3.7,4.8l-3.3,5l-2.9,5.3l-2.5,5.7l-1.9,5.8l-1.4,6.1l-0.8,6.2l-0.3,6.6l0.2,5.8l0.7,5.6l1.1,5.4l1.5,5.3l2,5.1l2.3,4.9l2.7,4.7l3,4.4l3.3,4.3l3.7,3.9l3.9,3.6l4.3,3.4l4.4,3l4.7,2.7l4.9,2.3l5.2,1.9l5.3,1.5l5.4,1.1l5.6,0.7l5.8,0.3l6.6,-0.3l4.5,4.9l5,4.5l5.4,4.1l8.7,5l4.7,2l9.9,3.1l5.1,1l10.7,0.8l5.4,-0.2l10.3,-1.5l4.9,-1.4l9.5,-3.6l8.7,-4.9l5.3,-4l4.9,-4.3l4.6,-4.9l4,-5.2l3.5,-5.7l3,-6l3.5,-9.4l2,-10.2l5.4,-3.2l5.1,-3.6l4.7,-4l4.4,-4.5l3.9,-4.8l3.5,-5.1l3.1,-5.5l2.5,-5.7l2.1,-6.1l1.5,-6.2l0.9,-6.4l0.3,-6.7z"><animate xmlns="http://www.w3.org/2000/svg" attributeName="fill-opacity" begin="0s" dur="3.2s" to="1" repeatCount="indefinite"/></path>
  </g>
  <g xmlns="http://www.w3.org/2000/svg" id="svg_3" node-id="1055" opacity="0">
<animate xmlns="http://www.w3.org/2000/svg" attributeName="opacity" begin="1.6s" dur="1.6s" to="1" repeatCount="indefinite"/>
   <path id="svg_4" target-y="27.7" target-x="139.9" target-width="108.3" target-height="67.39999" node-id="317" group-id="2" fill-rule="nonzero" fill-opacity="0.48" fill="#f59fb3" d="m243.3,95.1l-1.4,-0.2l-2.4,-1.5l-4.1,-7.9l-3.7,-6.3l-4.2,-5.9l-4.7,-5.6l-5.1,-5.1l-5.5,-4.8l-5.9,-4.3l-6.2,-3.9l-6.6,-3.4l-5.7,-2.4l-5.8,-2l-6,-1.7l-6,-1.2l-6.2,-0.8l-6.1,-0.4l-6.1,0l-6.2,0.4l-2.6,-0.4l-2,-1.6l-0.6,-1.1l-0.3,-2.7l0.4,-1.2l1.6,-2l2.4,-1l6.9,-0.4l6.8,0l6.8,0.4l6.8,0.9l6.7,1.4l6.6,1.8l6.5,2.3l6.4,2.7l5.5,2.7l10.3,6.5l4.8,3.6l6.1,5.3l5.7,5.7l5.2,6.2l6.8,10l3,5.3l3,6.8l0,1.3l-0.9,2.4l-2,1.6l-2,0.5z"/>
   <path xmlns="http://www.w3.org/2000/svg" id="svg_5" target-y="34.8" target-x="84.6" target-width="165" target-height="95.89999" node-id="319" group-id="2" fill-rule="nonzero" fill-opacity="0.48" fill="#ffff75" d="m244.6,130.7l-2.4,-0.7l-1.8,-1.7l-0.5,-1.1l-1.6,-13l-2.9,-11.2l-4.3,-10.7l-2.7,-5l-6.4,-9.5l-7.5,-8.5l-8.8,-7.6l-9.8,-6.3l-5.3,-2.7l-6.3,-2.6l-6.4,-2.1l-6.4,-1.6l-6.5,-1l-6.6,-0.6l-6.6,0l-6.4,0.5l-6.5,0.9l-6.4,1.5l-6.2,1.9l-6,2.4l-5.9,3l-5.7,3.3l-5.4,3.8l-5.2,4.3l-6,5.6l-1.1,0.5l-2.6,0.1l-2.3,-1.3l-0.8,-1l-0.7,-2.5l0.5,-2.4l0.8,-1.1l5.5,-5.4l5.8,-4.8l6.1,-4.2l6.3,-3.7l6.6,-3.3l6.8,-2.7l6.9,-2.2l7.1,-1.6l7.3,-1.1l7.2,-0.5l7.3,0l7.4,0.7l7.2,1.1l7.2,1.8l7.1,2.3l7.1,3l6,3l5.6,3.4l5.3,3.6l5,4.1l4.8,4.4l4.4,4.6l4,4.9l3.8,5.2l3.3,5.4l3,5.6l2.6,5.9l2.3,6l1.8,6.2l1.4,6.3l1,6.5l0.5,6.7l-0.1,1.3l-1.2,2.3l-2.1,1.3l-1.6,0.3z">
    
</path>
   <path id="svg_6" target-y="42.4" target-x="109" target-width="132.8" target-height="101.70001" node-id="321" group-id="2" fill-rule="nonzero" fill-opacity="0.48" fill="#afeb75" d="m236.3,144.1l-1.9,-0.4l-1.1,-0.6l-1.6,-2l-0.3,-1.2l0.4,-7.6l0,-6.2l-0.5,-6l-1,-5.9l-1.4,-5.9l-1.9,-5.6l-2.3,-5.5l-2.7,-5.3l-3.1,-5.1l-3.4,-4.8l-3.9,-4.6l-4.2,-4.3l-4.6,-3.9l-4.8,-3.6l-5.3,-3.2l-5.5,-2.9l-5.8,-2.4l-5.8,-1.9l-6,-1.4l-6,-1l-6.1,-0.4l-6,0l-6,0.4l-6.1,1l-5.9,1.4l-5.8,1.9l-5.7,2.3l-6.8,3.4l-2.5,-0.1l-2.2,-1.2l-0.9,-1.1l-0.6,-2.5l0.7,-2.5l1.8,-1.8l6.3,-3.2l6.4,-2.7l6.6,-2.1l6.7,-1.6l6.8,-1.1l6.8,-0.5l6.8,0l6.9,0.5l6.8,1.1l6.7,1.6l6.6,2.1l6.5,2.8l6.3,3.2l5.9,3.7l5.5,4l5.1,4.4l4.8,4.9l4.3,5.1l4,5.5l3.5,5.7l3,6l2.6,6.2l2.1,6.4l1.6,6.6l1.1,6.7l0.6,6.8l0,6.9l-0.5,7.1l-0.3,1.2l-1.4,1.9l-2.1,1.1l-1.2,0.2z"/>
   <path id="svg_7" target-y="50" target-x="87.2" target-width="141.90001" target-height="57.4" node-id="323" group-id="2" fill-rule="nonzero" fill-opacity="0.48" fill="#75d5eb" d="m224.1,107.4l-1.5,-0.2l-1.3,-0.6l-1.1,-1l-3.2,-6.8l-2.8,-5.2l-3.2,-4.9l-3.7,-4.6l-4,-4.3l-4.3,-3.9l-4.7,-3.5l-5,-3.2l-5.3,-2.7l-6,-2.5l-6,-1.8l-6.1,-1.3l-6.1,-0.7l-6.2,-0.2l-6.1,0.4l-6,0.9l-6,1.4l-5.8,1.9l-5.6,2.4l-5.4,2.9l-5.2,3.4l-4.8,3.8l-4.5,4.3l-4.1,4.7l-4.7,6.3l-1.1,0.7l-2.5,0.5l-2.4,-0.8l-1.1,-0.9l-1.1,-2.3l0.1,-2.5l0.6,-1.2l3.7,-5.2l4,-4.7l4.4,-4.5l4.7,-4.1l5,-3.7l5.4,-3.3l5.5,-2.9l5.8,-2.4l6,-2l6.3,-1.6l6.2,-1l6.3,-0.5l6.4,0l6.2,0.5l6.3,1l6.1,1.4l6.1,2l5.9,2.5l6.1,3.2l5.7,3.6l5.3,4l5,4.5l4.6,4.9l4.2,5.2l3.7,5.6l3.2,5.9l2.8,6.3l0.3,1.4l-0.1,1.2l-1,2.3l-2.1,1.6l-1.8,0.3z"/>
  </g>
  <g id="svg_8" node-id="1056">
   <path id="svg_9" target-y="82.7" target-x="28.3" target-width="103.2" target-height="131.7" node-id="327" group-id="3" fill-rule="nonzero" fill="#ffffff" d="m28.3,82.7l103.2,0l0,131.7l-103.2,0l0,-131.7z"/>
   <g id="svg_10" node-id="1065">
    <g id="svg_11" node-id="1116">
     <path id="svg_12" target-y="82.7" target-x="28.3" target-width="138" target-height="134.2" node-id="333" group-id="3,12,63" fill-rule="nonzero" fill-opacity="0.33" fill="#ffffff" d="m28.3,82.7l138,0l0,134.2l-138,0l0,-134.2z"/>
     <path id="svg_13" target-y="81.2" target-x="26.8" target-width="141" target-height="137.2" node-id="335" group-id="3,12,63" fill-rule="nonzero" fill-opacity="0.33" fill="#6e6e96" d="m166.3,218.4l-138,0l-1,-0.5l-0.5,-1l0,-134.2l0.2,-0.6l0.8,-0.8l138.5,-0.1l1,0.4l0.5,1.1l0,134.2l-0.5,1l-1,0.5zm-136.5,-3l135,0l0,-131.2l-135,0l0,131.2z"/>
    </g>
    <g id="svg_14" node-id="1117">
     <path id="svg_15" target-y="128.8" target-x="120.5" target-width="14.89999" target-height="23" node-id="340" group-id="3,12,64" fill-rule="nonzero" fill-opacity="0.33" fill="#bddfff" d="m120.5,128.8l14.9,0l0,23l-14.9,0l0,-23z"/>
     <path id="svg_16" target-y="127.3" target-x="119" target-width="17.89999" target-height="26" node-id="342" group-id="3,12,64" fill-rule="nonzero" fill-opacity="0.33" fill="#6e6e96" d="m135.4,153.3l-14.9,0l-0.6,-0.1l-0.8,-0.8l-0.1,-23.6l0.1,-0.6l0.8,-0.8l15.5,-0.1l0.6,0.1l0.8,0.8l0.1,23.6l-0.5,1.1l-1,0.4zm-13.4,-3l11.9,0l0,-20l-11.9,0l0,20z"/>
    </g>
    <g id="svg_17" node-id="1118">
     <path id="svg_18" target-y="157.4" target-x="120.5" target-width="14.89999" target-height="22.90001" node-id="347" group-id="3,12,65" fill-rule="nonzero" fill-opacity="0.33" fill="#bddfff" d="m120.5,157.4l14.9,0l0,22.9l-14.9,0l0,-22.9z"/>
     <path id="svg_19" target-y="155.9" target-x="119" target-width="17.89999" target-height="25.90001" node-id="349" group-id="3,12,65" fill-rule="nonzero" fill-opacity="0.33" fill="#6e6e96" d="m135.4,181.8l-14.9,0l-0.6,-0.1l-0.8,-0.8l-0.1,-23.5l0.1,-0.6l0.8,-0.8l15.5,-0.1l0.6,0.1l0.8,0.8l0.1,23.5l-0.5,1.1l-1,0.4zm-13.4,-3l11.9,0l0,-19.9l-11.9,0l0,19.9z"/>
    </g>
    <g id="svg_20" node-id="1119">
     <path id="svg_21" target-y="99.8" target-x="99.6" target-width="14.9" target-height="23.39999" node-id="354" group-id="3,12,66" fill-rule="nonzero" fill-opacity="0.33" fill="#bddfff" d="m99.6,99.8l14.9,0l0,23.4l-14.9,0l0,-23.4z"/>
     <path id="svg_22" target-y="98.3" target-x="98.1" target-width="17.9" target-height="26.39999" node-id="356" group-id="3,12,66" fill-rule="nonzero" fill-opacity="0.33" fill="#6e6e96" d="m114.5,124.7l-14.9,0l-0.6,-0.2l-0.8,-0.7l-0.1,-24l0.1,-0.6l0.8,-0.8l15.5,-0.1l0.5,0.1l0.8,0.8l0.2,24l-0.5,1l-1,0.5zm-13.4,-3l11.9,0l0,-20.4l-11.9,0l0,20.4z"/>
    </g>
    <g id="svg_23" node-id="1120">
     <path id="svg_24" target-y="128.8" target-x="99.6" target-width="14.9" target-height="23" node-id="361" group-id="3,12,67" fill-rule="nonzero" fill-opacity="0.33" fill="#bddfff" d="m99.6,128.8l14.9,0l0,23l-14.9,0l0,-23z"/>
     <path id="svg_25" target-y="127.3" target-x="98.1" target-width="17.9" target-height="26" node-id="363" group-id="3,12,67" fill-rule="nonzero" fill-opacity="0.33" fill="#6e6e96" d="m114.5,153.3l-14.9,0l-0.6,-0.1l-0.8,-0.8l-0.1,-23.6l0.1,-0.6l0.8,-0.8l15.5,-0.1l0.5,0.1l0.8,0.8l0.2,23.6l-0.5,1.1l-1,0.4zm-13.4,-3l11.9,0l0,-20l-11.9,0l0,20z"/>
    </g>
    <g id="svg_26" node-id="1121">
     <path id="svg_27" target-y="128.8" target-x="141.5" target-width="17.39999" target-height="23" node-id="368" group-id="3,12,68" fill-rule="nonzero" fill-opacity="0.33" fill="#bddfff" d="m141.5,128.8l17.4,0l0,23l-17.4,0l0,-23z"/>
     <path id="svg_28" target-y="127.3" target-x="140" target-width="20.39999" target-height="26" node-id="370" group-id="3,12,68" fill-rule="nonzero" fill-opacity="0.33" fill="#6e6e96" d="m158.9,153.3l-17.4,0l-0.6,-0.1l-0.8,-0.8l-0.1,-23.6l0.4,-1.1l1.1,-0.4l17.4,0l0.6,0.1l0.8,0.8l0.1,23.6l-0.4,1.1l-1.1,0.4zm-15.9,-3l14.4,0l0,-20l-14.4,0l0,20z"/>
    </g>
    <g id="svg_29" node-id="1122">
     <path id="svg_30" target-y="99.8" target-x="120.5" target-width="14.89999" target-height="23.39999" node-id="375" group-id="3,12,69" fill-rule="nonzero" fill-opacity="0.33" fill="#bddfff" d="m120.5,99.8l14.9,0l0,23.4l-14.9,0l0,-23.4z"/>
     <path id="svg_31" target-y="98.3" target-x="119" target-width="17.89999" target-height="26.39999" node-id="377" group-id="3,12,69" fill-rule="nonzero" fill-opacity="0.33" fill="#6e6e96" d="m135.4,124.7l-14.9,0l-0.6,-0.2l-0.8,-0.7l-0.1,-24l0.1,-0.6l0.8,-0.8l15.5,-0.1l0.6,0.1l0.8,0.8l0.1,24l-0.5,1l-1,0.5zm-13.4,-3l11.9,0l0,-20.4l-11.9,0l0,20.4z"/>
    </g>
    <g id="svg_32" node-id="1123">
     <path id="svg_33" target-y="157.4" target-x="99.6" target-width="14.9" target-height="22.90001" node-id="382" group-id="3,12,70" fill-rule="nonzero" fill-opacity="0.33" fill="#bddfff" d="m99.6,157.4l14.9,0l0,22.9l-14.9,0l0,-22.9z"/>
     <path id="svg_34" target-y="155.9" target-x="98.1" target-width="17.9" target-height="25.90001" node-id="384" group-id="3,12,70" fill-rule="nonzero" fill-opacity="0.33" fill="#6e6e96" d="m114.5,181.8l-14.9,0l-0.6,-0.1l-0.8,-0.8l-0.1,-23.5l0.1,-0.6l0.8,-0.8l15.5,-0.1l0.5,0.1l0.8,0.8l0.2,23.5l-0.5,1.1l-1,0.4zm-13.4,-3l11.9,0l0,-19.9l-11.9,0l0,19.9z"/>
    </g>
    <g id="svg_35" node-id="1124">
     <path id="svg_36" target-y="99.8" target-x="141.5" target-width="17.39999" target-height="23.39999" node-id="389" group-id="3,12,71" fill-rule="nonzero" fill-opacity="0.33" fill="#bddfff" d="m141.5,99.8l17.4,0l0,23.4l-17.4,0l0,-23.4z"/>
     <path id="svg_37" target-y="98.3" target-x="140" target-width="20.39999" target-height="26.39999" node-id="391" group-id="3,12,71" fill-rule="nonzero" fill-opacity="0.33" fill="#6e6e96" d="m158.9,124.7l-17.4,0l-0.6,-0.2l-0.8,-0.7l-0.1,-24l0.4,-1.1l1.1,-0.4l17.4,0l0.6,0.1l0.8,0.8l0.1,24l-0.4,1l-1.1,0.5zm-15.9,-3l14.4,0l0,-20.4l-14.4,0l0,20.4z"/>
    </g>
    <g id="svg_38" node-id="1125">
     <path id="svg_39" target-y="157.4" target-x="141.5" target-width="17.39999" target-height="22.90001" node-id="396" group-id="3,12,72" fill-rule="nonzero" fill-opacity="0.33" fill="#bddfff" d="m141.5,157.4l17.4,0l0,22.9l-17.4,0l0,-22.9z"/>
     <path id="svg_40" target-y="155.9" target-x="140" target-width="20.39999" target-height="25.90001" node-id="398" group-id="3,12,72" fill-rule="nonzero" fill-opacity="0.33" fill="#6e6e96" d="m158.9,181.8l-17.4,0l-0.6,-0.1l-0.8,-0.8l-0.1,-23.5l0.4,-1l1.1,-0.5l17.4,0l0.6,0.1l0.8,0.8l0.1,23.5l-0.4,1.1l-1.1,0.4zm-15.9,-3l14.4,0l0,-19.9l-14.4,0l0,19.9z"/>
    </g>
    <g id="svg_41" node-id="1126">
     <path id="svg_42" target-y="128.8" target-x="35.6" target-width="16.1" target-height="23" node-id="403" group-id="3,12,73" fill-rule="nonzero" fill-opacity="0.33" fill="#bddfff" d="m35.6,128.8l16.1,0l0,23l-16.1,0l0,-23z"/>
     <path id="svg_43" target-y="127.3" target-x="34.1" target-width="19.1" target-height="26" node-id="405" group-id="3,12,73" fill-rule="nonzero" fill-opacity="0.33" fill="#6e6e96" d="m51.7,153.3l-16.1,0l-0.6,-0.1l-0.8,-0.8l-0.1,-23.6l0.1,-0.6l0.8,-0.8l16.7,-0.1l0.5,0.1l0.8,0.8l0.2,23.6l-0.5,1.1l-1,0.4zm-14.6,-3l13.1,0l0,-20l-13.1,0l0,20z"/>
    </g>
    <g id="svg_44" node-id="1127">
     <path id="svg_45" target-y="99.8" target-x="35.6" target-width="16.1" target-height="23.39999" node-id="410" group-id="3,12,74" fill-rule="nonzero" fill-opacity="0.33" fill="#bddfff" d="m35.6,99.8l16.1,0l0,23.4l-16.1,0l0,-23.4z"/>
     <path id="svg_46" target-y="98.3" target-x="34.1" target-width="19.1" target-height="26.39999" node-id="412" group-id="3,12,74" fill-rule="nonzero" fill-opacity="0.33" fill="#6e6e96" d="m51.7,124.7l-16.1,0l-0.6,-0.2l-0.8,-0.7l-0.1,-24l0.1,-0.6l0.8,-0.8l16.7,-0.1l0.5,0.1l0.8,0.8l0.2,24l-0.5,1l-1,0.5zm-14.6,-3l13.1,0l0,-20.4l-13.1,0l0,20.4z"/>
    </g>
    <g id="svg_47" node-id="1128">
     <path id="svg_48" target-y="157.4" target-x="35.6" target-width="16.1" target-height="22.90001" node-id="417" group-id="3,12,75" fill-rule="nonzero" fill-opacity="0.33" fill="#bddfff" d="m35.6,157.4l16.1,0l0,22.9l-16.1,0l0,-22.9z"/>
     <path id="svg_49" target-y="155.9" target-x="34.1" target-width="19.1" target-height="25.90001" node-id="419" group-id="3,12,75" fill-rule="nonzero" fill-opacity="0.33" fill="#6e6e96" d="m51.7,181.8l-16.1,0l-0.6,-0.1l-0.8,-0.8l-0.1,-23.5l0.1,-0.6l0.8,-0.8l16.7,-0.1l0.5,0.1l0.8,0.8l0.2,23.5l-0.5,1.1l-1,0.4zm-14.6,-3l13.1,0l0,-19.9l-13.1,0l0,19.9z"/>
    </g>
    <g id="svg_50" node-id="1129">
     <path id="svg_51" target-y="157.4" target-x="57.7" target-width="14.9" target-height="22.90001" node-id="424" group-id="3,12,76" fill-rule="nonzero" fill-opacity="0.33" fill="#bddfff" d="m57.7,157.4l14.9,0l0,22.9l-14.9,0l0,-22.9z"/>
     <path id="svg_52" target-y="155.9" target-x="56.2" target-width="17.9" target-height="25.90001" node-id="426" group-id="3,12,76" fill-rule="nonzero" fill-opacity="0.33" fill="#6e6e96" d="m72.6,181.8l-14.9,0l-0.6,-0.1l-0.8,-0.8l-0.1,-23.5l0.5,-1l1,-0.5l14.9,0l0.6,0.1l0.8,0.8l0.1,23.5l-0.5,1.1l-1,0.4zm-13.4,-3l11.9,0l0,-19.9l-11.9,0l0,19.9z"/>
    </g>
    <g id="svg_53" node-id="1130">
     <path id="svg_54" target-y="128.8" target-x="57.7" target-width="14.9" target-height="23" node-id="431" group-id="3,12,77" fill-rule="nonzero" fill-opacity="0.33" fill="#bddfff" d="m57.7,128.8l14.9,0l0,23l-14.9,0l0,-23z"/>
     <path id="svg_55" target-y="127.3" target-x="56.2" target-width="17.9" target-height="26" node-id="433" group-id="3,12,77" fill-rule="nonzero" fill-opacity="0.33" fill="#6e6e96" d="m72.6,153.3l-14.9,0l-0.6,-0.1l-0.8,-0.8l-0.1,-23.6l0.5,-1.1l1,-0.4l14.9,0l0.6,0.1l0.8,0.8l0.1,23.6l-0.5,1.1l-1,0.4zm-13.4,-3l11.9,0l0,-20l-11.9,0l0,20z"/>
    </g>
    <g id="svg_56" node-id="1131">
     <path id="svg_57" target-y="157.4" target-x="78.7" target-width="14.8" target-height="22.90001" node-id="438" group-id="3,12,78" fill-rule="nonzero" fill-opacity="0.33" fill="#bddfff" d="m78.7,157.4l14.8,0l0,22.9l-14.8,0l0,-22.9z"/>
     <path id="svg_58" target-y="155.9" target-x="77.2" target-width="17.8" target-height="25.90001" node-id="440" group-id="3,12,78" fill-rule="nonzero" fill-opacity="0.33" fill="#6e6e96" d="m93.5,181.8l-14.8,0l-0.6,-0.1l-0.8,-0.8l-0.1,-23.5l0.1,-0.6l0.8,-0.8l15.4,-0.1l0.6,0.1l0.8,0.8l0.1,23.5l-0.4,1.1l-1.1,0.4zm-13.3,-3l11.8,0l0,-19.9l-11.8,0l0,19.9z"/>
    </g>
    <g id="svg_59" node-id="1132">
     <path id="svg_60" target-y="99.8" target-x="78.7" target-width="14.8" target-height="23.39999" node-id="445" group-id="3,12,79" fill-rule="nonzero" fill-opacity="0.33" fill="#bddfff" d="m78.7,99.8l14.8,0l0,23.4l-14.8,0l0,-23.4z"/>
     <path id="svg_61" target-y="98.3" target-x="77.2" target-width="17.8" target-height="26.39999" node-id="447" group-id="3,12,79" fill-rule="nonzero" fill-opacity="0.33" fill="#6e6e96" d="m93.5,124.7l-14.8,0l-0.6,-0.2l-0.8,-0.7l-0.1,-24l0.1,-0.6l0.8,-0.8l15.4,-0.1l0.6,0.1l0.8,0.8l0.1,24l-0.4,1l-1.1,0.5zm-13.3,-3l11.8,0l0,-20.4l-11.8,0l0,20.4z"/>
    </g>
    <g id="svg_62" node-id="1133">
     <path id="svg_63" target-y="128.8" target-x="78.7" target-width="14.8" target-height="23" node-id="452" group-id="3,12,80" fill-rule="nonzero" fill-opacity="0.33" fill="#bddfff" d="m78.7,128.8l14.8,0l0,23l-14.8,0l0,-23z"/>
     <path id="svg_64" target-y="127.3" target-x="77.2" target-width="17.8" target-height="26" node-id="454" group-id="3,12,80" fill-rule="nonzero" fill-opacity="0.33" fill="#6e6e96" d="m93.5,153.3l-14.8,0l-0.6,-0.1l-0.8,-0.8l-0.1,-23.6l0.1,-0.6l0.8,-0.8l15.4,-0.1l0.6,0.1l0.8,0.8l0.1,23.6l-0.4,1.1l-1.1,0.4zm-13.3,-3l11.8,0l0,-20l-11.8,0l0,20z"/>
    </g>
    <g id="svg_65" node-id="1134">
     <path id="svg_66" target-y="99.8" target-x="57.7" target-width="14.9" target-height="23.39999" node-id="459" group-id="3,12,81" fill-rule="nonzero" fill-opacity="0.33" fill="#bddfff" d="m57.7,99.8l14.9,0l0,23.4l-14.9,0l0,-23.4z"/>
     <path id="svg_67" target-y="98.3" target-x="56.2" target-width="17.9" target-height="26.39999" node-id="461" group-id="3,12,81" fill-rule="nonzero" fill-opacity="0.33" fill="#6e6e96" d="m72.6,124.7l-14.9,0l-0.6,-0.2l-0.8,-0.7l-0.1,-24l0.1,-0.6l0.8,-0.8l15.5,-0.1l0.6,0.1l0.8,0.8l0.1,24l-0.5,1l-1,0.5zm-13.4,-3l11.9,0l0,-20.4l-11.9,0l0,20.4z"/>
    </g>
    <g id="svg_68" node-id="1135">
     <path id="svg_69" target-y="82.7" target-x="24.6" target-width="145.4" target-height="6.7" node-id="466" group-id="3,12,82" fill-rule="nonzero" fill-opacity="0.33" fill="#d5b697" d="m24.6,82.7l145.4,0l0,6.7l-145.4,0l0,-6.7z"/>
     <path id="svg_70" target-y="81.2" target-x="23.1" target-width="148.4" target-height="9.70001" node-id="468" group-id="3,12,82" fill-rule="nonzero" fill-opacity="0.33" fill="#6e6e96" d="m170,90.9l-145.4,0l-1,-0.5l-0.5,-1l0,-6.7l0.1,-0.6l0.8,-0.8l146,-0.1l1.1,0.4l0.4,1.1l0,6.7l-0.4,1l-1.1,0.5zm-143.9,-3l142.4,0l0,-3.7l-142.4,0l0,3.7z"/>
    </g>
    <g id="svg_71" node-id="1136">
     <path id="svg_72" target-y="186.3" target-x="120.5" target-width="14.89999" target-height="22.89999" node-id="473" group-id="3,12,83" fill-rule="nonzero" fill-opacity="0.33" fill="#bddfff" d="m120.5,186.3l14.9,0l0,22.9l-14.9,0l0,-22.9z"/>
     <path id="svg_73" target-y="184.8" target-x="119" target-width="17.89999" target-height="25.89999" node-id="475" group-id="3,12,83" fill-rule="nonzero" fill-opacity="0.33" fill="#6e6e96" d="m135.4,210.7l-14.9,0l-0.6,-0.1l-0.8,-0.8l-0.1,-23.5l0.1,-0.6l0.8,-0.8l15.5,-0.1l0.6,0.1l0.8,0.8l0.1,23.5l-0.5,1.1l-1,0.4zm-13.4,-3l11.9,0l0,-19.9l-11.9,0l0,19.9z"/>
    </g>
    <g id="svg_74" node-id="1137">
     <path id="svg_75" target-y="186.3" target-x="141.5" target-width="17.39999" target-height="22.89999" node-id="480" group-id="3,12,84" fill-rule="nonzero" fill-opacity="0.33" fill="#bddfff" d="m141.5,186.3l17.4,0l0,22.9l-17.4,0l0,-22.9z"/>
     <path id="svg_76" target-y="184.8" target-x="140" target-width="20.39999" target-height="25.89999" node-id="482" group-id="3,12,84" fill-rule="nonzero" fill-opacity="0.33" fill="#6e6e96" d="m158.9,210.7l-17.4,0l-0.6,-0.1l-0.8,-0.8l-0.1,-23.5l0.4,-1.1l1.1,-0.4l17.4,0l0.6,0.1l0.8,0.8l0.1,23.5l-0.4,1.1l-1.1,0.4zm-15.9,-3l14.4,0l0,-19.9l-14.4,0l0,19.9z"/>
    </g>
    <g id="svg_77" node-id="1138">
     <path id="svg_78" target-y="186.3" target-x="35.6" target-width="16.1" target-height="22.89999" node-id="487" group-id="3,12,85" fill-rule="nonzero" fill-opacity="0.33" fill="#bddfff" d="m35.6,186.3l16.1,0l0,22.9l-16.1,0l0,-22.9z"/>
     <path id="svg_79" target-y="184.8" target-x="34.1" target-width="19.1" target-height="25.89999" node-id="489" group-id="3,12,85" fill-rule="nonzero" fill-opacity="0.33" fill="#6e6e96" d="m51.7,210.7l-16.1,0l-0.6,-0.1l-0.8,-0.8l-0.1,-23.5l0.1,-0.6l0.8,-0.8l16.7,-0.1l0.5,0.1l0.8,0.8l0.2,23.5l-0.5,1.1l-1,0.4zm-14.6,-3l13.1,0l0,-19.9l-13.1,0l0,19.9z"/>
    </g>
    <g id="svg_80" node-id="1139">
     <path id="svg_81" target-y="186.3" target-x="57.7" target-width="14.9" target-height="22.89999" node-id="494" group-id="3,12,86" fill-rule="nonzero" fill-opacity="0.33" fill="#bddfff" d="m57.7,186.3l14.9,0l0,22.9l-14.9,0l0,-22.9z"/>
     <path id="svg_82" target-y="184.8" target-x="56.2" target-width="17.9" target-height="25.89999" node-id="496" group-id="3,12,86" fill-rule="nonzero" fill-opacity="0.33" fill="#6e6e96" d="m72.6,210.7l-14.9,0l-0.6,-0.1l-0.8,-0.8l-0.1,-23.5l0.5,-1.1l1,-0.4l14.9,0l0.6,0.1l0.8,0.8l0.1,23.5l-0.5,1.1l-1,0.4zm-13.4,-3l11.9,0l0,-19.9l-11.9,0l0,19.9z"/>
    </g>
    <g id="svg_83" node-id="1140">
     <path id="svg_84" target-y="186.3" target-x="78.7" target-width="35.8" target-height="30.59999" node-id="501" group-id="3,12,87" fill-rule="nonzero" fill-opacity="0.33" fill="#e4bc96" d="m78.7,186.3l35.8,0l0,30.6l-35.8,0l0,-30.6z"/>
     <path id="svg_85" target-y="184.8" target-x="77.2" target-width="38.8" target-height="33.59999" node-id="503" group-id="3,12,87" fill-rule="nonzero" fill-opacity="0.33" fill="#6e6e96" d="m114.5,218.4l-35.8,0l-1.1,-0.5l-0.4,-1l0,-30.6l0.1,-0.6l0.8,-0.8l36.4,-0.1l1.1,0.4l0.4,1.1l0,30.6l-0.4,1l-1.1,0.5zm-34.3,-3l32.8,0l0,-27.6l-32.8,0l0,27.6z"/>
    </g>
    <path id="svg_86" target-y="184.9" target-x="94.9" target-width="3" target-height="33.5" node-id="506" group-id="3,12" fill-rule="nonzero" fill-opacity="0.33" fill="#6e6e96" d="m96.4,218.4l-1.1,-0.5l-0.4,-1l0,-30.6l0.1,-0.6l0.8,-0.8l1.2,0l0.8,0.8l0.1,0.6l0,30.6l-0.5,1l-1,0.5z"/>
   </g>
   <path id="svg_87" target-y="61.8" target-x="65.8" target-width="24.79999" target-height="4.8" node-id="509" group-id="3" fill-rule="nonzero" fill="#ffffff" d="m88.3,66.6l-21,-0.2l-1.3,-1.3l-0.2,-1l0.2,-1l1.3,-1.3l22,0l1.3,1.3l0,2l-1.3,1.3l-1,0.2z"/>
  </g>
  <g id="svg_88" node-id="1057">
   <g id="svg_89" node-id="1066">
    <path id="svg_90" target-y="21.3" target-x="124.3" target-width="63.59999" target-height="9.6" node-id="515" group-id="4,13" fill-rule="nonzero" fill="#ebebf7" d="m124.3,21.3l63.6,0l0,9.6l-63.6,0l0,-9.6z"/>
    <path id="svg_91" target-y="19.8" target-x="122.8" target-width="66.59999" target-height="12.6" node-id="517" group-id="4,13" fill-rule="nonzero" fill="#ccccde" d="m187.9,32.4l-63.6,0l-1.1,-0.5l-0.4,-1l0,-9.6l0.1,-0.6l0.8,-0.8l64.2,-0.1l1.1,0.4l0.4,1.1l0,9.6l-0.4,1l-1.1,0.5zm-62.1,-3l60.6,0l0,-6.6l-60.6,0l0,6.6z"/>
   </g>
   <g id="svg_92" node-id="1067">
    <path id="svg_93" target-y="30.7" target-x="105.9" target-width="100.1" target-height="169.6" node-id="522" group-id="4,14" fill-rule="nonzero" fill="#ffffff" d="m105.9,30.7l100.1,0l0,169.6l-100.1,0l0,-169.6z"/>
    <path id="svg_94" target-y="29.2" target-x="104.4" target-width="103.1" target-height="172.6" node-id="524" group-id="4,14" fill-rule="nonzero" fill="#ccccde" d="m206,201.8l-100.1,0l-0.6,-0.1l-0.8,-0.8l-0.1,-170.2l0.1,-0.6l0.8,-0.8l100.7,-0.1l0.6,0.1l0.8,0.8l0.1,170.2l-0.4,1.1l-1.1,0.4zm-98.6,-3l97.1,0l0,-166.6l-97.1,0l0,166.6z"/>
   </g>
   <g id="svg_95" node-id="1068">
    <path id="svg_96" target-y="39.2" target-x="114.5" target-width="83.5" target-height="161.1" node-id="529" group-id="4,15" fill-rule="nonzero" fill="#cfe7ff" d="m114.5,39.2l83.5,0l0,161.1l-83.5,0l0,-161.1z"/>
    <path id="svg_97" target-y="37.7" target-x="113" target-width="86.5" target-height="164.1" node-id="531" group-id="4,15" fill-rule="nonzero" fill="#ccccde" d="m198,201.8l-83.5,0l-0.6,-0.1l-0.8,-0.8l-0.1,-161.7l0.1,-0.6l0.8,-0.8l84.1,-0.1l0.6,0.1l0.8,0.8l0.1,161.7l-0.5,1.1l-1,0.4zm-82,-3l80.5,0l0,-158.1l-80.5,0l0,158.1z"/>
   </g>
   <g id="svg_98" node-id="1069">
    <path id="svg_99" target-y="40.2" target-x="115.5" target-width="78.39999" target-height="82.8" node-id="536" group-id="4,16" fill-rule="nonzero" fill-opacity="0.49" fill="#ffffff" d="m115.5,123l78.4,-82.8l-56.8,0.2l-21.6,23.4l0,59.2z"/>
   </g>
   <g id="svg_100" node-id="1070">
    <path id="svg_101" target-y="62.4" target-x="114.9" target-width="82.4" target-height="87.70001" node-id="541" group-id="4,17" fill-rule="nonzero" fill-opacity="0.27" fill="#ffffff" d="m197.3,62.4l-82.4,87l22.6,0.7l59.8,-63.1l0,-24.6z"/>
   </g>
   <g id="svg_102" node-id="1071">
    <path id="svg_103" target-y="149.5" target-x="114.5" target-width="83.5" target-height="50.8" node-id="546" group-id="4,18" fill-rule="nonzero" fill="#cfe7ff" d="m114.5,149.5l83.5,0l0,50.8l-83.5,0l0,-50.8z"/>
    <path id="svg_104" target-y="148.1" target-x="113" target-width="86.5" target-height="53.7" node-id="548" group-id="4,18" fill-rule="nonzero" fill="#ccccde" d="m198,201.8l-84.1,-0.1l-0.8,-0.8l-0.1,-0.6l0,-50.8l0.1,-0.6l0.8,-0.8l84.7,0l0.8,0.8l0.1,0.6l0,50.8l-0.5,1.1l-1,0.4zm-82,-3l80.5,0l0,-47.8l-80.5,0l0,47.8z"/>
   </g>
   <g id="svg_105" node-id="1072">
    <g id="svg_106" node-id="1141">
     <path id="svg_107" target-y="161.9" target-x="115.7" target-width="20.7" target-height="34.20001" node-id="555" group-id="4,19,88" fill-rule="nonzero" fill-opacity="0.1813" fill="#ffffff" d="m136.4,161.9l-20.7,21.3l0,12.9l20.7,-21.2l0,-13z"/>
    </g>
    <path id="svg_108" target-y="161.9" target-x="115.6" target-width="11.1" target-height="11.40001" node-id="560" group-id="4,19,89" fill-rule="nonzero" fill-opacity="0.1813" fill="#ffffff" d="m115.6,173.3l11.1,-11.4l-11.1,0"/>
   </g>
   <g id="svg_109" node-id="1073">
    <g id="svg_110" node-id="1143">
     <path id="svg_111" target-y="161.9" target-x="146.2" target-width="20.10001" target-height="34.20001" node-id="568" group-id="4,20,90" fill-rule="nonzero" fill-opacity="0.1813" fill="#ffffff" d="m166.3,161.9l-20.1,21.3l0,12.9l20.1,-21.2l0,-13z"/>
    </g>
    <path id="svg_112" target-y="161.9" target-x="146.8" target-width="10.8" target-height="11.40001" node-id="573" group-id="4,20,91" fill-rule="nonzero" fill-opacity="0.1813" fill="#ffffff" d="m146.8,173.3l10.8,-11.4l-10.8,0"/>
   </g>
   <g id="svg_113" node-id="1074">
    <g id="svg_114" node-id="1145">
     <path id="svg_115" target-y="161.9" target-x="174.5" target-width="22.39999" target-height="34.20001" node-id="581" group-id="4,21,92" fill-rule="nonzero" fill-opacity="0.1813" fill="#ffffff" d="m196.9,161.9l-22.4,21.3l0,12.9l22.4,-21.2l0,-13z"/>
    </g>
    <path id="svg_116" target-y="161.9" target-x="175.3" target-width="12" target-height="11.40001" node-id="586" group-id="4,21,93" fill-rule="nonzero" fill-opacity="0.1813" fill="#ffffff" d="m175.3,173.3l12,-11.4l-12,0"/>
   </g>
   <path id="svg_117" target-y="39.2" target-x="123.6" target-width="3" target-height="110.3" node-id="590" group-id="4" fill-rule="nonzero" fill="#ccccde" d="m123.6,39.2l3,0l0,110.3l-3,0l0,-110.3z"/>
   <path id="svg_118" target-y="39.2" target-x="134.3" target-width="3" target-height="110.3" node-id="592" group-id="4" fill-rule="nonzero" fill="#ccccde" d="m134.3,39.2l3,0l0,110.3l-3,0l0,-110.3z"/>
   <path id="svg_119" target-y="39.2" target-x="144.7" target-width="3" target-height="110.3" node-id="594" group-id="4" fill-rule="nonzero" fill="#ccccde" d="m144.7,39.2l3,0l0,110.3l-3,0l0,-110.3z"/>
   <path id="svg_120" target-y="39.2" target-x="155.6" target-width="3" target-height="110.3" node-id="596" group-id="4" fill-rule="nonzero" fill="#ccccde" d="m155.6,39.2l3,0l0,110.3l-3,0l0,-110.3z"/>
   <path id="svg_121" target-y="39.2" target-x="166" target-width="3" target-height="110.3" node-id="598" group-id="4" fill-rule="nonzero" fill="#ccccde" d="m166,39.2l3,0l0,110.3l-3,0l0,-110.3z"/>
   <path id="svg_122" target-y="39.2" target-x="176.1" target-width="3" target-height="110.3" node-id="600" group-id="4" fill-rule="nonzero" fill="#ccccde" d="m176.1,39.2l3,0l0,110.3l-3,0l0,-110.3z"/>
   <path id="svg_123" target-y="39.2" target-x="186.2" target-width="3" target-height="110.3" node-id="602" group-id="4" fill-rule="nonzero" fill="#ccccde" d="m186.2,39.2l3,0l0,110.3l-3,0l0,-110.3z"/>
   <path id="svg_124" target-y="60.9" target-x="113.1" target-width="86.4" target-height="3" node-id="604" group-id="4" fill-rule="nonzero" fill="#ccccde" d="m198,63.9l-83.5,0l-0.6,-0.1l-0.8,-0.8l0,-1.2l0.8,-0.7l84.1,-0.2l1,0.5l0.5,1l-0.5,1.1l-1,0.4z"/>
   <path id="svg_125" target-y="83.4" target-x="113.1" target-width="86.4" target-height="3" node-id="606" group-id="4" fill-rule="nonzero" fill="#ccccde" d="m198,86.4l-83.5,0l-0.6,-0.1l-0.8,-0.8l0,-1.2l0.8,-0.7l84.1,-0.2l1,0.5l0.5,1l-0.5,1.1l-1,0.4z"/>
   <path id="svg_126" target-y="104.8" target-x="113.1" target-width="86.4" target-height="3" node-id="608" group-id="4" fill-rule="nonzero" fill="#ccccde" d="m198,107.8l-83.5,0l-0.6,-0.1l-0.8,-0.8l0,-1.2l0.8,-0.8l84.1,-0.1l1,0.5l0.5,1l-0.5,1.1l-1,0.4z"/>
   <path id="svg_127" target-y="126.2" target-x="114.5" target-width="83.5" target-height="3" node-id="610" group-id="4" fill-rule="nonzero" fill="#ccccde" d="m114.5,126.2l83.5,0l0,3l-83.5,0l0,-3z"/>
   <g id="svg_128" node-id="1075">
    <path id="svg_129" target-y="157.6" target-x="137.6" target-width="8.59999" target-height="42.7" node-id="614" group-id="4,22" fill-rule="nonzero" fill="#f0f0ff" d="m137.6,157.6l8.6,0l0,42.7l-8.6,0l0,-42.7z"/>
    <path id="svg_130" target-y="156.2" target-x="136.1" target-width="11.59999" target-height="45.60001" node-id="616" group-id="4,22" fill-rule="nonzero" fill="#ccccde" d="m146.2,201.8l-8.6,0l-1,-0.4l-0.5,-1.1l0,-42.6l0.2,-0.6l0.7,-0.8l9.2,-0.1l1,0.4l0.5,1.1l0,42.6l-0.5,1.1l-1,0.4zm-7.1,-3l5.6,0l0,-39.6l-5.6,0l0,39.6z"/>
   </g>
   <g id="svg_131" node-id="1076">
    <path id="svg_132" target-y="155.7" target-x="166" target-width="8" target-height="44.60001" node-id="621" group-id="4,23" fill-rule="nonzero" fill="#f0f0ff" d="m166,155.7l8,0l0,44.6l-8,0l0,-44.6z"/>
    <path id="svg_133" target-y="154.2" target-x="164.5" target-width="11" target-height="47.60001" node-id="623" group-id="4,23" fill-rule="nonzero" fill="#ccccde" d="m174,201.8l-8,0l-1.1,-0.4l-0.4,-1.1l0,-44.6l0.1,-0.6l0.8,-0.8l8.6,-0.1l1.1,0.4l0.4,1.1l0,44.6l-0.4,1.1l-1.1,0.4zm-6.5,-3l5,0l0,-41.6l-5,0l0,41.6z"/>
   </g>
   <g id="svg_134" node-id="1077">
    <path id="svg_135" target-y="149.5" target-x="114.5" target-width="83.5" target-height="12.39999" node-id="628" group-id="4,24" fill-rule="nonzero" fill="#f0f0ff" d="m114.5,149.5l83.5,0l0,12.4l-83.5,0l0,-12.4z"/>
    <path id="svg_136" target-y="148" target-x="113" target-width="86.5" target-height="15.39999" node-id="630" group-id="4,24" fill-rule="nonzero" fill="#ccccde" d="m198,163.4l-83.5,0l-1.1,-0.4l-0.4,-1.1l0,-12.4l0.4,-1.1l1.1,-0.4l83.5,0l1,0.4l0.5,1.1l0,12.4l-0.5,1.1l-1,0.4zm-82,-3l80.5,0l0,-9.4l-80.5,0l0,9.4z"/>
   </g>
   <g id="svg_137" node-id="1078">
    <path id="svg_138" target-y="13.8" target-x="142.1" target-width="28" target-height="7.5" node-id="635" group-id="4,25" fill-rule="nonzero" fill="#ebebf7" d="m142.1,13.8l28,0l0,7.5l-28,0l0,-7.5z"/>
    <path id="svg_139" target-y="12.4" target-x="140.6" target-width="31" target-height="10.4" node-id="637" group-id="4,25" fill-rule="nonzero" fill="#ccccde" d="m170.1,22.8l-28.6,-0.1l-0.8,-0.8l-0.1,-0.6l0,-7.5l0.1,-0.6l0.8,-0.8l29.2,0l0.8,0.8l0.1,0.6l0,7.5l-0.4,1.1l-1.1,0.4zm-26.5,-3l25,0l0,-4.5l-25,0l0,4.5z"/>
   </g>
   <path id="svg_140" target-y="0.1" target-x="154.6" target-width="3" target-height="15.2" node-id="640" group-id="4" fill-rule="nonzero" fill="#ccccde" d="m156.1,15.3l-1.1,-0.5l-0.4,-1l0,-12.3l0.1,-0.6l0.8,-0.8l1.2,0l0.8,0.8l0.1,0.6l0,12.3l-0.4,1l-1.1,0.5z"/>
   <g id="svg_141" node-id="1079">
    <path id="svg_142" target-y="196" target-x="102.3" target-width="108.89999" target-height="8.8" node-id="644" group-id="4,26" fill-rule="nonzero" fill="#f0f0ff" d="m102.3,196l108.9,0l0,8.8l-108.9,0l0,-8.8z"/>
    <path id="svg_143" target-y="194.5" target-x="100.8" target-width="111.89999" target-height="11.8" node-id="646" group-id="4,26" fill-rule="nonzero" fill="#ccccde" d="m211.2,206.3l-108.9,0l-1,-0.5l-0.5,-1l0,-8.8l0.1,-0.5l0.8,-0.8l109.5,-0.2l1,0.5l0.5,1l0,8.8l-0.5,1l-1,0.5zm-107.4,-3l105.9,0l0,-5.8l-105.9,0l0,5.8z"/>
   </g>
  </g>
  <g id="svg_144" node-id="1058">
   <g id="svg_145" node-id="1080">
    <path id="svg_146" target-y="117.2" target-x="162.1" target-width="84.5" target-height="99.3" node-id="653" group-id="5,27" fill-rule="nonzero" fill="#ffffff" d="m246.6,216.5l-84.5,0l0,-72.2l42.2,-27.1l42.3,27.1l0,72.2z"/>
    <path id="svg_147" target-y="115.4" target-x="160.6" target-width="87.5" target-height="102.6" node-id="655" group-id="5,27" fill-rule="nonzero" fill="#ccccde" d="m248.1,218l-87.5,0l0,-74.6l43.7,-28l43.8,28.1l0,74.5zm-84.5,-3l81.5,0l0,-69.9l-40.8,-26.1l-40.7,26.1l0,69.9z"/>
   </g>
   <g id="svg_148" node-id="1081">
    <path id="svg_149" target-y="112.6" target-x="154.6" target-width="98.39999" target-height="35.7" node-id="660" group-id="5,28" fill-rule="nonzero" fill="#e0e6fc" d="m204.3,112.6l-49.7,30.2l0,5l7.5,0l42.2,-26.1l42.2,26.5l6.5,0.1l0,-5.5l-48.7,-30.2z"/>
    <path id="svg_150" target-y="111.1" target-x="153.1" target-width="101.39999" target-height="38.7" node-id="662" group-id="5,28" fill-rule="nonzero" fill="#ccccde" d="m253,149.8l-7.3,-0.4l-41.4,-25.9l-41.5,25.6l-0.7,0.2l-7.5,0l-1,-0.4l-0.5,-1.1l0,-5l0.7,-1.2l49.7,-30.3l0.8,-0.2l0.8,0.2l48.7,30.3l0.7,1.2l0,5.5l-0.4,1l-1.1,0.5zm-6.1,-3.1l4.6,0l0,-3l-47.2,-29.3l-48.2,29.3l0,2.6l5.5,0l41.9,-25.9l0.8,-0.2l0.8,0.2l41.8,26.3z"/>
   </g>
   <g id="svg_151" node-id="1082">
    <path id="svg_152" target-y="180.3" target-x="170" target-width="28.7" target-height="19" node-id="667" group-id="5,29" fill-rule="nonzero" fill="#d4eaff" d="m170,180.3l28.7,0l0,19l-28.7,0l0,-19z"/>
    <path id="svg_153" target-y="178.8" target-x="168.5" target-width="31.7" target-height="22" node-id="669" group-id="5,29" fill-rule="nonzero" fill="#ccccde" d="m198.7,200.8l-28.7,0l-1,-0.5l-0.5,-1l0,-19l0.5,-1l1,-0.5l28.7,0l1.1,0.5l0.4,1l0,19l-0.4,1l-1.1,0.5zm-27.2,-3l25.7,0l0,-16l-25.7,0l0,16z"/>
   </g>
   <g id="svg_154" node-id="1083">
    <path id="svg_155" target-y="205" target-x="162.1" target-width="84.5" target-height="11.5" node-id="674" group-id="5,30" fill-rule="nonzero" fill="#fcebe3" d="m162.1,205l84.5,0l0,11.5l-84.5,0l0,-11.5z"/>
    <path id="svg_156" target-y="203.5" target-x="160.6" target-width="87.5" target-height="14.5" node-id="676" group-id="5,30" fill-rule="nonzero" fill="#ccccde" d="m246.6,218l-84.5,0l-1.1,-0.4l-0.4,-1.1l0,-11.5l0.4,-1l1.1,-0.5l84.5,0l1.1,0.5l0.4,1l0,11.5l-0.4,1.1l-1.1,0.4zm-83,-3l81.5,0l0,-8.5l-81.5,0l0,8.5z"/>
   </g>
   <g id="svg_157" node-id="1084">
    <path id="svg_158" target-y="201.6" target-x="154.6" target-width="45.29999" target-height="14.89999" node-id="681" group-id="5,31" fill-rule="nonzero" fill="#cce8d6" d="m199.9,216.5l-0.7,-3.3l-2,-2.3l-1.3,-0.6l-1.5,-0.3l-2.6,0.8l-1.1,0.9l-0.6,-2.1l-1,-1.8l-1.2,-1.4l-1.5,-1.2l-1.7,-0.7l-1.9,-0.3l-1.7,0.3l-3,1.5l-1.5,-1.8l-1.7,-1.4l-2,-0.9l-2.3,-0.3l-2,0.3l-1.8,0.7l-1.7,1.2l-1.4,1.6l-1.1,1.8l-0.8,2.1l-1.2,-0.1l-1.6,0.2l-1.4,0.7l-1.2,1.1l-1,1.4l-0.5,1.6l-0.3,2.3l45.3,0z"/>
    <path id="svg_159" target-y="200.1" target-x="153.1" target-width="48.29999" target-height="17.89999" node-id="683" group-id="5,31" fill-rule="nonzero" fill="#ccccde" d="m154.6,218l-1,-0.4l-0.5,-1.5l0.3,-2.3l0.8,-2l1.2,-1.8l1.5,-1.3l1.8,-0.8l2.1,-0.2l1,-2.2l1.3,-1.8l1.6,-1.5l1.8,-1.1l2,-0.7l2.1,-0.3l2.2,0.3l2.1,0.7l1.9,1.2l1.6,1.6l2.1,-0.9l2.3,-0.3l3.6,0.8l3,2.3l2.1,3.4l2.9,-0.7l1.9,0.3l1.6,0.8l1.5,1.2l1.1,1.7l0.7,1.8l0.2,2.2l-0.4,1.1l-1.1,0.4l-45.3,0zm5.9,-7.3l-1.5,0.3l-1.3,0.9l-0.9,1.4l-0.6,1.7l42.1,0l-0.6,-1.4l-0.9,-1.1l-1.1,-0.7l-1.3,-0.3l-1.4,0.3l-2,1.3l-0.8,0l-0.6,-0.4l-1.7,-4l-2.3,-2.2l-1.3,-0.5l-2.8,-0.1l-3,1.6l-0.7,0l-0.6,-0.2l-1.7,-2.1l-1.4,-1.1l-1.7,-0.7l-1.8,-0.3l-1.6,0.3l-1.5,0.6l-1.4,1l-2.1,2.8l-1,2.4l-1,0.6l-1.5,-0.1z"/>
   </g>
   <g id="svg_160" node-id="1085">
    <path id="svg_161" target-y="180.3" target-x="211.5" target-width="22.10001" target-height="36.2" node-id="688" group-id="5,32" fill-rule="nonzero" fill="#ffdede" d="m211.5,180.3l22.1,0l0,36.2l-22.1,0l0,-36.2z"/>
    <path id="svg_162" target-y="178.8" target-x="210" target-width="25.10001" target-height="39.2" node-id="690" group-id="5,32" fill-rule="nonzero" fill="#ccccde" d="m233.6,218l-22.1,0l-0.6,-0.1l-0.8,-0.8l-0.1,-36.8l0.1,-0.5l0.8,-0.8l22.7,-0.2l0.6,0.2l0.7,0.8l0.2,36.7l-0.5,1.1l-1,0.4zm-20.6,-3l19.1,0l0,-33.2l-19.1,0l0,33.2z"/>
   </g>
   <path id="svg_163" target-y="172.1" target-x="160.7" target-width="87.40001" target-height="3" node-id="693" group-id="5" fill-rule="nonzero" fill="#ccccde" d="m246.6,175.1l-84.5,0l-0.6,-0.1l-0.8,-0.8l0,-1.2l0.8,-0.8l85.1,-0.1l1.1,0.4l0.4,1.1l-0.4,1.1l-1.1,0.4z"/>
   <g id="svg_164" node-id="1086">
    <g id="svg_165" node-id="1147">
     <path id="svg_166" target-y="149.1" target-x="170" target-width="15.5" target-height="17.59999" node-id="699" group-id="5,33,94" fill-rule="nonzero" fill="#d4eaff" d="m170,149.1l15.5,0l0,17.6l-15.5,0l0,-17.6z"/>
     <path id="svg_167" target-y="147.6" target-x="168.5" target-width="18.5" target-height="20.59999" node-id="701" group-id="5,33,94" fill-rule="nonzero" fill="#ccccde" d="m185.5,168.2l-15.5,0l-1,-0.4l-0.5,-1.1l0,-17.6l0.5,-1.1l1,-0.4l15.5,0l1,0.4l0.5,1.1l0,17.6l-0.5,1.1l-1,0.4zm-14,-3l12.5,0l0,-14.6l-12.5,0l0,14.6z"/>
    </g>
    <path id="svg_168" target-y="156.4" target-x="168.7" target-width="18.3" target-height="3" node-id="704" group-id="5,33" fill-rule="nonzero" fill="#ccccde" d="m185.5,159.4l-15.5,0l-0.6,-0.1l-0.7,-0.8l0,-1.2l0.7,-0.8l16.1,-0.1l1,0.4l0.5,1.1l-0.5,1.1l-1,0.4z"/>
   </g>
   <g id="svg_169" node-id="1087">
    <g id="svg_170" node-id="1148">
     <path id="svg_171" target-y="149.1" target-x="222.9" target-width="15.40001" target-height="17.59999" node-id="711" group-id="5,34,95" fill-rule="nonzero" fill="#d4eaff" d="m222.9,149.1l15.4,0l0,17.6l-15.4,0l0,-17.6z"/>
     <path id="svg_172" target-y="147.6" target-x="221.4" target-width="18.40001" target-height="20.59999" node-id="713" group-id="5,34,95" fill-rule="nonzero" fill="#ccccde" d="m238.3,168.2l-15.4,0l-1.1,-0.4l-0.4,-1.1l0,-17.6l0.4,-1.1l1.1,-0.4l15.4,0l1.1,0.4l0.4,1.1l0,17.6l-0.4,1.1l-1.1,0.4zm-13.9,-3l12.4,0l0,-14.6l-12.4,0l0,14.6z"/>
    </g>
    <path id="svg_173" target-y="156.4" target-x="221.5" target-width="18.3" target-height="3" node-id="716" group-id="5,34" fill-rule="nonzero" fill="#ccccde" d="m238.3,159.4l-15.4,0l-0.6,-0.1l-0.8,-0.8l0,-1.2l0.8,-0.8l16,-0.1l1.1,0.4l0.4,1.1l-0.4,1.1l-1.1,0.4z"/>
   </g>
   <g id="svg_174" node-id="1088">
    <g id="svg_175" node-id="1149">
     <path id="svg_176" target-y="149.1" target-x="196.5" target-width="15.5" target-height="17.59999" node-id="723" group-id="5,35,96" fill-rule="nonzero" fill="#d4eaff" d="m196.5,149.1l15.5,0l0,17.6l-15.5,0l0,-17.6z"/>
     <path id="svg_177" target-y="147.6" target-x="195" target-width="18.5" target-height="20.59999" node-id="725" group-id="5,35,96" fill-rule="nonzero" fill="#ccccde" d="m212,168.2l-15.5,0l-1,-0.4l-0.5,-1.1l0,-17.6l0.5,-1.1l1,-0.4l15.5,0l1,0.4l0.5,1.1l0,17.6l-0.5,1.1l-1,0.4zm-14,-3l12.5,0l0,-14.6l-12.5,0l0,14.6z"/>
    </g>
    <path id="svg_178" target-y="156.4" target-x="195" target-width="18.5" target-height="3" node-id="728" group-id="5,35" fill-rule="nonzero" fill="#ccccde" d="m212,159.4l-15.5,0l-1,-0.4l-0.5,-1.1l0.5,-1.1l1,-0.4l15.5,0l1,0.4l0.5,1.1l-0.5,1.1l-1,0.4z"/>
   </g>
   <path id="svg_179" target-y="179" target-x="182.9" target-width="3" target-height="21.8" node-id="731" group-id="5" fill-rule="nonzero" fill="#ccccde" d="m184.4,200.8l-1,-0.5l-0.5,-1l0,-19l0.1,-0.5l0.8,-0.8l1.2,0l0.8,0.8l0.1,0.5l0,19l-0.4,1l-1.1,0.5z"/>
   <g id="svg_180" node-id="1089">
    <path id="svg_181" target-y="212.4" target-x="208.5" target-width="28.10001" target-height="4.10001" node-id="735" group-id="5,36" fill-rule="nonzero" fill="#f0f0ff" d="m208.5,212.4l28.1,0l0,4.1l-28.1,0l0,-4.1z"/>
    <path id="svg_182" target-y="211" target-x="207" target-width="31.10001" target-height="7" node-id="737" group-id="5,36" fill-rule="nonzero" fill="#ccccde" d="m236.6,218l-28.7,-0.1l-0.7,-0.8l-0.2,-0.6l0,-4.1l0.2,-0.6l0.7,-0.8l29.2,0l0.8,0.8l0.2,0.6l0,4.1l-0.5,1.1l-1,0.4zm-26.6,-3l25.1,0l0,-1.1l-25.1,0l0,1.1z"/>
   </g>
   <path id="svg_183" target-y="192.6" target-x="213.7" target-width="3" target-height="7.5" node-id="740" group-id="5" fill-rule="nonzero" fill="#ccccde" d="m215.2,200.1l-1.1,-0.4l-0.4,-1.1l0,-4.6l0.1,-0.6l0.8,-0.8l1.2,0l0.8,0.8l0.1,0.6l-0.1,5.2l-0.8,0.8l-0.6,0.1z"/>
  </g>
  <g id="svg_184" node-id="1059">
   <g id="svg_185" node-id="1090">
    <path id="svg_186" target-y="153" target-x="2.4" target-width="54.8" target-height="49" node-id="747" group-id="6,37" fill-rule="nonzero" fill="#d7f7e4" d="m57.2,175.4l-0.2,-2.7l-0.8,-2.5l-1.2,-2.4l-1.6,-2.1l-1.9,-1.8l-2.3,-1.5l-2.5,-1.1l-2.7,-0.7l-3.3,-0.2l-1.6,-2.1l-2,-1.8l-2.2,-1.5l-2.5,-1.1l-2.7,-0.7l-3,-0.2l-2.9,0.2l-2.7,0.7l-2.5,1.1l-2.3,1.5l-1.9,1.8l-1.6,2.1l-1.2,2.4l-0.8,2.5l-0.2,3.1l-2.4,1.5l-1.9,1.8l-1.7,2.1l-1.2,2.4l-0.7,2.5l-0.3,2.8l0.3,2.7l0.7,2.5l1.2,2.4l1.6,2.1l1.9,1.8l2.3,1.5l2.5,1.1l2.7,0.7l4.5,0.2l3.4,2.9l4.2,1.9l4.9,0.7l2.7,-0.3l2.5,-0.5l2.4,-1l4,-2.9l2.9,-3.9l1,-2.2l0.5,-2.4l2.5,-1.5l2,-1.8l1.8,-2.2l1.2,-2.4l0.8,-2.6l0.3,-2.9z"/>
    <path id="svg_187" target-y="151.5" target-x="0.9" target-width="57.8" target-height="52" node-id="749" group-id="6,37" fill-rule="nonzero" fill="#ccccde" d="m32.6,203.5l-2.5,-0.2l-4.7,-1.3l-2.2,-1l-3.7,-3l-3.4,-0.1l-3.1,-0.7l-2.9,-1.2l-2.6,-1.6l-2.2,-2l-1.9,-2.3l-1.3,-2.7l-0.9,-2.8l-0.3,-3.1l0.3,-2.8l0.7,-2.7l1.2,-2.5l1.6,-2.3l2,-2l2.4,-1.7l0.4,-2.9l0.8,-2.7l1.4,-2.5l1.7,-2.2l2.1,-1.9l2.5,-1.6l2.7,-1.2l2.9,-0.7l3.1,-0.3l3,0.2l2.7,0.7l2.7,1.1l2.4,1.4l2.1,1.8l1.8,2.2l3.2,0.3l2.9,0.8l2.7,1.2l2.4,1.7l2.1,2l1.7,2.3l1.3,2.5l0.8,2.7l0.2,3l-0.2,3l-0.8,2.7l-1.3,2.6l-1.7,2.3l-2.2,2l-2.5,1.7l-0.7,2.6l-1.1,2.3l-1.5,2.2l-3.8,3.5l-2.3,1.4l-2.5,0.9l-2.7,0.6l-2.8,0.3zm-11.9,-8.6l3.7,3.3l3.9,1.7l4.3,0.6l2.4,-0.2l4.4,-1.4l2,-1.2l3.2,-3l2,-3.9l0.6,-3l3,-1.8l1.9,-1.6l1.5,-2l1.2,-2.2l0.7,-2.3l0.2,-2.5l-0.2,-2.4l-0.7,-2.3l-1.1,-2.1l-1.4,-1.9l-1.8,-1.6l-2,-1.4l-2.3,-1l-2.5,-0.6l-3.9,-0.2l-1.9,-2.7l-1.8,-1.6l-2.1,-1.3l-2.3,-1l-2.4,-0.6l-2.6,-0.2l-2.6,0.2l-2.5,0.6l-2.3,1l-2,1.4l-1.8,1.6l-1.4,1.9l-1.1,2.1l-0.7,2.3l-0.2,3.7l-3,1.8l-1.8,1.7l-1.4,1.9l-1.1,2.1l-0.7,2.3l-0.2,2.4l0.2,2.4l0.7,2.3l1.1,2.1l1.4,1.9l1.8,1.6l2.1,1.4l2.2,1l2.5,0.6l4.8,0.1z"/>
   </g>
   <g id="svg_188" node-id="1091">
    <path id="svg_189" target-y="152.8" target-x="2.1" target-width="54.9" target-height="48.59999" node-id="754" group-id="6,38" fill-rule="nonzero" fill-opacity="0.1" fill="#6e6e96" d="m40.8,159.8l-0.4,0l-2.7,-3.2l-1.7,-1.3l-3.9,-1.9l-2.2,-0.6l2.5,0.9l2.3,1.3l1.9,1.7l3.5,4.8l2.9,0.2l2.3,0.6l1.8,0.9l1.5,1.2l1.1,1.6l0.9,1.8l0.5,2.2l0,5.2l-0.5,2l-0.8,1.7l-1.1,1.5l-1.6,1.4l-2.1,1.2l-0.4,2.1l-1.9,3.7l-3,2.9l-1.9,1.2l-4.2,1.3l-2.3,0.2l-4.2,-0.6l-1.9,-0.7l-2.5,-1.5l-2.1,-1.9l-3.9,-0.1l-2.3,-0.4l-4,-1.6l-3,-2.7l-1,-1.7l-0.6,-1.9l-0.2,-2.3l0.2,-2.4l0.5,-1.8l0.8,-1.6l1.9,-2.1l2.6,-2.2l0,-5l0.4,-1.6l5.9,-6.9l2.8,-1.9l-2.9,1.3l-2.5,1.8l-2.1,2.3l-1.6,2.6l-0.7,1.9l-0.6,4.4l-2.3,1.5l-2,1.8l-1.6,2.2l-1.2,2.3l-0.8,2.6l-0.3,2.7l0.3,2.8l0.7,2.5l1.2,2.3l1.6,2.1l2,1.8l2.2,1.6l2.5,1.1l2.7,0.7l4.5,0.1l3.4,2.9l2.1,1.1l4.5,1.3l2.5,0.2l2.7,-0.2l2.6,-0.6l2.3,-0.9l4.1,-2.9l2.9,-3.9l0.9,-2.3l0.5,-2.4l2.5,-1.5l2.1,-1.8l1.7,-2.1l1.3,-2.4l0.8,-2.7l0.3,-2.8l-0.3,-2.8l-0.7,-2.5l-1.2,-2.3l-1.6,-2.1l-2,-1.8l-2.2,-1.5l-2.5,-1.1l-2.7,-0.7l-3,-0.3z"/>
   </g>
   <g id="svg_190" node-id="1092">
    <path id="svg_191" target-y="179.9" target-x="17.8" target-width="23.8" target-height="37.3" node-id="759" group-id="6,39" fill-rule="nonzero" fill="#ede3da" d="m17.8,183.6l2.5,0.9l1.7,0.9l1.5,1.3l1.3,1.7l1.2,3l0.4,4.3l-0.2,5.9l-0.6,3.6l-1.2,4.1l-2.7,5.3l-2,2.6l20.1,0l-2.4,-3.9l-2.9,-6l-1.1,-3.7l-0.8,-3.9l-0.1,-4.1l0.3,-2.7l0.7,-2.7l1.2,-2.8l1.6,-2.5l2.3,-2.5l3,-2.5l-6,2.6l-6.9,1.5l-6.7,0.2l-4.2,-0.6z"/>
    <path id="svg_192" target-y="178.6" target-x="16.4" target-width="26.4" target-height="40.09999" node-id="761" group-id="6,39" fill-rule="nonzero" fill="#ccccde" d="m39.8,218.7l-23.4,0l4,-4.9l2.5,-5l1.2,-3.8l0.8,-6.7l-0.5,-6.9l-0.5,-1.5l-2.2,-2.8l-1.5,-1l-2.8,-1.1l0.7,-2.9l6.5,0.7l3.2,-0.2l7,-1.4l6,-2.6l1.7,2.5l-2.7,2.2l-2.1,2.3l-1.7,2.5l-1.1,2.7l-0.7,2.8l-0.2,2.8l0.5,5.3l1,3.8l1.3,3.4l2.8,5.2l3.2,4.6l-3,0zm-17,-3l14.2,0l-3,-5.7l-1.4,-3.6l-1.5,-7.2l0.1,-6l0.8,-3.2l1.2,-2.9l1.7,-2.8l-5.5,1.2l-4.7,0.3l2.1,3.1l0.6,1.9l0.5,5.2l-0.2,5.4l-1.4,7l-1.4,3.6l-2.1,3.7z"/>
   </g>
   <path id="svg_193" target-y="183.5" target-x="30" target-width="9.8" target-height="33.7" node-id="768" group-id="6,41" fill-rule="nonzero" fill-opacity="0.11" fill="#6e6e96" d="m36.6,183.5l-2.4,3.9l-2.7,6.4l-1.5,7l0.2,6.3l0.6,3.2l1.1,3.3l1.7,3.6l6.2,0l-3.9,-7.4l-1.3,-3.5l-1.5,-7.1l0.1,-6.2l0.6,-3.1l1.1,-3.1l1.7,-3.3z"/>
  </g>
  <path id="svg_194" target-y="215.5" target-x="0" target-width="256" target-height="27" node-id="772" fill-rule="nonzero" fill="#f0f0ff" d="m0,215.5l256,0l0,27l-256,0l0,-27z"/>
  <path id="svg_195" target-y="214" target-x="0" target-width="256" target-height="3" node-id="774" fill-rule="nonzero" fill="#ccccde" d="m0,214l256,0l0,3l-256,0l0,-3z"/>
  <path id="svg_196" target-y="241" target-x="0" target-width="256" target-height="3" node-id="776" fill-rule="nonzero" fill="#ccccde" d="m0,241l256,0l0,3l-256,0l0,-3z"/>
  <path id="svg_197" target-y="227.5" target-x="0" target-width="10.5" target-height="3" node-id="778" fill-rule="nonzero" fill="#ccccde" d="m0,227.5l10.5,0l0,3l-10.5,0l0,-3z"/>
  <path id="svg_198" target-y="227.5" target-x="25.5" target-width="13" target-height="3" node-id="780" fill-rule="nonzero" fill="#ccccde" d="m25.5,227.5l13,0l0,3l-13,0l0,-3z"/>
  <path id="svg_199" target-y="227.5" target-x="118" target-width="10.5" target-height="3" node-id="785" fill-rule="nonzero" fill="#ccccde" d="m118,227.5l10.5,0l0,3l-10.5,0l0,-3z"/>
  <path id="svg_200" target-y="227.5" target-x="142.5" target-width="13.5" target-height="3" node-id="787" fill-rule="nonzero" fill="#ccccde" d="m142.5,227.5l13.5,0l0,3l-13.5,0l0,-3z"/>
  <path id="svg_201" target-y="228" target-x="185.2" target-width="9.8" target-height="3" node-id="789" fill-rule="nonzero" fill="#ccccde" d="m185.2,228l9.8,0l0,3l-9.8,0l0,-3z"/>
  <g id="svg_202" node-id="1063" transform="translate(57, 0)">
   <animateTransform xmlns="http://www.w3.org/2000/svg" attributeName="transform" attributeType="XML" dur="3s" repeatCount="indefinite" type="translate" values="57,0;-250,0;" calcMode="linear"/>
   <g id="svg_203" node-id="1095">
    <path id="svg_204" target-y="192.8" target-x="209.3" target-width="31" target-height="18.39999" node-id="795" group-id="10,42" fill-rule="nonzero" fill="#e0f8ff" d="m240.3,207.6l-0.1,1.4l-0.5,1.1l-1.1,0.8l-1.3,0.3l-25.1,0l-1.4,-0.3l-1,-0.8l-0.5,-1.1l0,-1.4l2.2,-11.2l0.5,-1.4l1,-1.1l1.3,-0.8l1.5,-0.3l18.6,0l1.4,0.3l1.3,0.8l0.9,1.1l0.6,1.4l1.7,11.2z"/>
    <path id="svg_205" target-y="191.3" target-x="207.7" target-width="34.10001" target-height="21.39999" node-id="797" group-id="10,42" fill-rule="nonzero" fill="#ccccde" d="m237.3,212.7l-25.1,0l-1.4,-0.2l-2.1,-1.4l-1,-2.4l0.1,-1.4l2.2,-11.2l1.1,-2.4l2.1,-1.7l1.3,-0.5l19.9,-0.2l1.3,0.2l2.4,1.2l1.5,2.2l0.4,1.3l1.8,12.5l-1,2.4l-2.2,1.4l-1.3,0.2zm-21.5,-18.4l-1.8,0.7l-1,1.7l-2.3,11.2l0.3,1.3l1.2,0.5l25.1,0l0.7,-0.2l0.8,-0.9l-1.7,-12l-1,-1.6l-1.7,-0.7l-18.6,0z"/>
   </g>
   <g id="svg_206" node-id="1096">
    <path id="svg_207" target-y="209" target-x="199.9" target-width="47" target-height="15.2" node-id="802" group-id="10,43" fill-rule="nonzero" fill="#fff2c4" d="m246.9,220.6l-0.3,1.4l-0.7,1.1l-1.2,0.8l-1.4,0.3l-39.8,0l-1.4,-0.3l-1.2,-0.8l-0.7,-1.1l-0.3,-1.4l0,-8l0.3,-1.4l0.7,-1.1l1.2,-0.8l1.4,-0.3l39.8,0l1.4,0.3l1.2,0.8l0.7,1.1l0.3,1.4l0,8z"/>
    <path id="svg_208" target-y="207.5" target-x="198.6" target-width="49.59999" target-height="18.2" node-id="804" group-id="10,43" fill-rule="nonzero" fill="#ccccde" d="m243.3,225.7l-39.8,0l-2.6,-0.7l-1.8,-1.8l-0.5,-1.2l0,-10.8l0.5,-1.2l1.8,-1.8l2.6,-0.7l39.8,0l2.6,0.7l1.8,1.8l0.5,1.2l0,10.8l-0.5,1.2l-1.8,1.8l-2.6,0.7zm-39.8,-15.2l-1.5,0.6l-0.6,1.5l0.2,8.8l1.1,1.1l0.8,0.2l39.8,0l1.5,-0.6l0.6,-1.5l0,-8l-0.2,-0.8l-1.1,-1.1l-40.6,-0.2z"/>
   </g>
   <g id="svg_209" node-id="1097">
    <path id="svg_210" target-y="215.7" target-x="204.7" target-width="13.40001" target-height="13.5" node-id="809" group-id="10,44" fill-rule="nonzero" fill="#e7e7fc" d="m218.1,222.5l-0.2,1.8l-0.7,1.5l-1,1.4l-1.4,1.1l-1.6,0.6l-1.8,0.3l-1.8,-0.3l-1.6,-0.6l-1.3,-1.1l-1.1,-1.4l-0.6,-1.5l-0.3,-1.8l0.3,-1.9l0.6,-1.5l1.1,-1.4l1.3,-1l1.6,-0.7l1.8,-0.3l1.8,0.3l1.6,0.7l1.4,1l1,1.4l0.7,1.5l0.2,1.9z"/>
    <path id="svg_211" target-y="214.2" target-x="203.2" target-width="16.40001" target-height="16.5" node-id="811" group-id="10,44" fill-rule="nonzero" fill="#ccccde" d="m211.4,230.7l-2.2,-0.3l-1.9,-0.9l-1.7,-1.2l-1.3,-1.7l-0.8,-1.9l-0.3,-2.2l0.3,-2.2l0.8,-2l1.3,-1.6l1.7,-1.3l1.9,-0.9l2.2,-0.3l2.2,0.3l2,0.9l1.6,1.3l1.3,1.6l0.8,2l0.3,2.2l-0.3,2.2l-0.8,1.9l-1.3,1.7l-1.6,1.2l-2,0.9l-2.2,0.3zm0,-13.5l-1.4,0.2l-2.3,1.4l-1.3,2.2l-0.2,1.5l0.7,2.6l1.9,1.9l1.2,0.5l1.4,0.2l2.6,-0.7l1.9,-1.9l0.7,-2.6l-0.2,-1.5l-1.3,-2.2l-2.3,-1.4l-1.4,-0.2z"/>
   </g>
   <g id="svg_212" node-id="1098">
    <path id="svg_213" target-y="215.7" target-x="228.4" target-width="13.5" target-height="13.5" node-id="816" group-id="10,45" fill-rule="nonzero" fill="#e7e7fc" d="m241.9,222.5l-0.3,1.8l-0.7,1.5l-1,1.4l-1.4,1.1l-1.5,0.6l-1.9,0.3l-1.8,-0.3l-1.5,-0.6l-1.4,-1.1l-1.1,-1.4l-0.6,-1.5l-0.3,-1.8l0.3,-1.9l0.6,-1.5l1.1,-1.4l1.4,-1l1.5,-0.7l1.8,-0.3l1.9,0.3l1.5,0.7l1.4,1l1,1.4l0.7,1.5l0.3,1.9z"/>
    <path id="svg_214" target-y="214.2" target-x="226.9" target-width="16.5" target-height="16.5" node-id="818" group-id="10,45" fill-rule="nonzero" fill="#ccccde" d="m235.1,230.7l-2.2,-0.3l-1.9,-0.9l-1.7,-1.2l-1.2,-1.7l-0.9,-1.9l-0.3,-2.2l0.3,-2.2l0.9,-2l1.2,-1.6l1.7,-1.3l1.9,-0.9l2.2,-0.3l2.2,0.3l2,0.9l1.6,1.3l1.3,1.6l0.9,2l0.3,2.2l-0.3,2.2l-0.9,1.9l-1.3,1.7l-1.6,1.2l-2,0.9l-2.2,0.3zm0,-13.5l-1.4,0.2l-2.2,1.4l-1.4,2.2l-0.2,1.5l0.7,2.6l1.9,1.9l1.2,0.5l1.4,0.2l2.7,-0.7l1.8,-1.9l0.8,-2.6l-0.2,-1.5l-1.4,-2.2l-2.2,-1.4l-1.5,-0.2z"/>
   </g>
   <path id="svg_215" target-y="192.8" target-x="223.5" target-width="3" target-height="16.2" node-id="821" group-id="10" fill-rule="nonzero" fill="#ccccde" d="m223.5,192.8l3,0l0,16.2l-3,0l0,-16.2z"/>
  </g>
  <path id="svg_216" target-y="227.5" target-x="53" target-width="13" target-height="3" node-id="824" fill-rule="nonzero" fill="#ccccde" d="m53,227.5l13,0l0,3l-13,0l0,-3z"/>
  <path id="svg_217" target-y="227.5" target-x="78.5" target-width="13" target-height="3" node-id="826" fill-rule="nonzero" fill="#ccccde" d="m78.5,227.5l13,0l0,3l-13,0l0,-3z"/>
  <g id="svg_218" node-id="1064">
   <g id="svg_219" node-id="1099">
    <path id="svg_220" target-y="185.9" target-x="157.8" target-width="16.39999" target-height="62.10001" node-id="832" group-id="11,46" fill-rule="nonzero" fill="#ddddeb" d="m157.8,185.9l16.4,0l0,62.1l-16.4,0l0,-62.1z"/>
    <path id="svg_221" target-y="184.4" target-x="156.3" target-width="19.39999" target-height="65.10001" node-id="834" group-id="11,46" fill-rule="nonzero" fill="#6e6e96" d="m175.7,249.5l-19.4,0l0,-65.1l19.4,0l0,65.1zm-16.4,-3l13.4,0l0,-59.1l-13.4,0l0,59.1z"/>
   </g>
   <g id="svg_222" node-id="1100">
    <path id="svg_223" target-y="185.9" target-x="92.4" target-width="16.4" target-height="62.10001" node-id="839" group-id="11,47" fill-rule="nonzero" fill="#ddddeb" d="m92.4,185.9l16.4,0l0,62.1l-16.4,0l0,-62.1z"/>
    <path id="svg_224" target-y="184.4" target-x="90.9" target-width="19.4" target-height="65.10001" node-id="841" group-id="11,47" fill-rule="nonzero" fill="#6e6e96" d="m110.3,249.5l-19.4,0l0,-65.1l19.4,0l0,65.1zm-16.4,-3l13.4,0l0,-59.1l-13.4,0l0,59.1z"/>
   </g>
   <g id="svg_225" node-id="1101">
    <path id="svg_226" target-y="81.3" target-x="54" target-width="157.5" target-height="105" node-id="846" group-id="11,48" fill-rule="nonzero" fill="#ffffff" d="m54,81.3l157.5,0l0,105l-157.5,0l0,-105z"/>
    <path id="svg_227" target-y="79.8" target-x="52.5" target-width="160.5" target-height="108" node-id="848" group-id="11,48" fill-rule="nonzero" fill="#6e6e96" d="m211.5,187.8l-157.5,0l-1,-0.4l-0.5,-1.1l0,-105l0.1,-0.5l0.8,-0.8l158.1,-0.2l1.1,0.5l0.4,1l0,105l-0.4,1.1l-1.1,0.4zm-156,-3l154.5,0l0,-102l-154.5,0l0,102z"/>
   </g>
   <g id="svg_228" node-id="1102">
    <path id="svg_229" target-y="88.3" target-x="60.8" target-width="144" target-height="90.8" node-id="853" group-id="11,49" fill-rule="nonzero" fill="#ffe3b0" d="m60.8,88.3l144,0l0,90.8l-144,0l0,-90.8z">
      <animate xmlns="http://www.w3.org/2000/svg" attributeName="fill" begin="0s" dur="3s" from="#ffe3b0" to="#ed3da1" repeatCount="indefinite"/>
    </path>
    <path id="svg_230" target-y="86.9" target-x="59.3" target-width="147" target-height="93.70001" node-id="855" group-id="11,49" fill-rule="nonzero" fill="#6e6e96" d="m204.8,180.6l-144.6,-0.1l-0.8,-0.8l-0.1,-0.6l0,-90.8l0.1,-0.6l0.8,-0.8l145.2,0l0.8,0.8l0.1,0.6l0,90.8l-0.4,1.1l-1.1,0.4zm-142.5,-3l141,0l0,-87.8l-141,0l0,87.8z"/>
   </g>
   <g xmlns="http://www.w3.org/2000/svg" stroke="null"><path xmlns="http://www.w3.org/2000/svg" d="M78.81461120513987,110.2365831791853 Q79.40803678205984,109.55754432528614 80.10935791841983,109.04826518486178 Q80.7027834953398,108.61174020735518 81.43107852155978,108.24796939276635 T82.94161635371974,107.93270135345604 Q84.0745197278397,108.0054555163738 84.82978864391968,108.41772910624113 T86.03012674268963,109.43628738708986 T86.63703926453962,110.81861648252743 T86.74493482397962,112.39495667907903 T86.39427425579962,113.9227941003521 T85.67946617450966,115.29299750197005 T84.77584086419968,116.46918980247393 T83.8047808292397,117.43924530804415 Q83.07648580301974,118.11828416194331 82.26726910721976,118.73669454674432 T80.7297573851998,119.82800699051081 T79.42152372698985,120.57980000732772 T78.57184619639987,120.85869096517918 Q78.24815951807989,120.85869096517918 77.7221686658099,120.5676743135081 T76.54880445689994,119.80375560287156 T75.17313607403997,118.71244315910506 T73.71654602160004,117.4634966956834 Q73.25798989398004,117.05122310581606 72.69153820692006,116.52981827157208 T71.62606955745011,115.39000305252706 T70.77639202686012,114.03192534472876 T70.39875756882013,112.44345945435754 Q70.34480978910014,111.61891227462284 70.58757479784013,110.87924495162555 T71.3023828791301,109.55754432528614 T72.46226014311006,108.57536312589629 T74.01325881006002,108.0054555163738 T75.72610081616997,108.16308953602896 T77.27709948311991,108.95125963430476 Q78.0863161789199,109.48479016236837 78.81461120513987,110.2365831791853 zM86.09756146733963,107.93270135345604 Q86.44822203551962,107.93270135345604 86.77190871383962,107.9569527410953 Q87.06862150229962,107.98120412873455 87.3923081806196,108.02970690401305 T87.95875986767957,108.17521522984859 T88.47126377501957,108.42985480006077 T88.98376768235954,108.73299714555145 L89.52324547955953,109.12101934777954 Q89.68508881871952,108.97551102194402 89.87390604773951,108.85425408374773 Q90.2245666159195,108.61174020735518 90.8179921928395,108.29647216804486 Q91.14167887115947,108.12671245457007 91.57326110891945,108.04183259783268 T92.44991252936944,107.98120412873455 T93.3265639498194,108.13883814838971 T94.05485897603938,108.56323743207668 Q94.89104956169938,109.3635332241721 95.05289290085935,110.12745193480865 T95.01243206606935,111.55828380552471 T94.40551954421937,112.73447610602861 T93.67722451799939,113.53477189812403 Q93.05682505121942,114.09255381382691 92.50386030908943,114.50482740369425 T91.14167887115947,115.45063152162521 Q90.71009663339949,115.71739678565703 90.23805356084951,115.91140788677106 T89.52324547955953,116.1054189878851 Q89.28048047081953,116.12967037552436 88.99725462728955,115.92353358059069 T88.30942043585956,115.45063152162521 Q88.12060320683956,115.32937458342893 87.95875986767957,115.15961486995414 L87.63507318935957,114.89284960592234 L87.3113865110396,114.60183295425126 Q87.60809929949959,114.11680520146616 87.79691652851959,113.51052051048478 Q87.95875986767957,113.00124137006041 88.03968153725957,112.31007682234164 T87.95875986767957,110.81861648252743 Q87.76994263865957,110.06682346571051 87.4597429052696,109.50904155000764 T86.85283038341962,108.61174020735518 Q86.50216981523963,108.19946661748784 86.09756146733963,107.93270135345604 z" p-id="6595" stroke="#ed3da1" fill="#E46AA3"><animate xmlns="http://www.w3.org/2000/svg" attributeName="fill" begin="0s" dur="3s" from="white" to="#ed3da1" repeatCount="indefinite"/><animateTransform attributeName="transform" type="scale" from="1.2 1" to="1 1" begin="0s" dur="3s" repeatCount="indefinite"/></path><path xmlns="http://www.w3.org/2000/svg" d="M132.6974829413836,133.7886785795584 A9.487840129326216,9.238214464488333 0 0 1 132.22468922374773,132.80752775050883 C132.29988681877757,132.86120700850472 132.37376031611453,132.91617496728287 132.44994969078846,132.96749235360187 A7.630075871476161,7.429328099989842 0 0 0 132.6974829413836,133.7886785795584 zM131.81187718909527,140.04103379193037 C131.7791300626102,140.0057126419935 131.74505998832157,139.9703914920567 131.71110030341944,139.93367471612066 C131.63358740599733,139.70639649032648 131.5492389907849,139.4814801362092 131.46720587796477,139.2566712671268 C131.57261394336984,139.52259876021247 131.6877253508345,139.78530506116044 131.81187718909527,140.04103379193037 zM124.7711392049649,134.40878269805444 C124.2749711096888,134.0547135576789 123.77648713707578,133.70536816065723 123.26874195489376,133.36493394480482 C123.33908759142146,133.269062891911 123.40822009458742,133.17523125558955 123.47625042872288,133.07936020269574 C123.98410600029136,132.3730469282653 124.48258997290442,131.65750169701477 125.0489933153217,130.99864138601032 C125.09607438865093,130.94721651465647 125.1394062474533,130.89235604091317 125.18395123961733,130.83813991756097 A5.160150145683047,5.024386273903844 0 0 1 125.46202612874707,131.1529160000718 C125.53931824739625,131.4633971597323 125.60856113994869,131.77516646035718 125.68364777064735,132.08876132712055 C125.8582993035496,132.84188265476791 126.03901477842628,133.59328590131156 126.2124531779668,134.34705101953216 C126.29349393619816,134.70455576229716 126.37199861326435,135.05959114835042 126.44829837732475,135.4147334596206 C126.46263232416887,135.4821545673566 126.47420941107485,135.55193754676947 126.4846837540056,135.62622985928442 C125.91353941741733,135.22062892233814 125.34239450588431,134.81524239564362 124.77124959435136,134.40878269805444 L124.7711392049649,134.40878269805444 zM120.39879383977119,105.82238640810407 C120.40474796730392,105.81712579939395 120.41158406003892,105.81369075682234 120.41643544359636,105.80982577411142 C120.48909695746106,105.76398340675432 120.56638850116549,105.72071788114383 120.64158552125063,105.6793848468888 C120.56186828576745,105.7281253914612 120.48082695259137,105.77428965410489 120.39879383977119,105.82238640810407 zM119.26819206794242,129.7572530529066 L119.26929481191769,129.7572530529066 C119.26819206794242,129.75381745051715 119.26819206794242,129.7497380575544 119.26697893458069,129.74640994019978 C119.26808167855594,129.74984554258924 119.26929481191769,129.75381745051715 119.26929481191769,129.7560718371592 L119.26929481191769,129.7572530529066 S119.26929481191769,129.75897057419243 119.27050737033466,129.7595074395487 L119.27050737033466,129.7663786443277 C119.26940462635942,129.77539675071392 119.26223794040972,129.7595074395487 119.26819206794242,129.7572530529066 zM138.08443670573905,135.56567939650955 C138.08223179273327,135.539269427742 138.07859296759284,135.51650947161568 138.07638805458703,135.49246081470716 C138.04694858508293,135.28354125678993 138.0212583301058,135.0756948697674 137.99534729635565,134.86784848274485 C137.94264326365314,134.47029884668916 137.8921441439564,134.0696366231664 137.83348598372112,133.66865194453908 C137.6529907126727,132.41148178530503 137.41130177516848,131.1529160000718 136.91392054653073,129.97658690302717 C136.6266942622737,129.29528853118302 136.23372931939696,128.70889552637286 135.72697591685898,128.16415745110433 C135.19916343907306,127.59988005202935 134.61522830727233,127.08445124237949 134.15897402443113,126.47121832866243 C133.64527413977163,125.77896991889448 133.39178733658855,124.985374317635 133.1750170782457,124.15839061761204 C132.98029882468427,123.42137301138169 132.74566618374337,122.70593470534811 132.45943225407513,121.9973676040935 C132.32094589402553,121.64898845274956 132.1709928364564,121.29266492573196 132.0031779712339,120.93988448613867 C132.40783039040315,121.36856783431575 132.7808390020072,121.81904489294139 133.08339158769712,122.32448935052729 C133.8799067807126,123.65552244195486 134.46031347675932,125.11678149053535 135.17347260915113,126.49966827382029 C135.1757879115434,126.50696885892073 135.1782136033221,126.51448385427292 135.18527047483008,126.52436072130206 C135.20743286899798,126.56923684298141 135.2533008089655,126.59328549988993 135.29552992379263,126.59274863453365 C135.37282204244175,126.59092362821302 135.44559337074818,126.53101751582925 135.44790867314043,126.44717023157179 C135.44790867314043,126.43611214879525 135.44559337074818,126.42483965576695 135.44327806835594,126.41281532731269 C135.4408523765772,126.40315287053534 135.43853649924023,126.39563787518313 135.43853649924023,126.39005537118639 C135.03278133609575,124.86481025744152 134.60574574398566,123.33731131687246 133.95841145777877,121.88818352196317 C133.64637688374688,121.19045953341542 133.26862727797186,120.52182984041666 133.01547164294814,119.805640258775 C132.9251685252583,119.54754965632816 132.84423815641344,119.2860240113097 132.76441053154377,119.02342463557869 C133.1959663390519,119.63891193593783 133.69566287008192,120.20877183900956 134.18124623304078,120.78153047911448 C134.6282387313683,121.31156045896519 135.0633235495751,121.85275544680938 135.47150440449832,122.41230854271264 C135.82212984316152,122.8919873819221 136.04617775178525,123.46356480627963 136.42150109083687,123.93980804309959 C136.4261322705661,123.94828928412953 136.43440170049104,123.95634114483804 136.44024543863728,123.9620311338696 C136.47409530909766,124.00551162954977 136.52470424323616,124.02537284864286 136.57156453779245,124.0237628123919 C136.6465413540494,124.0237628123919 136.72515642050206,123.97233794103808 136.72636897891903,123.8855919197474 C136.72636897891903,123.86787760226157 136.72284111810978,123.85198885091425 136.7171071944053,123.8336301830373 C136.17760724032695,122.27478256027717 134.96001000778932,121.09566221123416 134.16481776257734,119.69495306561065 C133.70966622371134,118.8962043406759 133.29927988083767,118.0754474950408 132.9193247871121,117.24191448552548 C132.79715765802888,116.97630944754432 132.67057955304472,116.71360258677846 132.55557853496646,116.44821195904908 C132.51698767033514,116.35727905976086 132.44785516716914,116.22490620100066 132.39371722233196,116.08963404538939 C132.267029302906,114.18637917921318 131.9409913752447,112.2358868794986 131.20445729026792,110.45716798144377 C131.09651314369768,109.15297479892311 130.85261871824298,107.86370468188993 130.32601879887403,106.66397127832788 C129.88145199232528,105.64943179069691 129.21294766653924,104.73688272531282 128.30970088537052,104.05955682121444 C127.47702051950242,103.43258205775732 126.4330824652783,103.12199341306197 125.39873678878261,103.03106107359164 A6.9717158703508915,6.7882895915060395 0 0 0 124.78756767542836,103.00432864971958 C123.05064817380273,103.00432864971958 121.0849397693824,103.6330209344625 120.38688615965054,105.25349275071008 C119.6948964918931,105.63944743863296 119.10985919106187,106.17355681144639 118.61369109578581,106.78625285980716 A13.299514925917663,12.949603859737074 0 0 0 118.29349690627075,106.98379299947912 C116.94700626635671,107.84878161640245 115.97109854626802,109.0410000246123 115.57008437729453,110.58385141099028 C115.40822306466,111.2033111790952 115.32497739342286,111.83339908983729 115.32497739342286,112.46252075490166 C115.32497739342286,113.05063184081551 115.39642519898108,113.63831298659001 115.54417334354444,114.21547347476216 C115.8233504017047,115.32438146407083 116.32426006609644,116.36146593775841 116.84964742704837,117.37095978674891 C117.28958305386793,118.21780526568284 117.75631225458461,119.05874578551553 118.11289182078053,119.93940874353439 C118.10925299564008,119.94284434592387 118.10473220529734,119.9460649782437 118.10120434448807,119.95143307198865 C118.10120434448807,119.95025241605914 118.10120434448807,119.95025241605914 118.09877865270934,119.95143307198865 C117.21791446953677,120.43261446241424 116.20694374562596,120.71936998008863 115.49962835138037,121.48623259765814 C115.17370081310554,121.84137546874624 114.90863692301646,122.23870957491437 114.66694798551228,122.64710232367692 C114.47564720337365,122.96971529682654 114.24707907935189,123.31616139699713 114.09470033000403,123.67720866736857 A10.113012021365202,9.84693804510333 0 0 1 113.80725326697409,123.91983933897167 C113.04139010187971,124.5404797630061 112.1546821805609,124.99267490273543 111.3300504658448,125.54664549464195 C110.68503205697489,125.9806963767461 110.04585681130646,126.47121832866243 109.61297748105015,127.12707241759887 C109.2870499427753,127.6245724995111 109.04767630766338,128.25541224567917 109.04646374924639,128.87100703107313 C109.04767630766338,129.04471348390624 109.06653104485027,129.21702431074016 109.1086503452356,129.3832152084032 C109.11217820604486,129.39287766518052 109.11460389782359,129.40329139756594 109.1192350775528,129.41220201891733 A2.7181201628176113,2.646606252011361 0 0 0 109.11217820604486,129.60308592387997 C109.11217820604486,129.91367456857535 109.15793633157061,130.2266250849476 109.23544865404801,130.52647810197095 C109.42774179077541,131.28131695090408 109.77241310190595,132.12687372905577 110.33672192070392,132.70016923451698 C110.36252256506755,132.72765293399712 110.3989079417484,132.74139478373718 110.43286820159524,132.74139478373718 C110.43749880637976,132.74139478373718 110.4445556778877,132.74139478373718 110.4480841136417,132.73795918134772 C110.54070195877905,132.82814080502783 110.63684823967039,132.9104849782513 110.74005139206967,132.99025230972813 A19.68288583845629,19.16502788592124 0 0 0 110.70730426558455,134.135769589938 C110.70730426558455,134.9683357939577 110.74953395535636,135.80197628850783 110.79760680832966,136.62305558924743 C110.87368636856183,138.00830424420928 111.0428241815878,139.37186723357533 111.2397479230997,140.74240779311938 C111.35243363878567,141.5337490077368 111.47790899979462,142.33196030749735 111.51539712045071,143.12684404972117 C110.67907792944217,142.57630906020415 109.84518443021236,142.02137166280198 109.00191875708234,141.48350479231246 C107.78454230331769,140.7057985022182 106.55062698970318,139.95772337302918 105.3120804963594,139.2177001045487 C104.67400856961096,138.83625474972786 104.0336201905808,138.4583519225135 103.39687121163583,138.07701405272752 C102.9293704351033,137.7959490839026 102.46848497253283,137.48976172745654 101.97948356320647,137.2397235455361 C100.2499515263035,136.35465873945003 98.40971848289215,135.48902577213556 96.48083643775384,135.09845482589367 C96.061739682354,135.01278253531558 95.59545203918319,134.93623583615857 95.13203049544754,134.93623583615857 C95.04823345222277,134.93623583615857 94.96333366502273,134.93870519287032 94.88107977342963,134.94439518190188 A0.21831398491925408,0.21257013037638167 0 0 0 94.76034540659165,134.9089665469302 A0.2139035839629646,0.20827576734399378 0 0 0 94.6858101478806,134.92034652499336 C94.61193607559895,134.94074460944273 94.53982650866662,134.9683357939577 94.47300873294819,134.99678629893344 C94.27244674124056,135.03919250408316 94.07938202869731,135.10307108421267 93.89591026882721,135.1989426969244 C93.56887998657713,135.3668516756911 93.33292439783271,135.62376106239054 93.1817587818466,135.9230766542397 A8.832898174568452,8.60050407335919 0 0 0 92.97281639588282,136.1091293308137 A13.374161148959898,13.022286136001055 0 0 0 92.17530884827858,136.90057747064805 A15.65146314481093,15.239672174479045 0 0 0 91.79072314976851,137.32432210540162 C91.66557838197424,137.46710925636512 91.55024677068134,137.64285568558853 91.40371175947972,137.74119609519408 C91.05286611698828,137.974056824985 90.8183438654338,138.3885689431006 90.57136198682632,138.6980838570834 A60.28731324820968,58.70115028111268 0 0 1 89.7849905435269,139.66892843878242 C89.22564349767285,140.34153059952695 88.61690007609728,140.9501466951071 88.00650311350358,141.5805570609537 C86.76321562598883,142.86531840470275 85.4957810351286,144.12731979232547 84.19857695649432,145.36172999543322 C83.54539893214121,145.98419542578827 82.90203406428942,146.62373138305594 82.20530340236101,147.1947719420572 C81.4992005665324,147.77257678062045 80.84492037314874,148.40287910161433 80.16153072853095,148.99904204823667 C78.94702152409093,150.05888703786843 77.69215637472547,151.07643274756742 76.44059945728577,152.09505162816112 C75.51111104915225,152.5234130810516 74.47963262198115,152.76883500465306 73.49854235017561,153.04410249941157 C72.81757897228127,153.23359021855714 72.13319754801944,153.43123784326397 71.48001952366629,153.70650533802245 C70.80567145973401,153.99197215491463 70.20795432802154,154.395211220184 69.59281579631215,154.7684977890794 C69.02167088477917,155.113333852999 68.43101004962992,155.4422806057534 67.7696729847383,155.5679977896222 C67.57252903939818,155.60449959548856 67.3771490244627,155.6158795735517 67.1802252829508,155.6158795735517 C66.81019373511307,155.6158795735517 66.44137532063706,155.57261404794122 66.06472845883727,155.57261404794122 A3.816085197547737,3.7156837582811275 0 0 0 65.66669135363011,155.59311961742543 C65.30007785215989,155.63423824142865 64.704345429625,155.74728674645203 64.59287284730074,156.19819318539913 C64.58405204538815,156.23716434797726 64.57997223764656,156.27388112391327 64.57997223764656,156.31038292977962 C64.59287284730074,156.81282172511538 65.35983875637038,156.98631320787882 65.70406908489974,157.04578993994113 L65.70406908489974,157.0468636706537 C65.71233908976942,157.04815181161806 65.72347519407425,157.04815181161806 65.73229599598682,157.04815181161806 C65.76096331473035,157.04815181161806 65.78797709245572,157.04128060683905 65.81146243442709,157.02753875709902 C66.49231542293498,157.2775774988374 67.12046437874031,157.68865345474558 67.83637979612556,157.88168482113338 A3.1085495994739087,3.0267634658678277 0 0 0 68.66674543454613,157.99140520880206 C69.23976466587021,157.99140520880206 69.79282699097686,157.83616434906287 70.32637281752255,157.56884122997803 C70.76101665312822,157.34940045464054 71.17140299600193,157.115572919354 71.59843801316728,156.92018024110718 C71.61365392521373,156.92468957420925 71.62820865083077,156.92468957420925 71.64364476670545,156.92468957420925 C71.67297384682306,156.92468957420925 71.70516960132056,156.91781836943028 71.73394730945056,156.9040765196902 C71.88114408202625,156.8310723481396 72.01951947774468,156.7580687364069 72.16142388416179,156.6951564019551 A3.977395138194635,3.872749624340967 0 0 1 72.82992820994784,156.5307905106127 C72.87039339437027,156.52391930583372 72.90975583481747,156.51822931680215 72.94955983281055,156.51350557344833 L72.990025017233,156.51350557344833 C73.28144092367336,156.51350557344833 73.5688879867033,156.55816672505802 73.85335798596691,156.63009716589605 C74.03694013522346,156.6734701765414 74.22802013858914,156.7317656928563 74.42031270037182,156.78984679891943 C74.70301819428606,156.99082254098087 75.13292046077603,157.0502987132253 75.47417430048377,157.05137244393785 C75.52864226359092,157.05137244393785 75.58090531369231,157.04815181161806 75.63019130002733,157.0468636706537 A2.4473223490240383,2.3829331455677707 0 0 0 75.92579740359577,157.0148706380715 C75.94046194365458,157.01379690735894 75.9551264837134,157.011435035682 75.97089376774746,157.00918064903993 C76.00496384203603,157.00252441433065 76.0423421482504,156.9955462843347 76.07696359452663,156.98631320787882 C76.08589421088095,156.98523947716626 76.09173852397188,156.9841657464537 76.09813305916104,156.98180387477674 C76.36385928556894,156.92125397181977 76.61955100175783,156.81733049839954 76.84944207358308,156.65071022041508 C77.21418125526219,156.38553400293748 77.47979651733891,155.99743241340735 77.60361833732972,155.5749759196181 C77.73207076210502,155.13169196105804 77.67043553810342,154.67488056300974 77.72258819881836,154.2455534242594 C78.43618831381133,153.90737359504908 79.16698905002833,153.60719868273915 79.89536409446663,153.2998306703636 C80.68592573489408,152.96873645618408 81.45410477732545,152.6032878975633 82.22360619261556,152.23332944602254 C83.90186810895065,151.42813945644815 85.65940627816775,150.7852759416437 87.34825292682007,149.98824473799476 C88.85373763004401,149.27774514538467 90.50586773385606,148.46697265181353 91.60118687297924,147.18103009231714 C92.68129010005599,145.9087224573438 93.48254686218715,144.4401628236629 94.53806200331726,143.15776335159077 C94.91051924293372,142.70556877167934 95.3109820399196,142.25208549098568 95.76370788700686,141.8707476211997 C97.0996137946037,143.38493465216806 98.57565902832354,144.7691101362352 100.05887152293784,146.1394362855275 C101.4705252476627,147.441482006623 102.84215477056628,148.77530635004894 104.30111034739335,150.02689400528627 A105.56586645808609,102.78842193545603 0 0 0 103.16455444803186,150.3764538125597 C100.59704852921274,151.1804631462046 97.99216545406873,151.90792578069244 95.54495291948643,153.0372312946326 C94.55515223515481,153.49404269268092 93.57571607931214,153.99197215491463 92.66673594938366,154.59049697321387 C91.89569023257242,155.0986257575812 91.07580008697204,155.6912456167792 90.58966535202556,156.49418121971155 C90.38425140181576,156.8345079505291 90.26528154032714,157.20553957296448 90.26528154032714,157.57678616546957 C90.26528154032714,157.90100917487015 90.35679664148925,158.22437342362787 90.56099745833733,158.52347460522523 C90.96961987080641,159.11502129352857 91.62059240720905,159.47810798047243 92.28964810498269,159.71590742368684 C93.68310885389478,160.21254874495617 95.2212308691621,160.32914033740389 96.7219745782151,160.32914033740389 C97.23446132951284,160.32914033740389 97.74408083148599,160.3141103466995 98.2426751934855,160.2982210355343 C100.22481206836923,160.23434301522263 102.19570302450641,160.02875101484216 104.16504967912246,159.82079714278478 C104.99541531754303,159.73405112149413 105.82335468924015,159.67929813278565 106.65625583388118,159.60038956195172 C108.42482029296139,159.43033368157774 110.18875357231236,159.19392986436253 111.93416328263586,158.87067254082177 C114.41467374074617,158.41160731594923 116.9176771862391,157.8085731645479 119.31383922913702,156.95893699343353 C120.20054715045583,156.7854449508522 121.06255717138626,156.48387441254306 121.88244731698666,156.11166213417815 C123.12220694369212,155.54963912174526 124.29040722556348,154.74799221959518 124.99882536378435,153.57402499422744 C125.5488002357382,152.66040275794867 125.80702860803702,151.60979028495493 125.80702860803702,150.55681650010212 C125.80702860803702,150.50667976971266 125.80702860803702,150.46083796217346 125.80449252687181,150.41295561842605 C125.77880169694991,149.2754907587426 125.56280358936763,148.1139772421506 125.07975573262928,147.0736715763253 C124.61181397349556,146.06192334069272 123.98079834331034,145.03643325532005 123.10224946252998,144.3008112750889 A42.42040353537751,41.304320075826034 0 0 1 122.16978399063014,143.08787288714308 C121.69478535998847,142.45080684640504 121.24426500085173,141.79398651179088 120.89496250999198,141.08606320110948 C120.49615325402425,140.27872575010997 120.23108936393518,139.40740279376394 120.23340466632743,138.53242926495875 C120.23340466632743,138.0380428901494 120.31786347092628,137.5423678145578 120.50795111970318,137.05592581542209 C120.7423629818712,136.46674099879564 121.09298842053441,135.9721396539166 121.49775180403483,135.49815136355662 A66.90950584892789,65.14911258198326 0 0 1 122.05610649530011,136.04407009475466 C123.25584134523956,137.22029170676444 124.43694223676512,138.41251011497428 125.65674438230846,139.57166175988937 C126.62791110822617,140.49440958758922 127.61440413557679,141.48586666398938 128.74368295960207,142.239524856993 C129.2222100259977,142.55923909310943 129.76060723610084,142.85726654399423 130.3576631813839,142.9145963744493 C130.41863721895612,142.92028636348087 130.48082324000063,142.9236144808355 130.54289944660337,142.9236144808355 C130.7482030074267,142.9236144808355 130.94755244071735,142.88711211515127 131.14579913003269,142.8138935333489 A0.057445026873513265,0.05593364463799187 0 0 0 131.15748660632514,142.8104584907773 C131.42497618819297,142.73401871683723 131.66192413152618,142.59821025568755 131.8236750547742,142.34130086898807 C131.97858988528725,142.08879333035586 132.04198903969348,141.79763652443214 132.04198903969348,141.50970035082824 C132.04198903969348,141.46750855593032 132.04198903969348,141.42757114767446 132.03956334791474,141.3885999850964 C132.02313487745133,141.12149127626327 131.976274582895,140.85889190053229 131.9128754284888,140.6008018579033 C132.07242086378636,140.76280587756875 132.2342821764209,140.92384421137436 132.40319978561863,141.08026572704307 C132.41025665712658,141.08488198536207 132.41731295368982,141.0929338460706 132.42536217978656,141.09980505084957 C132.45711695168285,141.12836248104225 132.49460507233897,141.14210433078233 132.53231397176802,141.14210433078233 C132.61997004396147,141.140816189818 132.69770314521182,141.07339508208202 132.6999086331623,140.98321345840185 C132.6999086331623,140.95701789988607 132.69174901767911,140.9273867389808 132.67289485543694,140.90108425524807 C132.6682636757077,140.89324680479137 132.66352268153673,140.8863761598303 132.65767894339052,140.87478121169747 C132.11001937382892,140.05724499838217 131.7299544656616,139.15145965274223 131.4436101466069,138.21496997530232 C131.3124014368382,137.78553535151715 131.20335454629267,137.3482632772753 131.09408745191894,136.91206493374602 C131.93393507868146,138.640968996698 132.99551473673074,140.27872575010997 134.81920834534748,141.18891294381714 C134.82626521685546,141.1944954478139 134.83684994917263,141.1991117061329 134.84875820423804,141.2037279644519 C134.87213315682294,141.21510794251503 134.8966108533831,141.22069100632967 134.920206584741,141.22069100632967 A0.17123291159000836,0.16672776301929593 0 0 0 135.09011654852753,141.05643204020424 C135.09011654852753,141.01649463194838 135.0737978925058,140.97655722369254 135.0375223302667,140.94445670607553 C135.02925290034176,140.93640484536704 135.0208736559751,140.92953420040595 135.0163528656323,140.92384421137436 C133.9490398588233,139.96910335109234 133.1666372589343,138.7255675565635 132.52150846067786,137.4693636430072 C132.16151084811446,136.76809712685298 131.867117302963,136.05437634210523 131.6571831373552,135.29943000813722 C131.56346254824257,134.9568483308597 131.47536491850326,134.61083161101055 131.38748806753688,134.26492181637838 C131.64075466689175,134.68501643849066 131.90240051061335,135.1008166975706 132.15809280174693,135.51887134329263 C132.4641732482461,136.02002143784614 132.7937396116614,136.633361836598 133.3531964719572,136.9370792765144 C133.36962551736536,136.94631235297027 133.3882594757793,136.95425672864394 133.40479833562918,136.96220166413548 C133.4281732882141,136.97476229812816 133.45397393257775,136.98045228715972 133.47734888516266,136.98045228715972 C133.565446514902,136.979486041482 133.62641997752948,136.90519372896702 133.62641997752948,136.8274663738805 C133.62641997752948,136.80223706104243 133.62057623938324,136.77732964349102 133.60877837370433,136.75435471729506 C133.06001606016747,135.66498661161074 132.5016613689022,134.55715235301466 132.22733569429937,133.38780138596593 C132.62371925848836,134.1813969872254 133.12793600491648,134.91347588003225 133.71451760726882,135.58607804077678 C133.75310847190016,135.63288609399373 133.791809725918,135.67872846135083 133.83403884074505,135.72424837360342 A7.057718401526177,6.872029390728667 0 0 0 134.1061596023421,136.0142239637797 C134.10847490473435,136.01894826695144 134.1109005965131,136.02002143784614 134.1109005965131,136.02002143784614 L134.11321647385006,136.0210951685587 C134.8732359007982,136.78978335226674 135.76931542107252,137.4007618793417 136.6465413540494,138.02655542705142 C136.67002669602078,138.04244417839874 136.69715028818788,138.05178473988946 136.72284111810978,138.05060352414205 C136.7908708773005,138.05060352414205 136.84963942692218,137.99928613782305 136.85074217089746,137.93293876079966 C136.85074217089746,137.9033075998944 136.83541586946453,137.87131456731223 136.80851248112566,137.84608525447416 C135.91000726907262,137.06054207374106 134.88503376647714,136.39116054531638 134.1061596023421,135.49707763284405 C134.08278464975717,135.46733898690394 134.05687361600707,135.43878155671126 134.03228553006042,135.41033161155337 C133.4986293141283,134.7718693849983 133.12793600491648,134.03184611651778 132.8910984509697,133.24844983739195 C133.29685418905893,133.48818177196182 133.72852038595352,133.68475566595606 134.18819271516227,133.80907666400776 C135.0679541543596,134.04333357961576 135.98046272004206,134.08208977212422 136.85537277568199,134.28435365515003 C136.8670602519744,134.28650111657515 136.87411712348236,134.2887555032172 136.8859149891613,134.29219110560672 C136.89760246545373,134.29455297728364 136.90928994174624,134.29455297728364 136.9234031098174,134.29455297728364 C137.01734447770298,134.29455297728364 137.07578185916526,134.21446319070228 137.07578185916526,134.135769589938 C137.07578185916526,134.0867065902611 137.05009160418808,134.0339935779429 136.99617443812383,134.0090861603915 A0.1444399126375832,0.14063968953835174 0 0 0 136.9668453580062,133.99416309490402 C135.93823360521498,133.48592738531977 134.84875820423804,133.06572527817264 133.90449486665923,132.42500866497542 C133.35451999470538,132.0516151708631 132.90267611282044,131.60897556269416 132.55094793018196,131.09923674207587 C132.54852223840325,131.0055125907893 132.54741949442797,130.91071470879012 132.54741949442797,130.8182786984679 C132.54741949442797,129.7572530529066 132.70806767370078,128.71233112876234 132.78315430439943,127.64153554138889 C132.7937396116614,127.50132523217198 132.80079590822464,127.359718737138 132.8065292569844,127.21854218224337 C132.85349994092715,127.27844829462713 132.90521161904093,127.33567064004735 132.95670309332644,127.39096049411212 A8.024805319702278,7.8136721918438585 0 0 0 134.00990293206428,128.3731850538743 C134.43341008842043,128.70427926805382 134.87676433655218,128.99790487087142 135.25098550657327,129.37698835401534 C136.08366587244137,130.21288323520756 136.69715028818788,131.25039764903448 137.11227762523257,132.34041010510992 C137.19309817963574,132.55169209452194 137.27061050211313,132.76200783825624 137.33610475508334,132.9754367292755 C137.41130177516848,133.40948817119755 137.4769064175252,133.85137650375844 137.5379902695392,134.29219110560672 C137.54041596131793,134.50690869740825 137.54151870529319,134.7308588058478 137.57084778541076,134.9522320725407 C137.59907412155314,135.17382030930332 137.67405036286536,135.37597670729429 137.71396475024488,135.58264243838732 C137.7161696632507,135.59638428812738 137.71859535502938,135.60787175122536 137.72102104680812,135.6193592143233 C137.73733970282984,135.70835962225607 137.8195930194782,135.75162514786658 137.8921441439564,135.74947768644142 C137.98123412828448,135.74947768644142 138.08443670573905,135.69343655676863 138.08697278690423,135.58607804077678 C138.08697278690423,135.5782405903201 138.08697278690423,135.571369945359 138.08443670573905,135.56567995632741 " fill="pink" p-id="9677" stroke="null">
<animate xmlns="http://www.w3.org/2000/svg" attributeName="fill" begin="0s" dur="2s" from="pink" to="white" repeatCount="indefinite"/>
</path></g>
   <g id="svg_283" node-id="1104">
    <path xmlns="http://www.w3.org/2000/svg" id="svg_284" target-y="118.1" target-x="148.7" target-width="41.8" target-height="4.1" node-id="993" group-id="11,51" fill-rule="nonzero" fill-opacity="0.5" fill="#6e6e96" d="m148.7,118.1l41.8,0l0,4.1l-41.8,0l0,-4.1z">
    <animate xmlns="http://www.w3.org/2000/svg" attributeName="d" begin="0s" dur="2s" from="m148.7,118.1l41.8,0l0,4.1l-41.8,0l0,-4.1z" to="M159.13,117.81 L178.03,117.810 L178.03,121.910 L159.13,121.910 L159.1347,117.810 z" repeatCount="indefinite"/>
</path>
   </g>
   <g id="svg_285" node-id="1105">
    <path xmlns="http://www.w3.org/2000/svg" id="svg_286" target-y="130.4" target-x="157.1" target-width="25" target-height="4.10001" node-id="998" group-id="11,52" fill-rule="nonzero" fill-opacity="0.5" fill="#6e6e96" d="m157.1,130.4l25,0l0,4.1l-25,0l0,-4.1z">
<animate xmlns="http://www.w3.org/2000/svg" attributeName="d" begin="0s" dur="1.5s" to="M150.72318582383073,130.11014493703843 L188.47681262566218,130.11014493703843 L188.47681262566218,134.21014493703842 L150.72318582383073,134.21014493703842 L150.72318582383073,130.11014493703843 z" repeatCount="indefinite"/>
</path>
   </g>
   <g id="svg_287" node-id="1106">
    <path xmlns="http://www.w3.org/2000/svg" id="svg_288" target-y="142.7" target-x="151.1" target-width="37" target-height="4.10001" node-id="1003" group-id="11,53" fill-rule="nonzero" fill-opacity="0.5" fill="#6e6e96" d="m151.1,142.7l37,0l0,4.1l-37,0l0,-4.1z">
<animate xmlns="http://www.w3.org/2000/svg" attributeName="d" begin="0s" dur="2s" to="M162.40434603661888,142.4101449370384 L174.47681568554808,142.4101449370384 L174.47681568554808,146.51014493703843 L162.40434603661888,146.51014493703843 L162.40434603661888,142.4101449370384 z" repeatCount="indefinite"/>
</path>
   </g>
   <g id="svg_289" node-id="1107">
    <path id="svg_290" target-y="171.9" target-x="61.6" target-width="143.20001" target-height="6.90001" node-id="1008" group-id="11,54" fill-rule="nonzero" fill-opacity="0.15" fill="#6e6e96" d="m61.6,171.9l143.2,0l0,6.9l-143.2,0l0,-6.9z"/>
   </g>
   <g id="svg_291" node-id="1108">
    <path id="svg_292" target-y="186.3" target-x="92.4" target-width="16.4" target-height="6.2" node-id="1013" group-id="11,55" fill-rule="nonzero" fill-opacity="0.15" fill="#6e6e96" d="m92.4,186.3l16.4,0l0,6.2l-16.4,0l0,-6.2z"/>
   </g>
   <g id="svg_293" node-id="1109">
    <path id="svg_294" target-y="186.3" target-x="157.8" target-width="16.39999" target-height="6.2" node-id="1018" group-id="11,56" fill-rule="nonzero" fill-opacity="0.15" fill="#6e6e96" d="m157.8,186.3l16.4,0l0,6.2l-16.4,0l0,-6.2z"/>
   </g>
   <g id="svg_295" node-id="1110">
    <path id="svg_296" target-y="239" target-x="84.8" target-width="31.6" target-height="9" node-id="1023" group-id="11,57" fill-rule="nonzero" fill="#ddddeb" d="m84.8,239l31.6,0l0,9l-31.6,0l0,-9z"/>
    <path id="svg_297" target-y="237.7" target-x="83.3" target-width="34.6" target-height="11.8" node-id="1025" group-id="11,57" fill-rule="nonzero" fill="#6e6e96" d="m116.4,249.5l-32.2,-0.1l-0.8,-0.8l-0.1,-0.6l0,-9l0.1,-0.5l0.8,-0.8l32.7,0l0.8,0.8l0.2,0.5l0,9l-0.5,1.1l-1,0.4zm-30.1,-3l28.6,0l0,-6l-28.6,0l0,6z"/>
   </g>
   <g id="svg_298" node-id="1111">
    <path id="svg_299" target-y="239" target-x="150.4" target-width="31.60001" target-height="9" node-id="1030" group-id="11,58" fill-rule="nonzero" fill="#ddddeb" d="m150.4,239l31.6,0l0,9l-31.6,0l0,-9z"/>
    <path id="svg_300" target-y="237.5" target-x="148.9" target-width="34.60001" target-height="12" node-id="1032" group-id="11,58" fill-rule="nonzero" fill="#6e6e96" d="m182,249.5l-32.2,-0.1l-0.7,-0.8l-0.2,-0.6l0,-9l0.5,-1l1,-0.5l32.2,0.2l0.8,0.8l0.1,0.5l0,9l-0.4,1.1l-1.1,0.4zm-30.1,-3l28.6,0l0,-6l-28.6,0l0,6z"/>
   </g>
   <g id="svg_301" node-id="1112">
    <path id="svg_302" target-y="239" target-x="169.3" target-width="12.7" target-height="9" node-id="1037" group-id="11,59" fill-rule="nonzero" fill-opacity="0.15" fill="#6e6e96" d="m169.3,239l12.7,0l0,9l-12.7,0l0,-9z"/>
   </g>
   <g id="svg_303" node-id="1113">
    <path id="svg_304" target-y="239" target-x="104.9" target-width="11.5" target-height="9" node-id="1042" group-id="11,60" fill-rule="nonzero" fill-opacity="0.15" fill="#6e6e96" d="m104.9,239l11.5,0l0,9l-11.5,0l0,-9z"/>
   </g>
   <g id="svg_305" node-id="1114">
    <path id="svg_306" target-y="192.5" target-x="93.6" target-width="2.7" target-height="45.3" node-id="1047" group-id="11,61" fill-rule="nonzero" fill-opacity="0.39" fill="#ffffff" d="m93.6,192.5l2.7,0l0,45.3l-2.7,0l0,-45.3z"/>
   </g>
   <path id="svg_307" target-y="192.5" target-x="159.2" target-width="2.7" target-height="45.3" node-id="1052" group-id="11,62" fill-rule="nonzero" fill-opacity="0.39" fill="#ffffff" d="m159.2,192.5l2.7,0l0,45.3l-2.7,0l0,-45.3z"/>
  </g>
 </g>
</svg>