<?xml version="1.0" standalone="no"?><!DOCTYPE svg PUBLIC "-//W3C//DTD SVG 1.1//EN" "http://www.w3.org/Graphics/SVG/1.1/DTD/svg11.dtd"><svg height="250" node-id="1" sillyvg="true" template-height="250" template-width="256" version="1.1" viewBox="0 0 256 250" width="256" xmlns="http://www.w3.org/2000/svg" xmlns:xlink="http://www.w3.org/1999/xlink"><defs node-id="310"></defs><g node-id="1054"><path d="M 256.00 126.40 L 255.80 120.60 L 255.10 114.90 L 254.00 109.50 L 252.40 104.30 L 250.50 99.10 L 248.20 94.20 L 245.50 89.50 L 242.50 85.10 L 239.10 80.80 L 235.50 76.90 L 231.50 73.30 L 227.30 69.90 L 222.80 66.90 L 218.10 64.30 L 213.20 62.00 L 208.10 60.00 L 202.80 58.50 L 197.40 57.40 L 191.70 56.70 L 184.10 56.50 L 180.80 51.50 L 177.20 46.80 L 173.20 42.50 L 168.80 38.50 L 164.00 34.90 L 159.00 31.70 L 153.80 28.90 L 148.20 26.60 L 142.40 24.70 L 136.50 23.40 L 130.30 22.60 L 123.90 22.30 L 118.00 22.50 L 112.40 23.20 L 107.00 24.30 L 101.70 25.80 L 96.50 27.80 L 91.60 30.10 L 86.90 32.70 L 82.50 35.80 L 78.20 39.10 L 74.30 42.70 L 70.70 46.70 L 67.30 50.90 L 64.30 55.40 L 61.60 60.00 L 59.30 64.90 L 57.40 70.10 L 55.80 75.40 L 54.70 80.80 L 54.00 86.40 L 53.80 93.70 L 48.60 96.90 L 43.80 100.60 L 39.40 104.60 L 35.20 109.00 L 31.50 113.80 L 28.20 118.80 L 25.30 124.10 L 22.80 129.80 L 20.90 135.60 L 19.50 141.70 L 18.70 147.90 L 18.40 154.50 L 18.60 160.30 L 19.30 165.90 L 20.40 171.30 L 21.90 176.60 L 23.90 181.70 L 26.20 186.60 L 28.90 191.30 L 31.90 195.70 L 35.20 200.00 L 38.90 203.90 L 42.80 207.50 L 47.10 210.90 L 51.50 213.90 L 56.20 216.60 L 61.10 218.90 L 66.30 220.80 L 71.60 222.30 L 77.00 223.40 L 82.60 224.10 L 88.40 224.40 L 95.00 224.10 L 99.50 229.00 L 104.50 233.50 L 109.90 237.60 L 118.60 242.60 L 123.30 244.60 L 133.20 247.70 L 138.30 248.70 L 149.00 249.50 L 154.40 249.30 L 164.70 247.80 L 169.60 246.40 L 179.10 242.80 L 187.80 237.90 L 193.10 233.90 L 198.00 229.60 L 202.60 224.70 L 206.60 219.50 L 210.10 213.80 L 213.10 207.80 L 216.60 198.40 L 218.60 188.20 L 224.00 185.00 L 229.10 181.40 L 233.80 177.40 L 238.20 172.90 L 242.10 168.10 L 245.60 163.00 L 248.70 157.50 L 251.20 151.80 L 253.30 145.70 L 254.80 139.50 L 255.70 133.10 L 256.00 126.40 Z" fill="#d6f0ff" fill-rule="nonzero" group-id="1" node-id="313" stroke="none" target-height="227.2" target-width="237.6" target-x="18.4" target-y="22.3"></path></g><g node-id="1055"><path d="M 243.30 95.10 L 241.90 94.90 L 239.50 93.40 L 235.40 85.50 L 231.70 79.20 L 227.50 73.30 L 222.80 67.70 L 217.70 62.60 L 212.20 57.80 L 206.30 53.50 L 200.10 49.60 L 193.50 46.20 L 187.80 43.80 L 182.00 41.80 L 176.00 40.10 L 170.00 38.90 L 163.80 38.10 L 157.70 37.70 L 151.60 37.70 L 145.40 38.10 L 142.80 37.70 L 140.80 36.10 L 140.20 35.00 L 139.90 32.30 L 140.30 31.10 L 141.90 29.10 L 144.30 28.10 L 151.20 27.70 L 158.00 27.70 L 164.80 28.10 L 171.60 29.00 L 178.30 30.40 L 184.90 32.20 L 191.40 34.50 L 197.80 37.20 L 203.30 39.90 L 213.60 46.40 L 218.40 50.00 L 224.50 55.30 L 230.20 61.00 L 235.40 67.20 L 242.20 77.20 L 245.20 82.50 L 248.20 89.30 L 248.20 90.60 L 247.30 93.00 L 245.30 94.60 L 243.30 95.10 Z" fill="#f59fb3" fill-opacity="0.48" fill-rule="nonzero" group-id="2" node-id="317" stroke="none" target-height="67.399994" target-width="108.3" target-x="139.9" target-y="27.7"></path><path d="M 244.60 130.70 L 242.20 130.00 L 240.40 128.30 L 239.90 127.20 L 238.30 114.20 L 235.40 103.00 L 231.10 92.30 L 228.40 87.30 L 222.00 77.80 L 214.50 69.30 L 205.70 61.70 L 195.90 55.40 L 190.60 52.70 L 184.30 50.10 L 177.90 48.00 L 171.50 46.40 L 165.00 45.40 L 158.40 44.80 L 151.80 44.80 L 145.40 45.30 L 138.90 46.20 L 132.50 47.70 L 126.30 49.60 L 120.30 52.00 L 114.40 55.00 L 108.70 58.30 L 103.30 62.10 L 98.10 66.40 L 92.10 72.00 L 91.00 72.50 L 88.40 72.60 L 86.10 71.30 L 85.30 70.30 L 84.60 67.80 L 85.10 65.40 L 85.90 64.30 L 91.40 58.90 L 97.20 54.10 L 103.30 49.90 L 109.60 46.20 L 116.20 42.90 L 123.00 40.20 L 129.90 38.00 L 137.00 36.40 L 144.30 35.30 L 151.50 34.80 L 158.80 34.80 L 166.20 35.50 L 173.40 36.60 L 180.60 38.40 L 187.70 40.70 L 194.80 43.70 L 200.80 46.70 L 206.40 50.10 L 211.70 53.70 L 216.70 57.80 L 221.50 62.20 L 225.90 66.80 L 229.90 71.70 L 233.70 76.90 L 237.00 82.30 L 240.00 87.90 L 242.60 93.80 L 244.90 99.80 L 246.70 106.00 L 248.10 112.30 L 249.10 118.80 L 249.60 125.50 L 249.50 126.80 L 248.30 129.10 L 246.20 130.40 L 244.60 130.70 Z" fill="#ffff75" fill-opacity="0.48" fill-rule="nonzero" group-id="2" node-id="319" stroke="none" target-height="95.899994" target-width="165" target-x="84.6" target-y="34.8"></path><path d="M 236.30 144.10 L 234.40 143.70 L 233.30 143.10 L 231.70 141.10 L 231.40 139.90 L 231.80 132.30 L 231.80 126.10 L 231.30 120.10 L 230.30 114.20 L 228.90 108.30 L 227.00 102.70 L 224.70 97.20 L 222.00 91.90 L 218.90 86.80 L 215.50 82.00 L 211.60 77.40 L 207.40 73.10 L 202.80 69.20 L 198.00 65.60 L 192.70 62.40 L 187.20 59.50 L 181.40 57.10 L 175.60 55.20 L 169.60 53.80 L 163.60 52.80 L 157.50 52.40 L 151.50 52.40 L 145.50 52.80 L 139.40 53.80 L 133.50 55.20 L 127.70 57.10 L 122.00 59.40 L 115.20 62.80 L 112.70 62.70 L 110.50 61.50 L 109.60 60.40 L 109.00 57.90 L 109.70 55.40 L 111.50 53.60 L 117.80 50.40 L 124.20 47.70 L 130.80 45.60 L 137.50 44.00 L 144.30 42.90 L 151.10 42.40 L 157.90 42.40 L 164.80 42.90 L 171.60 44.00 L 178.30 45.60 L 184.90 47.70 L 191.40 50.50 L 197.70 53.70 L 203.60 57.40 L 209.10 61.40 L 214.20 65.80 L 219.00 70.70 L 223.30 75.80 L 227.30 81.30 L 230.80 87.00 L 233.80 93.00 L 236.40 99.20 L 238.50 105.60 L 240.10 112.20 L 241.20 118.90 L 241.80 125.70 L 241.80 132.60 L 241.30 139.70 L 241.00 140.90 L 239.60 142.80 L 237.50 143.90 L 236.30 144.10 Z" fill="#afeb75" fill-opacity="0.48" fill-rule="nonzero" group-id="2" node-id="321" stroke="none" target-height="101.700005" target-width="132.8" target-x="109" target-y="42.4"></path><path d="M 224.10 107.40 L 222.60 107.20 L 221.30 106.60 L 220.20 105.60 L 217.00 98.80 L 214.20 93.60 L 211.00 88.70 L 207.30 84.10 L 203.30 79.80 L 199.00 75.90 L 194.30 72.40 L 189.30 69.20 L 184.00 66.50 L 178.00 64.00 L 172.00 62.20 L 165.90 60.90 L 159.80 60.20 L 153.60 60.00 L 147.50 60.40 L 141.50 61.30 L 135.50 62.70 L 129.70 64.60 L 124.10 67.00 L 118.70 69.90 L 113.50 73.30 L 108.70 77.10 L 104.20 81.40 L 100.10 86.10 L 95.40 92.40 L 94.30 93.10 L 91.80 93.60 L 89.40 92.80 L 88.30 91.90 L 87.20 89.60 L 87.30 87.10 L 87.90 85.90 L 91.60 80.70 L 95.60 76.00 L 100.00 71.50 L 104.70 67.40 L 109.70 63.70 L 115.10 60.40 L 120.60 57.50 L 126.40 55.10 L 132.40 53.10 L 138.70 51.50 L 144.90 50.50 L 151.20 50.00 L 157.60 50.00 L 163.80 50.50 L 170.10 51.50 L 176.20 52.90 L 182.30 54.90 L 188.20 57.40 L 194.30 60.60 L 200.00 64.20 L 205.30 68.20 L 210.30 72.70 L 214.90 77.60 L 219.10 82.80 L 222.80 88.40 L 226.00 94.30 L 228.80 100.60 L 229.10 102.00 L 229.00 103.20 L 228.00 105.50 L 225.90 107.10 L 224.10 107.40 Z" fill="#75d5eb" fill-opacity="0.48" fill-rule="nonzero" group-id="2" node-id="323" stroke="none" target-height="57.4" target-width="141.90001" target-x="87.2" target-y="50"></path></g><g node-id="1056"><path d="M 28.30 82.70 L 131.50 82.70 L 131.50 214.40 L 28.30 214.40 Z" fill="#ffffff" fill-rule="nonzero" group-id="3" node-id="327" stroke="none" target-height="131.7" target-width="103.2" target-x="28.3" target-y="82.7"></path><g node-id="1065"><g node-id="1116"><path d="M 28.30 82.70 L 166.30 82.70 L 166.30 216.90 L 28.30 216.90 Z" fill="#ffffff" fill-opacity="0.33" fill-rule="nonzero" group-id="3,12,63" node-id="333" stroke="none" target-height="134.2" target-width="138" target-x="28.3" target-y="82.7"></path><path d="M 166.30 218.40 L 28.30 218.40 L 27.30 217.90 L 26.80 216.90 L 26.80 82.70 L 27.00 82.10 L 27.80 81.30 L 166.30 81.20 L 167.30 81.60 L 167.80 82.70 L 167.80 216.90 L 167.30 217.90 L 166.30 218.40 Z M 29.80 215.40 L 164.80 215.40 L 164.80 84.20 L 29.80 84.20 L 29.80 215.40 Z" fill="#6e6e96" fill-opacity="0.33" fill-rule="nonzero" group-id="3,12,63" node-id="335" stroke="none" target-height="137.2" target-width="141" target-x="26.8" target-y="81.2"></path></g><g node-id="1117"><path d="M 120.50 128.80 L 135.40 128.80 L 135.40 151.80 L 120.50 151.80 Z" fill="#bddfff" fill-opacity="0.33" fill-rule="nonzero" group-id="3,12,64" node-id="340" stroke="none" target-height="23" target-width="14.899994" target-x="120.5" target-y="128.8"></path><path d="M 135.40 153.30 L 120.50 153.30 L 119.90 153.20 L 119.10 152.40 L 119.00 128.80 L 119.10 128.20 L 119.90 127.40 L 135.40 127.30 L 136.00 127.40 L 136.80 128.20 L 136.90 151.80 L 136.40 152.90 L 135.40 153.30 Z M 122.00 150.30 L 133.90 150.30 L 133.90 130.30 L 122.00 130.30 L 122.00 150.30 Z" fill="#6e6e96" fill-opacity="0.33" fill-rule="nonzero" group-id="3,12,64" node-id="342" stroke="none" target-height="26" target-width="17.899994" target-x="119" target-y="127.3"></path></g><g node-id="1118"><path d="M 120.50 157.40 L 135.40 157.40 L 135.40 180.30 L 120.50 180.30 Z" fill="#bddfff" fill-opacity="0.33" fill-rule="nonzero" group-id="3,12,65" node-id="347" stroke="none" target-height="22.90001" target-width="14.899994" target-x="120.5" target-y="157.4"></path><path d="M 135.40 181.80 L 120.50 181.80 L 119.90 181.70 L 119.10 180.90 L 119.00 157.40 L 119.10 156.80 L 119.90 156.00 L 135.40 155.90 L 136.00 156.00 L 136.80 156.80 L 136.90 180.30 L 136.40 181.40 L 135.40 181.80 Z M 122.00 178.80 L 133.90 178.80 L 133.90 158.90 L 122.00 158.90 L 122.00 178.80 Z" fill="#6e6e96" fill-opacity="0.33" fill-rule="nonzero" group-id="3,12,65" node-id="349" stroke="none" target-height="25.90001" target-width="17.899994" target-x="119" target-y="155.9"></path></g><g node-id="1119"><path d="M 99.60 99.80 L 114.50 99.80 L 114.50 123.20 L 99.60 123.20 Z" fill="#bddfff" fill-opacity="0.33" fill-rule="nonzero" group-id="3,12,66" node-id="354" stroke="none" target-height="23.399994" target-width="14.900002" target-x="99.6" target-y="99.8"></path><path d="M 114.50 124.70 L 99.60 124.70 L 99.00 124.50 L 98.20 123.80 L 98.10 99.80 L 98.20 99.20 L 99.00 98.40 L 114.50 98.30 L 115.00 98.40 L 115.80 99.20 L 116.00 123.20 L 115.50 124.20 L 114.50 124.70 Z M 101.10 121.70 L 113.00 121.70 L 113.00 101.30 L 101.10 101.30 L 101.10 121.70 Z" fill="#6e6e96" fill-opacity="0.33" fill-rule="nonzero" group-id="3,12,66" node-id="356" stroke="none" target-height="26.399994" target-width="17.900002" target-x="98.1" target-y="98.3"></path></g><g node-id="1120"><path d="M 99.60 128.80 L 114.50 128.80 L 114.50 151.80 L 99.60 151.80 Z" fill="#bddfff" fill-opacity="0.33" fill-rule="nonzero" group-id="3,12,67" node-id="361" stroke="none" target-height="23" target-width="14.900002" target-x="99.6" target-y="128.8"></path><path d="M 114.50 153.30 L 99.60 153.30 L 99.00 153.20 L 98.20 152.40 L 98.10 128.80 L 98.20 128.20 L 99.00 127.40 L 114.50 127.30 L 115.00 127.40 L 115.80 128.20 L 116.00 151.80 L 115.50 152.90 L 114.50 153.30 Z M 101.10 150.30 L 113.00 150.30 L 113.00 130.30 L 101.10 130.30 L 101.10 150.30 Z" fill="#6e6e96" fill-opacity="0.33" fill-rule="nonzero" group-id="3,12,67" node-id="363" stroke="none" target-height="26" target-width="17.900002" target-x="98.1" target-y="127.3"></path></g><g node-id="1121"><path d="M 141.50 128.80 L 158.90 128.80 L 158.90 151.80 L 141.50 151.80 Z" fill="#bddfff" fill-opacity="0.33" fill-rule="nonzero" group-id="3,12,68" node-id="368" stroke="none" target-height="23" target-width="17.399994" target-x="141.5" target-y="128.8"></path><path d="M 158.90 153.30 L 141.50 153.30 L 140.90 153.20 L 140.10 152.40 L 140.00 128.80 L 140.40 127.70 L 141.50 127.30 L 158.90 127.30 L 159.50 127.40 L 160.30 128.20 L 160.40 151.80 L 160.00 152.90 L 158.90 153.30 Z M 143.00 150.30 L 157.40 150.30 L 157.40 130.30 L 143.00 130.30 L 143.00 150.30 Z" fill="#6e6e96" fill-opacity="0.33" fill-rule="nonzero" group-id="3,12,68" node-id="370" stroke="none" target-height="26" target-width="20.399994" target-x="140" target-y="127.3"></path></g><g node-id="1122"><path d="M 120.50 99.80 L 135.40 99.80 L 135.40 123.20 L 120.50 123.20 Z" fill="#bddfff" fill-opacity="0.33" fill-rule="nonzero" group-id="3,12,69" node-id="375" stroke="none" target-height="23.399994" target-width="14.899994" target-x="120.5" target-y="99.8"></path><path d="M 135.40 124.70 L 120.50 124.70 L 119.90 124.50 L 119.10 123.80 L 119.00 99.80 L 119.10 99.20 L 119.90 98.40 L 135.40 98.30 L 136.00 98.40 L 136.80 99.20 L 136.90 123.20 L 136.40 124.20 L 135.40 124.70 Z M 122.00 121.70 L 133.90 121.70 L 133.90 101.30 L 122.00 101.30 L 122.00 121.70 Z" fill="#6e6e96" fill-opacity="0.33" fill-rule="nonzero" group-id="3,12,69" node-id="377" stroke="none" target-height="26.399994" target-width="17.899994" target-x="119" target-y="98.3"></path></g><g node-id="1123"><path d="M 99.60 157.40 L 114.50 157.40 L 114.50 180.30 L 99.60 180.30 Z" fill="#bddfff" fill-opacity="0.33" fill-rule="nonzero" group-id="3,12,70" node-id="382" stroke="none" target-height="22.90001" target-width="14.900002" target-x="99.6" target-y="157.4"></path><path d="M 114.50 181.80 L 99.60 181.80 L 99.00 181.70 L 98.20 180.90 L 98.10 157.40 L 98.20 156.80 L 99.00 156.00 L 114.50 155.90 L 115.00 156.00 L 115.80 156.80 L 116.00 180.30 L 115.50 181.40 L 114.50 181.80 Z M 101.10 178.80 L 113.00 178.80 L 113.00 158.90 L 101.10 158.90 L 101.10 178.80 Z" fill="#6e6e96" fill-opacity="0.33" fill-rule="nonzero" group-id="3,12,70" node-id="384" stroke="none" target-height="25.90001" target-width="17.900002" target-x="98.1" target-y="155.9"></path></g><g node-id="1124"><path d="M 141.50 99.80 L 158.90 99.80 L 158.90 123.20 L 141.50 123.20 Z" fill="#bddfff" fill-opacity="0.33" fill-rule="nonzero" group-id="3,12,71" node-id="389" stroke="none" target-height="23.399994" target-width="17.399994" target-x="141.5" target-y="99.8"></path><path d="M 158.90 124.70 L 141.50 124.70 L 140.90 124.50 L 140.10 123.80 L 140.00 99.80 L 140.40 98.70 L 141.50 98.30 L 158.90 98.30 L 159.50 98.40 L 160.30 99.20 L 160.40 123.20 L 160.00 124.20 L 158.90 124.70 Z M 143.00 121.70 L 157.40 121.70 L 157.40 101.30 L 143.00 101.30 L 143.00 121.70 Z" fill="#6e6e96" fill-opacity="0.33" fill-rule="nonzero" group-id="3,12,71" node-id="391" stroke="none" target-height="26.399994" target-width="20.399994" target-x="140" target-y="98.3"></path></g><g node-id="1125"><path d="M 141.50 157.40 L 158.90 157.40 L 158.90 180.30 L 141.50 180.30 Z" fill="#bddfff" fill-opacity="0.33" fill-rule="nonzero" group-id="3,12,72" node-id="396" stroke="none" target-height="22.90001" target-width="17.399994" target-x="141.5" target-y="157.4"></path><path d="M 158.90 181.80 L 141.50 181.80 L 140.90 181.70 L 140.10 180.90 L 140.00 157.40 L 140.40 156.40 L 141.50 155.90 L 158.90 155.90 L 159.50 156.00 L 160.30 156.80 L 160.40 180.30 L 160.00 181.40 L 158.90 181.80 Z M 143.00 178.80 L 157.40 178.80 L 157.40 158.90 L 143.00 158.90 L 143.00 178.80 Z" fill="#6e6e96" fill-opacity="0.33" fill-rule="nonzero" group-id="3,12,72" node-id="398" stroke="none" target-height="25.90001" target-width="20.399994" target-x="140" target-y="155.9"></path></g><g node-id="1126"><path d="M 35.60 128.80 L 51.70 128.80 L 51.70 151.80 L 35.60 151.80 Z" fill="#bddfff" fill-opacity="0.33" fill-rule="nonzero" group-id="3,12,73" node-id="403" stroke="none" target-height="23" target-width="16.100002" target-x="35.6" target-y="128.8"></path><path d="M 51.70 153.30 L 35.60 153.30 L 35.00 153.20 L 34.20 152.40 L 34.10 128.80 L 34.20 128.20 L 35.00 127.40 L 51.70 127.30 L 52.20 127.40 L 53.00 128.20 L 53.20 151.80 L 52.70 152.90 L 51.70 153.30 Z M 37.10 150.30 L 50.20 150.30 L 50.20 130.30 L 37.10 130.30 L 37.10 150.30 Z" fill="#6e6e96" fill-opacity="0.33" fill-rule="nonzero" group-id="3,12,73" node-id="405" stroke="none" target-height="26" target-width="19.100002" target-x="34.1" target-y="127.3"></path></g><g node-id="1127"><path d="M 35.60 99.80 L 51.70 99.80 L 51.70 123.20 L 35.60 123.20 Z" fill="#bddfff" fill-opacity="0.33" fill-rule="nonzero" group-id="3,12,74" node-id="410" stroke="none" target-height="23.399994" target-width="16.100002" target-x="35.6" target-y="99.8"></path><path d="M 51.70 124.70 L 35.60 124.70 L 35.00 124.50 L 34.20 123.80 L 34.10 99.80 L 34.20 99.20 L 35.00 98.40 L 51.70 98.30 L 52.20 98.40 L 53.00 99.20 L 53.20 123.20 L 52.70 124.20 L 51.70 124.70 Z M 37.10 121.70 L 50.20 121.70 L 50.20 101.30 L 37.10 101.30 L 37.10 121.70 Z" fill="#6e6e96" fill-opacity="0.33" fill-rule="nonzero" group-id="3,12,74" node-id="412" stroke="none" target-height="26.399994" target-width="19.100002" target-x="34.1" target-y="98.3"></path></g><g node-id="1128"><path d="M 35.60 157.40 L 51.70 157.40 L 51.70 180.30 L 35.60 180.30 Z" fill="#bddfff" fill-opacity="0.33" fill-rule="nonzero" group-id="3,12,75" node-id="417" stroke="none" target-height="22.90001" target-width="16.100002" target-x="35.6" target-y="157.4"></path><path d="M 51.70 181.80 L 35.60 181.80 L 35.00 181.70 L 34.20 180.90 L 34.10 157.40 L 34.20 156.80 L 35.00 156.00 L 51.70 155.90 L 52.20 156.00 L 53.00 156.80 L 53.20 180.30 L 52.70 181.40 L 51.70 181.80 Z M 37.10 178.80 L 50.20 178.80 L 50.20 158.90 L 37.10 158.90 L 37.10 178.80 Z" fill="#6e6e96" fill-opacity="0.33" fill-rule="nonzero" group-id="3,12,75" node-id="419" stroke="none" target-height="25.90001" target-width="19.100002" target-x="34.1" target-y="155.9"></path></g><g node-id="1129"><path d="M 57.70 157.40 L 72.60 157.40 L 72.60 180.30 L 57.70 180.30 Z" fill="#bddfff" fill-opacity="0.33" fill-rule="nonzero" group-id="3,12,76" node-id="424" stroke="none" target-height="22.90001" target-width="14.899998" target-x="57.7" target-y="157.4"></path><path d="M 72.60 181.80 L 57.70 181.80 L 57.10 181.70 L 56.30 180.90 L 56.20 157.40 L 56.70 156.40 L 57.70 155.90 L 72.60 155.90 L 73.20 156.00 L 74.00 156.80 L 74.10 180.30 L 73.60 181.40 L 72.60 181.80 Z M 59.20 178.80 L 71.10 178.80 L 71.10 158.90 L 59.20 158.90 L 59.20 178.80 Z" fill="#6e6e96" fill-opacity="0.33" fill-rule="nonzero" group-id="3,12,76" node-id="426" stroke="none" target-height="25.90001" target-width="17.899998" target-x="56.2" target-y="155.9"></path></g><g node-id="1130"><path d="M 57.70 128.80 L 72.60 128.80 L 72.60 151.80 L 57.70 151.80 Z" fill="#bddfff" fill-opacity="0.33" fill-rule="nonzero" group-id="3,12,77" node-id="431" stroke="none" target-height="23" target-width="14.899998" target-x="57.7" target-y="128.8"></path><path d="M 72.60 153.30 L 57.70 153.30 L 57.10 153.20 L 56.30 152.40 L 56.20 128.80 L 56.70 127.70 L 57.70 127.30 L 72.60 127.30 L 73.20 127.40 L 74.00 128.20 L 74.10 151.80 L 73.60 152.90 L 72.60 153.30 Z M 59.20 150.30 L 71.10 150.30 L 71.10 130.30 L 59.20 130.30 L 59.20 150.30 Z" fill="#6e6e96" fill-opacity="0.33" fill-rule="nonzero" group-id="3,12,77" node-id="433" stroke="none" target-height="26" target-width="17.899998" target-x="56.2" target-y="127.3"></path></g><g node-id="1131"><path d="M 78.70 157.40 L 93.50 157.40 L 93.50 180.30 L 78.70 180.30 Z" fill="#bddfff" fill-opacity="0.33" fill-rule="nonzero" group-id="3,12,78" node-id="438" stroke="none" target-height="22.90001" target-width="14.800003" target-x="78.7" target-y="157.4"></path><path d="M 93.50 181.80 L 78.70 181.80 L 78.10 181.70 L 77.30 180.90 L 77.20 157.40 L 77.30 156.80 L 78.10 156.00 L 93.50 155.90 L 94.10 156.00 L 94.90 156.80 L 95.00 180.30 L 94.60 181.40 L 93.50 181.80 Z M 80.20 178.80 L 92.00 178.80 L 92.00 158.90 L 80.20 158.90 L 80.20 178.80 Z" fill="#6e6e96" fill-opacity="0.33" fill-rule="nonzero" group-id="3,12,78" node-id="440" stroke="none" target-height="25.90001" target-width="17.800003" target-x="77.2" target-y="155.9"></path></g><g node-id="1132"><path d="M 78.70 99.80 L 93.50 99.80 L 93.50 123.20 L 78.70 123.20 Z" fill="#bddfff" fill-opacity="0.33" fill-rule="nonzero" group-id="3,12,79" node-id="445" stroke="none" target-height="23.399994" target-width="14.800003" target-x="78.7" target-y="99.8"></path><path d="M 93.50 124.70 L 78.70 124.70 L 78.10 124.50 L 77.30 123.80 L 77.20 99.80 L 77.30 99.20 L 78.10 98.40 L 93.50 98.30 L 94.10 98.40 L 94.90 99.20 L 95.00 123.20 L 94.60 124.20 L 93.50 124.70 Z M 80.20 121.70 L 92.00 121.70 L 92.00 101.30 L 80.20 101.30 L 80.20 121.70 Z" fill="#6e6e96" fill-opacity="0.33" fill-rule="nonzero" group-id="3,12,79" node-id="447" stroke="none" target-height="26.399994" target-width="17.800003" target-x="77.2" target-y="98.3"></path></g><g node-id="1133"><path d="M 78.70 128.80 L 93.50 128.80 L 93.50 151.80 L 78.70 151.80 Z" fill="#bddfff" fill-opacity="0.33" fill-rule="nonzero" group-id="3,12,80" node-id="452" stroke="none" target-height="23" target-width="14.800003" target-x="78.7" target-y="128.8"></path><path d="M 93.50 153.30 L 78.70 153.30 L 78.10 153.20 L 77.30 152.40 L 77.20 128.80 L 77.30 128.20 L 78.10 127.40 L 93.50 127.30 L 94.10 127.40 L 94.90 128.20 L 95.00 151.80 L 94.60 152.90 L 93.50 153.30 Z M 80.20 150.30 L 92.00 150.30 L 92.00 130.30 L 80.20 130.30 L 80.20 150.30 Z" fill="#6e6e96" fill-opacity="0.33" fill-rule="nonzero" group-id="3,12,80" node-id="454" stroke="none" target-height="26" target-width="17.800003" target-x="77.2" target-y="127.3"></path></g><g node-id="1134"><path d="M 57.70 99.80 L 72.60 99.80 L 72.60 123.20 L 57.70 123.20 Z" fill="#bddfff" fill-opacity="0.33" fill-rule="nonzero" group-id="3,12,81" node-id="459" stroke="none" target-height="23.399994" target-width="14.899998" target-x="57.7" target-y="99.8"></path><path d="M 72.60 124.70 L 57.70 124.70 L 57.10 124.50 L 56.30 123.80 L 56.20 99.80 L 56.30 99.20 L 57.10 98.40 L 72.60 98.30 L 73.20 98.40 L 74.00 99.20 L 74.10 123.20 L 73.60 124.20 L 72.60 124.70 Z M 59.20 121.70 L 71.10 121.70 L 71.10 101.30 L 59.20 101.30 L 59.20 121.70 Z" fill="#6e6e96" fill-opacity="0.33" fill-rule="nonzero" group-id="3,12,81" node-id="461" stroke="none" target-height="26.399994" target-width="17.899998" target-x="56.2" target-y="98.3"></path></g><g node-id="1135"><path d="M 24.60 82.70 L 170.00 82.70 L 170.00 89.40 L 24.60 89.40 Z" fill="#d5b697" fill-opacity="0.33" fill-rule="nonzero" group-id="3,12,82" node-id="466" stroke="none" target-height="6.7000046" target-width="145.4" target-x="24.6" target-y="82.7"></path><path d="M 170.00 90.90 L 24.60 90.90 L 23.60 90.40 L 23.10 89.40 L 23.10 82.70 L 23.20 82.10 L 24.00 81.30 L 170.00 81.20 L 171.10 81.60 L 171.50 82.70 L 171.50 89.40 L 171.10 90.40 L 170.00 90.90 Z M 26.10 87.90 L 168.50 87.90 L 168.50 84.20 L 26.10 84.20 L 26.10 87.90 Z" fill="#6e6e96" fill-opacity="0.33" fill-rule="nonzero" group-id="3,12,82" node-id="468" stroke="none" target-height="9.700005" target-width="148.4" target-x="23.1" target-y="81.2"></path></g><g node-id="1136"><path d="M 120.50 186.30 L 135.40 186.30 L 135.40 209.20 L 120.50 209.20 Z" fill="#bddfff" fill-opacity="0.33" fill-rule="nonzero" group-id="3,12,83" node-id="473" stroke="none" target-height="22.899994" target-width="14.899994" target-x="120.5" target-y="186.3"></path><path d="M 135.40 210.70 L 120.50 210.70 L 119.90 210.60 L 119.10 209.80 L 119.00 186.30 L 119.10 185.70 L 119.90 184.90 L 135.40 184.80 L 136.00 184.90 L 136.80 185.70 L 136.90 209.20 L 136.40 210.30 L 135.40 210.70 Z M 122.00 207.70 L 133.90 207.70 L 133.90 187.80 L 122.00 187.80 L 122.00 207.70 Z" fill="#6e6e96" fill-opacity="0.33" fill-rule="nonzero" group-id="3,12,83" node-id="475" stroke="none" target-height="25.899994" target-width="17.899994" target-x="119" target-y="184.8"></path></g><g node-id="1137"><path d="M 141.50 186.30 L 158.90 186.30 L 158.90 209.20 L 141.50 209.20 Z" fill="#bddfff" fill-opacity="0.33" fill-rule="nonzero" group-id="3,12,84" node-id="480" stroke="none" target-height="22.899994" target-width="17.399994" target-x="141.5" target-y="186.3"></path><path d="M 158.90 210.70 L 141.50 210.70 L 140.90 210.60 L 140.10 209.80 L 140.00 186.30 L 140.40 185.20 L 141.50 184.80 L 158.90 184.80 L 159.50 184.90 L 160.30 185.70 L 160.40 209.20 L 160.00 210.30 L 158.90 210.70 Z M 143.00 207.70 L 157.40 207.70 L 157.40 187.80 L 143.00 187.80 L 143.00 207.70 Z" fill="#6e6e96" fill-opacity="0.33" fill-rule="nonzero" group-id="3,12,84" node-id="482" stroke="none" target-height="25.899994" target-width="20.399994" target-x="140" target-y="184.8"></path></g><g node-id="1138"><path d="M 35.60 186.30 L 51.70 186.30 L 51.70 209.20 L 35.60 209.20 Z" fill="#bddfff" fill-opacity="0.33" fill-rule="nonzero" group-id="3,12,85" node-id="487" stroke="none" target-height="22.899994" target-width="16.100002" target-x="35.6" target-y="186.3"></path><path d="M 51.70 210.70 L 35.60 210.70 L 35.00 210.60 L 34.20 209.80 L 34.10 186.30 L 34.20 185.70 L 35.00 184.90 L 51.70 184.80 L 52.20 184.90 L 53.00 185.70 L 53.20 209.20 L 52.70 210.30 L 51.70 210.70 Z M 37.10 207.70 L 50.20 207.70 L 50.20 187.80 L 37.10 187.80 L 37.10 207.70 Z" fill="#6e6e96" fill-opacity="0.33" fill-rule="nonzero" group-id="3,12,85" node-id="489" stroke="none" target-height="25.899994" target-width="19.100002" target-x="34.1" target-y="184.8"></path></g><g node-id="1139"><path d="M 57.70 186.30 L 72.60 186.30 L 72.60 209.20 L 57.70 209.20 Z" fill="#bddfff" fill-opacity="0.33" fill-rule="nonzero" group-id="3,12,86" node-id="494" stroke="none" target-height="22.899994" target-width="14.899998" target-x="57.7" target-y="186.3"></path><path d="M 72.60 210.70 L 57.70 210.70 L 57.10 210.60 L 56.30 209.80 L 56.20 186.30 L 56.70 185.20 L 57.70 184.80 L 72.60 184.80 L 73.20 184.90 L 74.00 185.70 L 74.10 209.20 L 73.60 210.30 L 72.60 210.70 Z M 59.20 207.70 L 71.10 207.70 L 71.10 187.80 L 59.20 187.80 L 59.20 207.70 Z" fill="#6e6e96" fill-opacity="0.33" fill-rule="nonzero" group-id="3,12,86" node-id="496" stroke="none" target-height="25.899994" target-width="17.899998" target-x="56.2" target-y="184.8"></path></g><g node-id="1140"><path d="M 78.70 186.30 L 114.50 186.30 L 114.50 216.90 L 78.70 216.90 Z" fill="#e4bc96" fill-opacity="0.33" fill-rule="nonzero" group-id="3,12,87" node-id="501" stroke="none" target-height="30.59999" target-width="35.800003" target-x="78.7" target-y="186.3"></path><path d="M 114.50 218.40 L 78.70 218.40 L 77.60 217.90 L 77.20 216.90 L 77.20 186.30 L 77.30 185.70 L 78.10 184.90 L 114.50 184.80 L 115.60 185.20 L 116.00 186.30 L 116.00 216.90 L 115.60 217.90 L 114.50 218.40 Z M 80.20 215.40 L 113.00 215.40 L 113.00 187.80 L 80.20 187.80 L 80.20 215.40 Z" fill="#6e6e96" fill-opacity="0.33" fill-rule="nonzero" group-id="3,12,87" node-id="503" stroke="none" target-height="33.59999" target-width="38.800003" target-x="77.2" target-y="184.8"></path></g><path d="M 96.40 218.40 L 95.30 217.90 L 94.90 216.90 L 94.90 186.30 L 95.00 185.70 L 95.80 184.90 L 97.00 184.90 L 97.80 185.70 L 97.90 186.30 L 97.90 216.90 L 97.40 217.90 L 96.40 218.40 Z" fill="#6e6e96" fill-opacity="0.33" fill-rule="nonzero" group-id="3,12" node-id="506" stroke="none" target-height="33.5" target-width="3" target-x="94.9" target-y="184.9"></path></g><path d="M 88.30 66.60 L 67.30 66.40 L 66.00 65.10 L 65.80 64.10 L 66.00 63.10 L 67.30 61.80 L 89.30 61.80 L 90.60 63.10 L 90.60 65.10 L 89.30 66.40 L 88.30 66.60 Z" fill="#ffffff" fill-rule="nonzero" group-id="3" node-id="509" stroke="none" target-height="4.799999" target-width="24.799995" target-x="65.8" target-y="61.8"></path></g><g node-id="1057"><g node-id="1066"><path d="M 124.30 21.30 L 187.90 21.30 L 187.90 30.90 L 124.30 30.90 Z" fill="#ebebf7" fill-rule="nonzero" group-id="4,13" node-id="515" stroke="none" target-height="9.6" target-width="63.59999" target-x="124.3" target-y="21.3"></path><path d="M 187.90 32.40 L 124.30 32.40 L 123.20 31.90 L 122.80 30.90 L 122.80 21.30 L 122.90 20.70 L 123.70 19.90 L 187.90 19.80 L 189.00 20.20 L 189.40 21.30 L 189.40 30.90 L 189.00 31.90 L 187.90 32.40 Z M 125.80 29.40 L 186.40 29.40 L 186.40 22.80 L 125.80 22.80 L 125.80 29.40 Z" fill="#ccccde" fill-rule="nonzero" group-id="4,13" node-id="517" stroke="none" target-height="12.600002" target-width="66.59999" target-x="122.8" target-y="19.8"></path></g><g node-id="1067"><path d="M 105.90 30.70 L 206.00 30.70 L 206.00 200.30 L 105.90 200.30 Z" fill="#ffffff" fill-rule="nonzero" group-id="4,14" node-id="522" stroke="none" target-height="169.6" target-width="100.1" target-x="105.9" target-y="30.7"></path><path d="M 206.00 201.80 L 105.90 201.80 L 105.30 201.70 L 104.50 200.90 L 104.40 30.70 L 104.50 30.10 L 105.30 29.30 L 206.00 29.20 L 206.60 29.30 L 207.40 30.10 L 207.50 200.30 L 207.10 201.40 L 206.00 201.80 Z M 107.40 198.80 L 204.50 198.80 L 204.50 32.20 L 107.40 32.20 L 107.40 198.80 Z" fill="#ccccde" fill-rule="nonzero" group-id="4,14" node-id="524" stroke="none" target-height="172.6" target-width="103.1" target-x="104.4" target-y="29.2"></path></g><g node-id="1068"><path d="M 114.50 39.20 L 198.00 39.20 L 198.00 200.30 L 114.50 200.30 Z" fill="#cfe7ff" fill-rule="nonzero" group-id="4,15" node-id="529" stroke="none" target-height="161.1" target-width="83.5" target-x="114.5" target-y="39.2"></path><path d="M 198.00 201.80 L 114.50 201.80 L 113.90 201.70 L 113.10 200.90 L 113.00 39.20 L 113.10 38.60 L 113.90 37.80 L 198.00 37.70 L 198.60 37.80 L 199.40 38.60 L 199.50 200.30 L 199.00 201.40 L 198.00 201.80 Z M 116.00 198.80 L 196.50 198.80 L 196.50 40.70 L 116.00 40.70 L 116.00 198.80 Z" fill="#ccccde" fill-rule="nonzero" group-id="4,15" node-id="531" stroke="none" target-height="164.1" target-width="86.5" target-x="113" target-y="37.7"></path></g><g node-id="1069"><path d="M 115.50 123.00 L 193.90 40.20 L 137.10 40.40 L 115.50 63.80 Z" fill="#ffffff" fill-opacity="0.49" fill-rule="nonzero" group-id="4,16" node-id="536" stroke="none" target-height="82.8" target-width="78.399994" target-x="115.5" target-y="40.2"></path></g><g node-id="1070"><path d="M 197.30 62.40 L 114.90 149.40 L 137.50 150.10 L 197.30 87.00 Z" fill="#ffffff" fill-opacity="0.27" fill-rule="nonzero" group-id="4,17" node-id="541" stroke="none" target-height="87.700005" target-width="82.4" target-x="114.9" target-y="62.4"></path></g><g node-id="1071"><path d="M 114.50 149.50 L 198.00 149.50 L 198.00 200.30 L 114.50 200.30 Z" fill="#cfe7ff" fill-rule="nonzero" group-id="4,18" node-id="546" stroke="none" target-height="50.800003" target-width="83.5" target-x="114.5" target-y="149.5"></path><path d="M 198.00 201.80 L 113.90 201.70 L 113.10 200.90 L 113.00 200.30 L 113.00 149.50 L 113.10 148.90 L 113.90 148.10 L 198.60 148.10 L 199.40 148.90 L 199.50 149.50 L 199.50 200.30 L 199.00 201.40 L 198.00 201.80 Z M 116.00 198.80 L 196.50 198.80 L 196.50 151.00 L 116.00 151.00 L 116.00 198.80 Z" fill="#ccccde" fill-rule="nonzero" group-id="4,18" node-id="548" stroke="none" target-height="53.699997" target-width="86.5" target-x="113" target-y="148.1"></path></g><g node-id="1072"><g node-id="1141"><path d="M 136.40 161.90 L 115.70 183.20 L 115.70 196.10 L 136.40 174.90 Z" fill="#ffffff" fill-opacity="0.1813" fill-rule="nonzero" group-id="4,19,88" node-id="555" stroke="none" target-height="34.200012" target-width="20.699997" target-x="115.7" target-y="161.9"></path></g><path d="M 115.60 173.30 L 126.70 161.90 L 115.60 161.90" fill="#ffffff" fill-opacity="0.1813" fill-rule="nonzero" group-id="4,19,89" node-id="560" stroke="none" target-height="11.400009" target-width="11.099998" target-x="115.6" target-y="161.9"></path></g><g node-id="1073"><g node-id="1143"><path d="M 166.30 161.90 L 146.20 183.20 L 146.20 196.10 L 166.30 174.90 Z" fill="#ffffff" fill-opacity="0.1813" fill-rule="nonzero" group-id="4,20,90" node-id="568" stroke="none" target-height="34.200012" target-width="20.100006" target-x="146.2" target-y="161.9"></path></g><path d="M 146.80 173.30 L 157.60 161.90 L 146.80 161.90" fill="#ffffff" fill-opacity="0.1813" fill-rule="nonzero" group-id="4,20,91" node-id="573" stroke="none" target-height="11.400009" target-width="10.800003" target-x="146.8" target-y="161.9"></path></g><g node-id="1074"><g node-id="1145"><path d="M 196.90 161.90 L 174.50 183.20 L 174.50 196.10 L 196.90 174.90 Z" fill="#ffffff" fill-opacity="0.1813" fill-rule="nonzero" group-id="4,21,92" node-id="581" stroke="none" target-height="34.200012" target-width="22.399994" target-x="174.5" target-y="161.9"></path></g><path d="M 175.30 173.30 L 187.30 161.90 L 175.30 161.90" fill="#ffffff" fill-opacity="0.1813" fill-rule="nonzero" group-id="4,21,93" node-id="586" stroke="none" target-height="11.400009" target-width="12" target-x="175.3" target-y="161.9"></path></g><path d="M 123.60 39.20 L 126.60 39.20 L 126.60 149.50 L 123.60 149.50 Z" fill="#ccccde" fill-rule="nonzero" group-id="4" node-id="590" stroke="none" target-height="110.3" target-width="3" target-x="123.6" target-y="39.2"></path><path d="M 134.30 39.20 L 137.30 39.20 L 137.30 149.50 L 134.30 149.50 Z" fill="#ccccde" fill-rule="nonzero" group-id="4" node-id="592" stroke="none" target-height="110.3" target-width="3" target-x="134.3" target-y="39.2"></path><path d="M 144.70 39.20 L 147.70 39.20 L 147.70 149.50 L 144.70 149.50 Z" fill="#ccccde" fill-rule="nonzero" group-id="4" node-id="594" stroke="none" target-height="110.3" target-width="3" target-x="144.7" target-y="39.2"></path><path d="M 155.60 39.20 L 158.60 39.20 L 158.60 149.50 L 155.60 149.50 Z" fill="#ccccde" fill-rule="nonzero" group-id="4" node-id="596" stroke="none" target-height="110.3" target-width="3" target-x="155.6" target-y="39.2"></path><path d="M 166.00 39.20 L 169.00 39.20 L 169.00 149.50 L 166.00 149.50 Z" fill="#ccccde" fill-rule="nonzero" group-id="4" node-id="598" stroke="none" target-height="110.3" target-width="3" target-x="166" target-y="39.2"></path><path d="M 176.10 39.20 L 179.10 39.20 L 179.10 149.50 L 176.10 149.50 Z" fill="#ccccde" fill-rule="nonzero" group-id="4" node-id="600" stroke="none" target-height="110.3" target-width="3" target-x="176.1" target-y="39.2"></path><path d="M 186.20 39.20 L 189.20 39.20 L 189.20 149.50 L 186.20 149.50 Z" fill="#ccccde" fill-rule="nonzero" group-id="4" node-id="602" stroke="none" target-height="110.3" target-width="3" target-x="186.2" target-y="39.2"></path><path d="M 198.00 63.90 L 114.50 63.90 L 113.90 63.80 L 113.10 63.00 L 113.10 61.80 L 113.90 61.10 L 198.00 60.90 L 199.00 61.40 L 199.50 62.40 L 199.00 63.50 L 198.00 63.90 Z" fill="#ccccde" fill-rule="nonzero" group-id="4" node-id="604" stroke="none" target-height="3" target-width="86.4" target-x="113.1" target-y="60.9"></path><path d="M 198.00 86.40 L 114.50 86.40 L 113.90 86.30 L 113.10 85.50 L 113.10 84.30 L 113.90 83.60 L 198.00 83.40 L 199.00 83.90 L 199.50 84.90 L 199.00 86.00 L 198.00 86.40 Z" fill="#ccccde" fill-rule="nonzero" group-id="4" node-id="606" stroke="none" target-height="3" target-width="86.4" target-x="113.1" target-y="83.4"></path><path d="M 198.00 107.80 L 114.50 107.80 L 113.90 107.70 L 113.10 106.90 L 113.10 105.70 L 113.90 104.90 L 198.00 104.80 L 199.00 105.30 L 199.50 106.30 L 199.00 107.40 L 198.00 107.80 Z" fill="#ccccde" fill-rule="nonzero" group-id="4" node-id="608" stroke="none" target-height="3" target-width="86.4" target-x="113.1" target-y="104.8"></path><path d="M 114.50 126.20 L 198.00 126.20 L 198.00 129.20 L 114.50 129.20 Z" fill="#ccccde" fill-rule="nonzero" group-id="4" node-id="610" stroke="none" target-height="3" target-width="83.5" target-x="114.5" target-y="126.2"></path><g node-id="1075"><path d="M 137.60 157.60 L 146.20 157.60 L 146.20 200.30 L 137.60 200.30 Z" fill="#f0f0ff" fill-rule="nonzero" group-id="4,22" node-id="614" stroke="none" target-height="42.699997" target-width="8.599991" target-x="137.6" target-y="157.6"></path><path d="M 146.20 201.80 L 137.60 201.80 L 136.60 201.40 L 136.10 200.30 L 136.10 157.70 L 136.30 157.10 L 137.00 156.30 L 146.20 156.20 L 147.20 156.60 L 147.70 157.70 L 147.70 200.30 L 147.20 201.40 L 146.20 201.80 Z M 139.10 198.80 L 144.70 198.80 L 144.70 159.20 L 139.10 159.20 L 139.10 198.80 Z" fill="#ccccde" fill-rule="nonzero" group-id="4,22" node-id="616" stroke="none" target-height="45.600006" target-width="11.599991" target-x="136.1" target-y="156.2"></path></g><g node-id="1076"><path d="M 166.00 155.70 L 174.00 155.70 L 174.00 200.30 L 166.00 200.30 Z" fill="#f0f0ff" fill-rule="nonzero" group-id="4,23" node-id="621" stroke="none" target-height="44.600006" target-width="8" target-x="166" target-y="155.7"></path><path d="M 174.00 201.80 L 166.00 201.80 L 164.90 201.40 L 164.50 200.30 L 164.50 155.70 L 164.60 155.10 L 165.40 154.30 L 174.00 154.20 L 175.10 154.60 L 175.50 155.70 L 175.50 200.30 L 175.10 201.40 L 174.00 201.80 Z M 167.50 198.80 L 172.50 198.80 L 172.50 157.20 L 167.50 157.20 L 167.50 198.80 Z" fill="#ccccde" fill-rule="nonzero" group-id="4,23" node-id="623" stroke="none" target-height="47.600006" target-width="11" target-x="164.5" target-y="154.2"></path></g><g node-id="1077"><path d="M 114.50 149.50 L 198.00 149.50 L 198.00 161.90 L 114.50 161.90 Z" fill="#f0f0ff" fill-rule="nonzero" group-id="4,24" node-id="628" stroke="none" target-height="12.399994" target-width="83.5" target-x="114.5" target-y="149.5"></path><path d="M 198.00 163.40 L 114.50 163.40 L 113.40 163.00 L 113.00 161.90 L 113.00 149.50 L 113.40 148.40 L 114.50 148.00 L 198.00 148.00 L 199.00 148.40 L 199.50 149.50 L 199.50 161.90 L 199.00 163.00 L 198.00 163.40 Z M 116.00 160.40 L 196.50 160.40 L 196.50 151.00 L 116.00 151.00 L 116.00 160.40 Z" fill="#ccccde" fill-rule="nonzero" group-id="4,24" node-id="630" stroke="none" target-height="15.399994" target-width="86.5" target-x="113" target-y="148"></path></g><g node-id="1078"><path d="M 142.10 13.80 L 170.10 13.80 L 170.10 21.30 L 142.10 21.30 Z" fill="#ebebf7" fill-rule="nonzero" group-id="4,25" node-id="635" stroke="none" target-height="7.499999" target-width="28" target-x="142.1" target-y="13.8"></path><path d="M 170.10 22.80 L 141.50 22.70 L 140.70 21.90 L 140.60 21.30 L 140.60 13.80 L 140.70 13.20 L 141.50 12.40 L 170.70 12.40 L 171.50 13.20 L 171.60 13.80 L 171.60 21.30 L 171.20 22.40 L 170.10 22.80 Z M 143.60 19.80 L 168.60 19.80 L 168.60 15.30 L 143.60 15.30 L 143.60 19.80 Z" fill="#ccccde" fill-rule="nonzero" group-id="4,25" node-id="637" stroke="none" target-height="10.4" target-width="31" target-x="140.6" target-y="12.4"></path></g><path d="M 156.10 15.30 L 155.00 14.80 L 154.60 13.80 L 154.60 1.50 L 154.70 0.90 L 155.50 0.10 L 156.70 0.10 L 157.50 0.90 L 157.60 1.50 L 157.60 13.80 L 157.20 14.80 L 156.10 15.30 Z" fill="#ccccde" fill-rule="nonzero" group-id="4" node-id="640" stroke="none" target-height="15.2" target-width="3" target-x="154.6" target-y="0.1"></path><g node-id="1079"><path d="M 102.30 196.00 L 211.20 196.00 L 211.20 204.80 L 102.30 204.80 Z" fill="#f0f0ff" fill-rule="nonzero" group-id="4,26" node-id="644" stroke="none" target-height="8.800003" target-width="108.899994" target-x="102.3" target-y="196"></path><path d="M 211.20 206.30 L 102.30 206.30 L 101.30 205.80 L 100.80 204.80 L 100.80 196.00 L 100.90 195.50 L 101.70 194.70 L 211.20 194.50 L 212.20 195.00 L 212.70 196.00 L 212.70 204.80 L 212.20 205.80 L 211.20 206.30 Z M 103.80 203.30 L 209.70 203.30 L 209.70 197.50 L 103.80 197.50 L 103.80 203.30 Z" fill="#ccccde" fill-rule="nonzero" group-id="4,26" node-id="646" stroke="none" target-height="11.800003" target-width="111.899994" target-x="100.8" target-y="194.5"></path></g></g><g node-id="1058"><g node-id="1080"><path d="M 246.60 216.50 L 162.10 216.50 L 162.10 144.30 L 204.30 117.20 L 246.60 144.30 Z" fill="#ffffff" fill-rule="nonzero" group-id="5,27" node-id="653" stroke="none" target-height="99.3" target-width="84.5" target-x="162.1" target-y="117.2"></path><path d="M 248.10 218.00 L 160.60 218.00 L 160.60 143.40 L 204.30 115.40 L 248.10 143.50 L 248.10 218.00 Z M 163.60 215.00 L 245.10 215.00 L 245.10 145.10 L 204.30 119.00 L 163.60 145.10 L 163.60 215.00 Z" fill="#ccccde" fill-rule="nonzero" group-id="5,27" node-id="655" stroke="none" target-height="102.6" target-width="87.5" target-x="160.6" target-y="115.4"></path></g><g node-id="1081"><path d="M 204.30 112.60 L 154.60 142.80 L 154.60 147.80 L 162.10 147.80 L 204.30 121.70 L 246.50 148.20 L 253.00 148.30 L 253.00 142.80 Z" fill="#e0e6fc" fill-rule="nonzero" group-id="5,28" node-id="660" stroke="none" target-height="35.700005" target-width="98.399994" target-x="154.6" target-y="112.6"></path><path d="M 253.00 149.80 L 245.70 149.40 L 204.30 123.50 L 162.80 149.10 L 162.10 149.30 L 154.60 149.30 L 153.60 148.90 L 153.10 147.80 L 153.10 142.80 L 153.80 141.60 L 203.50 111.30 L 204.30 111.10 L 205.10 111.30 L 253.80 141.60 L 254.50 142.80 L 254.50 148.30 L 254.10 149.30 L 253.00 149.80 Z M 246.90 146.70 L 251.50 146.70 L 251.50 143.70 L 204.30 114.40 L 156.10 143.70 L 156.10 146.30 L 161.60 146.30 L 203.50 120.40 L 204.30 120.20 L 205.10 120.40 L 246.90 146.70 Z" fill="#ccccde" fill-rule="nonzero" group-id="5,28" node-id="662" stroke="none" target-height="38.700005" target-width="101.399994" target-x="153.1" target-y="111.1"></path></g><g node-id="1082"><path d="M 170.00 180.30 L 198.70 180.30 L 198.70 199.30 L 170.00 199.30 Z" fill="#d4eaff" fill-rule="nonzero" group-id="5,29" node-id="667" stroke="none" target-height="19" target-width="28.699997" target-x="170" target-y="180.3"></path><path d="M 198.70 200.80 L 170.00 200.80 L 169.00 200.30 L 168.50 199.30 L 168.50 180.30 L 169.00 179.30 L 170.00 178.80 L 198.70 178.80 L 199.80 179.30 L 200.20 180.30 L 200.20 199.30 L 199.80 200.30 L 198.70 200.80 Z M 171.50 197.80 L 197.20 197.80 L 197.20 181.80 L 171.50 181.80 L 171.50 197.80 Z" fill="#ccccde" fill-rule="nonzero" group-id="5,29" node-id="669" stroke="none" target-height="22" target-width="31.699997" target-x="168.5" target-y="178.8"></path></g><g node-id="1083"><path d="M 162.10 205.00 L 246.60 205.00 L 246.60 216.50 L 162.10 216.50 Z" fill="#fcebe3" fill-rule="nonzero" group-id="5,30" node-id="674" stroke="none" target-height="11.5" target-width="84.5" target-x="162.1" target-y="205"></path><path d="M 246.60 218.00 L 162.10 218.00 L 161.00 217.60 L 160.60 216.50 L 160.60 205.00 L 161.00 204.00 L 162.10 203.50 L 246.60 203.50 L 247.70 204.00 L 248.10 205.00 L 248.10 216.50 L 247.70 217.60 L 246.60 218.00 Z M 163.60 215.00 L 245.10 215.00 L 245.10 206.50 L 163.60 206.50 L 163.60 215.00 Z" fill="#ccccde" fill-rule="nonzero" group-id="5,30" node-id="676" stroke="none" target-height="14.5" target-width="87.5" target-x="160.6" target-y="203.5"></path></g><g node-id="1084"><path d="M 199.90 216.50 L 199.20 213.20 L 197.20 210.90 L 195.90 210.30 L 194.40 210.00 L 191.80 210.80 L 190.70 211.70 L 190.10 209.60 L 189.10 207.80 L 187.90 206.40 L 186.40 205.20 L 184.70 204.50 L 182.80 204.20 L 181.10 204.50 L 178.10 206.00 L 176.60 204.20 L 174.90 202.80 L 172.90 201.90 L 170.60 201.60 L 168.60 201.90 L 166.80 202.60 L 165.10 203.80 L 163.70 205.40 L 162.60 207.20 L 161.80 209.30 L 160.60 209.20 L 159.00 209.40 L 157.60 210.10 L 156.40 211.20 L 155.40 212.60 L 154.90 214.20 L 154.60 216.50 L 199.90 216.50 Z" fill="#cce8d6" fill-rule="nonzero" group-id="5,31" node-id="681" stroke="none" target-height="14.899994" target-width="45.299988" target-x="154.6" target-y="201.6"></path><path d="M 154.60 218.00 L 153.60 217.60 L 153.10 216.10 L 153.40 213.80 L 154.20 211.80 L 155.40 210.00 L 156.90 208.70 L 158.70 207.90 L 160.80 207.70 L 161.80 205.50 L 163.10 203.70 L 164.70 202.20 L 166.50 201.10 L 168.50 200.40 L 170.60 200.10 L 172.80 200.40 L 174.90 201.10 L 176.80 202.30 L 178.40 203.90 L 180.50 203.00 L 182.80 202.70 L 186.40 203.50 L 189.40 205.80 L 191.50 209.20 L 194.40 208.50 L 196.30 208.80 L 197.90 209.60 L 199.40 210.80 L 200.50 212.50 L 201.20 214.30 L 201.40 216.50 L 201.00 217.60 L 199.90 218.00 L 154.60 218.00 Z M 160.50 210.70 L 159.00 211.00 L 157.70 211.90 L 156.80 213.30 L 156.20 215.00 L 198.30 215.00 L 197.70 213.60 L 196.80 212.50 L 195.70 211.80 L 194.40 211.50 L 193.00 211.80 L 191.00 213.10 L 190.20 213.10 L 189.60 212.70 L 187.90 208.70 L 185.60 206.50 L 184.30 206.00 L 181.50 205.90 L 178.50 207.50 L 177.80 207.50 L 177.20 207.30 L 175.50 205.20 L 174.10 204.10 L 172.40 203.40 L 170.60 203.10 L 169.00 203.40 L 167.50 204.00 L 166.10 205.00 L 164.00 207.80 L 163.00 210.20 L 162.00 210.80 L 160.50 210.70 Z" fill="#ccccde" fill-rule="nonzero" group-id="5,31" node-id="683" stroke="none" target-height="17.899994" target-width="48.299988" target-x="153.1" target-y="200.1"></path></g><g node-id="1085"><path d="M 211.50 180.30 L 233.60 180.30 L 233.60 216.50 L 211.50 216.50 Z" fill="#ffdede" fill-rule="nonzero" group-id="5,32" node-id="688" stroke="none" target-height="36.199997" target-width="22.100006" target-x="211.5" target-y="180.3"></path><path d="M 233.60 218.00 L 211.50 218.00 L 210.90 217.90 L 210.10 217.10 L 210.00 180.30 L 210.10 179.80 L 210.90 179.00 L 233.60 178.80 L 234.20 179.00 L 234.90 179.80 L 235.10 216.50 L 234.60 217.60 L 233.60 218.00 Z M 213.00 215.00 L 232.10 215.00 L 232.10 181.80 L 213.00 181.80 L 213.00 215.00 Z" fill="#ccccde" fill-rule="nonzero" group-id="5,32" node-id="690" stroke="none" target-height="39.199997" target-width="25.100006" target-x="210" target-y="178.8"></path></g><path d="M 246.60 175.10 L 162.10 175.10 L 161.50 175.00 L 160.70 174.20 L 160.70 173.00 L 161.50 172.20 L 246.60 172.10 L 247.70 172.50 L 248.10 173.60 L 247.70 174.70 L 246.60 175.10 Z" fill="#ccccde" fill-rule="nonzero" group-id="5" node-id="693" stroke="none" target-height="3" target-width="87.40001" target-x="160.7" target-y="172.1"></path><g node-id="1086"><g node-id="1147"><path d="M 170.00 149.10 L 185.50 149.10 L 185.50 166.70 L 170.00 166.70 Z" fill="#d4eaff" fill-rule="nonzero" group-id="5,33,94" node-id="699" stroke="none" target-height="17.59999" target-width="15.5" target-x="170" target-y="149.1"></path><path d="M 185.50 168.20 L 170.00 168.20 L 169.00 167.80 L 168.50 166.70 L 168.50 149.10 L 169.00 148.00 L 170.00 147.60 L 185.50 147.60 L 186.50 148.00 L 187.00 149.10 L 187.00 166.70 L 186.50 167.80 L 185.50 168.20 Z M 171.50 165.20 L 184.00 165.20 L 184.00 150.60 L 171.50 150.60 L 171.50 165.20 Z" fill="#ccccde" fill-rule="nonzero" group-id="5,33,94" node-id="701" stroke="none" target-height="20.59999" target-width="18.5" target-x="168.5" target-y="147.6"></path></g><path d="M 185.50 159.40 L 170.00 159.40 L 169.40 159.30 L 168.70 158.50 L 168.70 157.30 L 169.40 156.50 L 185.50 156.40 L 186.50 156.80 L 187.00 157.90 L 186.50 159.00 L 185.50 159.40 Z" fill="#ccccde" fill-rule="nonzero" group-id="5,33" node-id="704" stroke="none" target-height="3" target-width="18.300003" target-x="168.7" target-y="156.4"></path></g><g node-id="1087"><g node-id="1148"><path d="M 222.90 149.10 L 238.30 149.10 L 238.30 166.70 L 222.90 166.70 Z" fill="#d4eaff" fill-rule="nonzero" group-id="5,34,95" node-id="711" stroke="none" target-height="17.59999" target-width="15.400009" target-x="222.9" target-y="149.1"></path><path d="M 238.30 168.20 L 222.90 168.20 L 221.80 167.80 L 221.40 166.70 L 221.40 149.10 L 221.80 148.00 L 222.90 147.60 L 238.30 147.60 L 239.40 148.00 L 239.80 149.10 L 239.80 166.70 L 239.40 167.80 L 238.30 168.20 Z M 224.40 165.20 L 236.80 165.20 L 236.80 150.60 L 224.40 150.60 L 224.40 165.20 Z" fill="#ccccde" fill-rule="nonzero" group-id="5,34,95" node-id="713" stroke="none" target-height="20.59999" target-width="18.40001" target-x="221.4" target-y="147.6"></path></g><path d="M 238.30 159.40 L 222.90 159.40 L 222.30 159.30 L 221.50 158.50 L 221.50 157.30 L 222.30 156.50 L 238.30 156.40 L 239.40 156.80 L 239.80 157.90 L 239.40 159.00 L 238.30 159.40 Z" fill="#ccccde" fill-rule="nonzero" group-id="5,34" node-id="716" stroke="none" target-height="3" target-width="18.300003" target-x="221.5" target-y="156.4"></path></g><g node-id="1088"><g node-id="1149"><path d="M 196.50 149.10 L 212.00 149.10 L 212.00 166.70 L 196.50 166.70 Z" fill="#d4eaff" fill-rule="nonzero" group-id="5,35,96" node-id="723" stroke="none" target-height="17.59999" target-width="15.5" target-x="196.5" target-y="149.1"></path><path d="M 212.00 168.20 L 196.50 168.20 L 195.50 167.80 L 195.00 166.70 L 195.00 149.10 L 195.50 148.00 L 196.50 147.60 L 212.00 147.60 L 213.00 148.00 L 213.50 149.10 L 213.50 166.70 L 213.00 167.80 L 212.00 168.20 Z M 198.00 165.20 L 210.50 165.20 L 210.50 150.60 L 198.00 150.60 L 198.00 165.20 Z" fill="#ccccde" fill-rule="nonzero" group-id="5,35,96" node-id="725" stroke="none" target-height="20.59999" target-width="18.5" target-x="195" target-y="147.6"></path></g><path d="M 212.00 159.40 L 196.50 159.40 L 195.50 159.00 L 195.00 157.90 L 195.50 156.80 L 196.50 156.40 L 212.00 156.40 L 213.00 156.80 L 213.50 157.90 L 213.00 159.00 L 212.00 159.40 Z" fill="#ccccde" fill-rule="nonzero" group-id="5,35" node-id="728" stroke="none" target-height="3" target-width="18.5" target-x="195" target-y="156.4"></path></g><path d="M 184.40 200.80 L 183.40 200.30 L 182.90 199.30 L 182.90 180.30 L 183.00 179.80 L 183.80 179.00 L 185.00 179.00 L 185.80 179.80 L 185.90 180.30 L 185.90 199.30 L 185.50 200.30 L 184.40 200.80 Z" fill="#ccccde" fill-rule="nonzero" group-id="5" node-id="731" stroke="none" target-height="21.800003" target-width="3" target-x="182.9" target-y="179"></path><g node-id="1089"><path d="M 208.50 212.40 L 236.60 212.40 L 236.60 216.50 L 208.50 216.50 Z" fill="#f0f0ff" fill-rule="nonzero" group-id="5,36" node-id="735" stroke="none" target-height="4.100006" target-width="28.100006" target-x="208.5" target-y="212.4"></path><path d="M 236.60 218.00 L 207.90 217.90 L 207.20 217.10 L 207.00 216.50 L 207.00 212.40 L 207.20 211.80 L 207.90 211.00 L 237.10 211.00 L 237.90 211.80 L 238.10 212.40 L 238.10 216.50 L 237.60 217.60 L 236.60 218.00 Z M 210.00 215.00 L 235.10 215.00 L 235.10 213.90 L 210.00 213.90 L 210.00 215.00 Z" fill="#ccccde" fill-rule="nonzero" group-id="5,36" node-id="737" stroke="none" target-height="7" target-width="31.100006" target-x="207" target-y="211"></path></g><path d="M 215.20 200.10 L 214.10 199.70 L 213.70 198.60 L 213.70 194.00 L 213.80 193.40 L 214.60 192.60 L 215.80 192.60 L 216.60 193.40 L 216.70 194.00 L 216.60 199.20 L 215.80 200.00 L 215.20 200.10 Z" fill="#ccccde" fill-rule="nonzero" group-id="5" node-id="740" stroke="none" target-height="7.5" target-width="3" target-x="213.7" target-y="192.6"></path></g><g node-id="1059"><g node-id="1090"><path d="M 57.20 175.40 L 57.00 172.70 L 56.20 170.20 L 55.00 167.80 L 53.40 165.70 L 51.50 163.90 L 49.20 162.40 L 46.70 161.30 L 44.00 160.60 L 40.70 160.40 L 39.10 158.30 L 37.10 156.50 L 34.90 155.00 L 32.40 153.90 L 29.70 153.20 L 26.70 153.00 L 23.80 153.20 L 21.10 153.90 L 18.60 155.00 L 16.30 156.50 L 14.40 158.30 L 12.80 160.40 L 11.60 162.80 L 10.80 165.30 L 10.60 168.40 L 8.20 169.90 L 6.30 171.70 L 4.60 173.80 L 3.40 176.20 L 2.70 178.70 L 2.40 181.50 L 2.70 184.20 L 3.40 186.70 L 4.60 189.10 L 6.20 191.20 L 8.10 193.00 L 10.40 194.50 L 12.90 195.60 L 15.60 196.30 L 20.10 196.50 L 23.50 199.40 L 27.70 201.30 L 32.60 202.00 L 35.30 201.70 L 37.80 201.20 L 40.20 200.20 L 44.20 197.30 L 47.10 193.40 L 48.10 191.20 L 48.60 188.80 L 51.10 187.30 L 53.10 185.50 L 54.90 183.30 L 56.10 180.90 L 56.90 178.30 L 57.20 175.40 Z" fill="#d7f7e4" fill-rule="nonzero" group-id="6,37" node-id="747" stroke="none" target-height="49" target-width="54.8" target-x="2.4" target-y="153"></path><path d="M 32.60 203.50 L 30.10 203.30 L 25.40 202.00 L 23.20 201.00 L 19.50 198.00 L 16.10 197.90 L 13.00 197.20 L 10.10 196.00 L 7.50 194.40 L 5.30 192.40 L 3.40 190.10 L 2.10 187.40 L 1.20 184.60 L 0.90 181.50 L 1.20 178.70 L 1.90 176.00 L 3.10 173.50 L 4.70 171.20 L 6.70 169.20 L 9.10 167.50 L 9.50 164.60 L 10.30 161.90 L 11.70 159.40 L 13.40 157.20 L 15.50 155.30 L 18.00 153.70 L 20.70 152.50 L 23.60 151.80 L 26.70 151.50 L 29.70 151.70 L 32.40 152.40 L 35.10 153.50 L 37.50 154.90 L 39.60 156.70 L 41.40 158.90 L 44.60 159.20 L 47.50 160.00 L 50.20 161.20 L 52.60 162.90 L 54.70 164.90 L 56.40 167.20 L 57.70 169.70 L 58.50 172.40 L 58.70 175.40 L 58.50 178.40 L 57.70 181.10 L 56.40 183.70 L 54.70 186.00 L 52.50 188.00 L 50.00 189.70 L 49.30 192.30 L 48.20 194.60 L 46.70 196.80 L 42.90 200.30 L 40.60 201.70 L 38.10 202.60 L 35.40 203.20 L 32.60 203.50 Z M 20.70 194.90 L 24.40 198.20 L 28.30 199.90 L 32.60 200.50 L 35.00 200.30 L 39.40 198.90 L 41.40 197.70 L 44.60 194.70 L 46.60 190.80 L 47.20 187.80 L 50.20 186.00 L 52.10 184.40 L 53.60 182.40 L 54.80 180.20 L 55.50 177.90 L 55.70 175.40 L 55.50 173.00 L 54.80 170.70 L 53.70 168.60 L 52.30 166.70 L 50.50 165.10 L 48.50 163.70 L 46.20 162.70 L 43.70 162.10 L 39.80 161.90 L 37.90 159.20 L 36.10 157.60 L 34.00 156.30 L 31.70 155.30 L 29.30 154.70 L 26.70 154.50 L 24.10 154.70 L 21.60 155.30 L 19.30 156.30 L 17.30 157.70 L 15.50 159.30 L 14.10 161.20 L 13.00 163.30 L 12.30 165.60 L 12.10 169.30 L 9.10 171.10 L 7.30 172.80 L 5.90 174.70 L 4.80 176.80 L 4.10 179.10 L 3.90 181.50 L 4.10 183.90 L 4.80 186.20 L 5.90 188.30 L 7.30 190.20 L 9.10 191.80 L 11.20 193.20 L 13.40 194.20 L 15.90 194.80 L 20.70 194.90 Z" fill="#ccccde" fill-rule="nonzero" group-id="6,37" node-id="749" stroke="none" target-height="52" target-width="57.8" target-x="0.9" target-y="151.5"></path></g><g node-id="1091"><path d="M 40.80 159.80 L 40.40 159.80 L 37.70 156.60 L 36.00 155.30 L 32.10 153.40 L 29.90 152.80 L 32.40 153.70 L 34.70 155.00 L 36.60 156.70 L 40.10 161.50 L 43.00 161.70 L 45.30 162.30 L 47.10 163.20 L 48.60 164.40 L 49.70 166.00 L 50.60 167.80 L 51.10 170.00 L 51.10 175.20 L 50.60 177.20 L 49.80 178.90 L 48.70 180.40 L 47.10 181.80 L 45.00 183.00 L 44.60 185.10 L 42.70 188.80 L 39.70 191.70 L 37.80 192.90 L 33.60 194.20 L 31.30 194.40 L 27.10 193.80 L 25.20 193.10 L 22.70 191.60 L 20.60 189.70 L 16.70 189.60 L 14.40 189.20 L 10.40 187.60 L 7.40 184.90 L 6.40 183.20 L 5.80 181.30 L 5.60 179.00 L 5.80 176.60 L 6.30 174.80 L 7.10 173.20 L 9.00 171.10 L 11.60 168.90 L 11.60 163.90 L 12.00 162.30 L 17.90 155.40 L 20.70 153.50 L 17.80 154.80 L 15.30 156.60 L 13.20 158.90 L 11.60 161.50 L 10.90 163.40 L 10.30 167.80 L 8.00 169.30 L 6.00 171.10 L 4.40 173.30 L 3.20 175.60 L 2.40 178.20 L 2.10 180.90 L 2.40 183.70 L 3.10 186.20 L 4.30 188.50 L 5.90 190.60 L 7.90 192.40 L 10.10 194.00 L 12.60 195.10 L 15.30 195.80 L 19.80 195.90 L 23.20 198.80 L 25.30 199.90 L 29.80 201.20 L 32.30 201.40 L 35.00 201.20 L 37.60 200.60 L 39.90 199.70 L 44.00 196.80 L 46.90 192.90 L 47.80 190.60 L 48.30 188.20 L 50.80 186.70 L 52.90 184.90 L 54.60 182.80 L 55.90 180.40 L 56.70 177.70 L 57.00 174.90 L 56.70 172.10 L 56.00 169.60 L 54.80 167.30 L 53.20 165.20 L 51.20 163.40 L 49.00 161.90 L 46.50 160.80 L 43.80 160.10 L 40.80 159.80 Z" fill="#6e6e96" fill-opacity="0.1" fill-rule="nonzero" group-id="6,38" node-id="754" stroke="none" target-height="48.59999" target-width="54.9" target-x="2.1" target-y="152.8"></path></g><g node-id="1092"><path d="M 17.80 183.60 L 20.30 184.50 L 22.00 185.40 L 23.50 186.70 L 24.80 188.40 L 26.00 191.40 L 26.40 195.70 L 26.20 201.60 L 25.60 205.20 L 24.40 209.30 L 21.70 214.60 L 19.70 217.20 L 39.80 217.20 L 37.40 213.30 L 34.50 207.30 L 33.40 203.60 L 32.60 199.70 L 32.50 195.60 L 32.80 192.90 L 33.50 190.20 L 34.70 187.40 L 36.30 184.90 L 38.60 182.40 L 41.60 179.90 L 35.60 182.50 L 28.70 184.00 L 22.00 184.20 L 17.80 183.60 Z" fill="#ede3da" fill-rule="nonzero" group-id="6,39" node-id="759" stroke="none" target-height="37.300003" target-width="23.8" target-x="17.8" target-y="179.9"></path><path d="M 39.80 218.70 L 16.40 218.70 L 20.40 213.80 L 22.90 208.80 L 24.10 205.00 L 24.90 198.30 L 24.40 191.40 L 23.90 189.90 L 21.70 187.10 L 20.20 186.10 L 17.40 185.00 L 18.10 182.10 L 24.60 182.80 L 27.80 182.60 L 34.80 181.20 L 40.80 178.60 L 42.50 181.10 L 39.80 183.30 L 37.70 185.60 L 36.00 188.10 L 34.90 190.80 L 34.20 193.60 L 34.00 196.40 L 34.50 201.70 L 35.50 205.50 L 36.80 208.90 L 39.60 214.10 L 42.80 218.70 L 39.80 218.70 Z M 22.80 215.70 L 37.00 215.70 L 34.00 210.00 L 32.60 206.40 L 31.10 199.20 L 31.20 193.20 L 32.00 190.00 L 33.20 187.10 L 34.90 184.30 L 29.40 185.50 L 24.70 185.80 L 26.80 188.90 L 27.40 190.80 L 27.90 196.00 L 27.70 201.40 L 26.30 208.40 L 24.90 212.00 L 22.80 215.70 Z" fill="#ccccde" fill-rule="nonzero" group-id="6,39" node-id="761" stroke="none" target-height="40.09999" target-width="26.4" target-x="16.4" target-y="178.6"></path></g><path d="M 36.60 183.50 L 34.20 187.40 L 31.50 193.80 L 30.00 200.80 L 30.20 207.10 L 30.80 210.30 L 31.90 213.60 L 33.60 217.20 L 39.80 217.20 L 35.90 209.80 L 34.60 206.30 L 33.10 199.20 L 33.20 193.00 L 33.80 189.90 L 34.90 186.80 L 36.60 183.50 Z" fill="#6e6e96" fill-opacity="0.11" fill-rule="nonzero" group-id="6,41" node-id="768" stroke="none" target-height="33.699997" target-width="9.799999" target-x="30" target-y="183.5"></path></g><path d="M 0.00 215.50 L 256.00 215.50 L 256.00 242.50 L 0.00 242.50 Z" fill="#f0f0ff" fill-rule="nonzero" node-id="772" stroke="none" target-height="27" target-width="256" target-x="0" target-y="215.5"></path><path d="M 0.00 214.00 L 256.00 214.00 L 256.00 217.00 L 0.00 217.00 Z" fill="#ccccde" fill-rule="nonzero" node-id="774" stroke="none" target-height="3" target-width="256" target-x="0" target-y="214"></path><path d="M 0.00 241.00 L 256.00 241.00 L 256.00 244.00 L 0.00 244.00 Z" fill="#ccccde" fill-rule="nonzero" node-id="776" stroke="none" target-height="3" target-width="256" target-x="0" target-y="241"></path><path d="M 0.00 227.50 L 10.50 227.50 L 10.50 230.50 L 0.00 230.50 Z" fill="#ccccde" fill-rule="nonzero" node-id="778" stroke="none" target-height="3" target-width="10.5" target-x="0" target-y="227.5"></path><path d="M 25.50 227.50 L 38.50 227.50 L 38.50 230.50 L 25.50 230.50 Z" fill="#ccccde" fill-rule="nonzero" node-id="780" stroke="none" target-height="3" target-width="13" target-x="25.5" target-y="227.5"></path><path d="M 118.00 227.50 L 128.50 227.50 L 128.50 230.50 L 118.00 230.50 Z" fill="#ccccde" fill-rule="nonzero" node-id="785" stroke="none" target-height="3" target-width="10.5" target-x="118" target-y="227.5"></path><path d="M 142.50 227.50 L 156.00 227.50 L 156.00 230.50 L 142.50 230.50 Z" fill="#ccccde" fill-rule="nonzero" node-id="787" stroke="none" target-height="3" target-width="13.5" target-x="142.5" target-y="227.5"></path><path d="M 185.20 228.00 L 195.00 228.00 L 195.00 231.00 L 185.20 231.00 Z" fill="#ccccde" fill-rule="nonzero" node-id="789" stroke="none" target-height="3" target-width="9.800003" target-x="185.2" target-y="228"></path><g node-id="1063"><g node-id="1095"><path d="M 240.30 207.60 L 240.20 209.00 L 239.70 210.10 L 238.60 210.90 L 237.30 211.20 L 212.20 211.20 L 210.80 210.90 L 209.80 210.10 L 209.30 209.00 L 209.30 207.60 L 211.50 196.40 L 212.00 195.00 L 213.00 193.90 L 214.30 193.10 L 215.80 192.80 L 234.40 192.80 L 235.80 193.10 L 237.10 193.90 L 238.00 195.00 L 238.60 196.40 L 240.30 207.60 Z" fill="#e0f8ff" fill-rule="nonzero" group-id="10,42" node-id="795" stroke="none" target-height="18.399994" target-width="31" target-x="209.3" target-y="192.8"></path><path d="M 237.30 212.70 L 212.20 212.70 L 210.80 212.50 L 208.70 211.10 L 207.70 208.70 L 207.80 207.30 L 210.00 196.10 L 211.10 193.70 L 213.20 192.00 L 214.50 191.50 L 234.40 191.30 L 235.70 191.50 L 238.10 192.70 L 239.60 194.90 L 240.00 196.20 L 241.80 208.70 L 240.80 211.10 L 238.60 212.50 L 237.30 212.70 Z M 215.80 194.30 L 214.00 195.00 L 213.00 196.70 L 210.70 207.90 L 211.00 209.20 L 212.20 209.70 L 237.30 209.70 L 238.00 209.50 L 238.80 208.60 L 237.10 196.60 L 236.10 195.00 L 234.40 194.30 L 215.80 194.30 Z" fill="#ccccde" fill-rule="nonzero" group-id="10,42" node-id="797" stroke="none" target-height="21.399994" target-width="34.100006" target-x="207.7" target-y="191.3"></path></g><g node-id="1096"><path d="M 246.90 220.60 L 246.60 222.00 L 245.90 223.10 L 244.70 223.90 L 243.30 224.20 L 203.50 224.20 L 202.10 223.90 L 200.90 223.10 L 200.20 222.00 L 199.90 220.60 L 199.90 212.60 L 200.20 211.20 L 200.90 210.10 L 202.10 209.30 L 203.50 209.00 L 243.30 209.00 L 244.70 209.30 L 245.90 210.10 L 246.60 211.20 L 246.90 212.60 L 246.90 220.60 Z" fill="#fff2c4" fill-rule="nonzero" group-id="10,43" node-id="802" stroke="none" target-height="15.199997" target-width="47" target-x="199.9" target-y="209"></path><path d="M 243.30 225.70 L 203.50 225.70 L 200.90 225.00 L 199.10 223.20 L 198.60 222.00 L 198.60 211.20 L 199.10 210.00 L 200.90 208.20 L 203.50 207.50 L 243.30 207.50 L 245.90 208.20 L 247.70 210.00 L 248.20 211.20 L 248.20 222.00 L 247.70 223.20 L 245.90 225.00 L 243.30 225.70 Z M 203.50 210.50 L 202.00 211.10 L 201.40 212.60 L 201.60 221.40 L 202.70 222.50 L 203.50 222.70 L 243.30 222.70 L 244.80 222.10 L 245.40 220.60 L 245.40 212.60 L 245.20 211.80 L 244.10 210.70 L 203.50 210.50 Z" fill="#ccccde" fill-rule="nonzero" group-id="10,43" node-id="804" stroke="none" target-height="18.199997" target-width="49.59999" target-x="198.6" target-y="207.5"></path></g><g node-id="1097"><path d="M 218.10 222.50 L 217.90 224.30 L 217.20 225.80 L 216.20 227.20 L 214.80 228.30 L 213.20 228.90 L 211.40 229.20 L 209.60 228.90 L 208.00 228.30 L 206.70 227.20 L 205.60 225.80 L 205.00 224.30 L 204.70 222.50 L 205.00 220.60 L 205.60 219.10 L 206.70 217.70 L 208.00 216.70 L 209.60 216.00 L 211.40 215.70 L 213.20 216.00 L 214.80 216.70 L 216.20 217.70 L 217.20 219.10 L 217.90 220.60 L 218.10 222.50 Z" fill="#e7e7fc" fill-rule="nonzero" group-id="10,44" node-id="809" stroke="none" target-height="13.5" target-width="13.400009" target-x="204.7" target-y="215.7"></path><path d="M 211.40 230.70 L 209.20 230.40 L 207.30 229.50 L 205.60 228.30 L 204.30 226.60 L 203.50 224.70 L 203.20 222.50 L 203.50 220.30 L 204.30 218.30 L 205.60 216.70 L 207.30 215.40 L 209.20 214.50 L 211.40 214.20 L 213.60 214.50 L 215.60 215.40 L 217.20 216.70 L 218.50 218.30 L 219.30 220.30 L 219.60 222.50 L 219.30 224.70 L 218.50 226.60 L 217.20 228.30 L 215.60 229.50 L 213.60 230.40 L 211.40 230.70 Z M 211.40 217.20 L 210.00 217.40 L 207.70 218.80 L 206.40 221.00 L 206.20 222.50 L 206.90 225.10 L 208.80 227.00 L 210.00 227.50 L 211.40 227.70 L 214.00 227.00 L 215.90 225.10 L 216.60 222.50 L 216.40 221.00 L 215.10 218.80 L 212.80 217.40 L 211.40 217.20 Z" fill="#ccccde" fill-rule="nonzero" group-id="10,44" node-id="811" stroke="none" target-height="16.5" target-width="16.40001" target-x="203.2" target-y="214.2"></path></g><g node-id="1098"><path d="M 241.90 222.50 L 241.60 224.30 L 240.90 225.80 L 239.90 227.20 L 238.50 228.30 L 237.00 228.90 L 235.10 229.20 L 233.30 228.90 L 231.80 228.30 L 230.40 227.20 L 229.30 225.80 L 228.70 224.30 L 228.40 222.50 L 228.70 220.60 L 229.30 219.10 L 230.40 217.70 L 231.80 216.70 L 233.30 216.00 L 235.10 215.70 L 237.00 216.00 L 238.50 216.70 L 239.90 217.70 L 240.90 219.10 L 241.60 220.60 L 241.90 222.50 Z" fill="#e7e7fc" fill-rule="nonzero" group-id="10,45" node-id="816" stroke="none" target-height="13.5" target-width="13.5" target-x="228.4" target-y="215.7"></path><path d="M 235.10 230.70 L 232.90 230.40 L 231.00 229.50 L 229.30 228.30 L 228.10 226.60 L 227.20 224.70 L 226.90 222.50 L 227.20 220.30 L 228.10 218.30 L 229.30 216.70 L 231.00 215.40 L 232.90 214.50 L 235.10 214.20 L 237.30 214.50 L 239.30 215.40 L 240.90 216.70 L 242.20 218.30 L 243.10 220.30 L 243.40 222.50 L 243.10 224.70 L 242.20 226.60 L 240.90 228.30 L 239.30 229.50 L 237.30 230.40 L 235.10 230.70 Z M 235.10 217.20 L 233.70 217.40 L 231.50 218.80 L 230.10 221.00 L 229.90 222.50 L 230.60 225.10 L 232.50 227.00 L 233.70 227.50 L 235.10 227.70 L 237.80 227.00 L 239.60 225.10 L 240.40 222.50 L 240.20 221.00 L 238.80 218.80 L 236.60 217.40 L 235.10 217.20 Z" fill="#ccccde" fill-rule="nonzero" group-id="10,45" node-id="818" stroke="none" target-height="16.5" target-width="16.5" target-x="226.9" target-y="214.2"></path></g><path d="M 223.50 192.80 L 226.50 192.80 L 226.50 209.00 L 223.50 209.00 Z" fill="#ccccde" fill-rule="nonzero" group-id="10" node-id="821" stroke="none" target-height="16.199997" target-width="3" target-x="223.5" target-y="192.8"></path></g><path d="M 53.00 227.50 L 66.00 227.50 L 66.00 230.50 L 53.00 230.50 Z" fill="#ccccde" fill-rule="nonzero" node-id="824" stroke="none" target-height="3" target-width="13" target-x="53" target-y="227.5"></path><path d="M 78.50 227.50 L 91.50 227.50 L 91.50 230.50 L 78.50 230.50 Z" fill="#ccccde" fill-rule="nonzero" node-id="826" stroke="none" target-height="3" target-width="13" target-x="78.5" target-y="227.5"></path><g node-id="1064"><g node-id="1099"><path d="M 157.80 185.90 L 174.20 185.90 L 174.20 248.00 L 157.80 248.00 Z" fill="#ddddeb" fill-rule="nonzero" group-id="11,46" node-id="832" stroke="none" target-height="62.100006" target-width="16.399994" target-x="157.8" target-y="185.9"></path><path d="M 175.70 249.50 L 156.30 249.50 L 156.30 184.40 L 175.70 184.40 L 175.70 249.50 Z M 159.30 246.50 L 172.70 246.50 L 172.70 187.40 L 159.30 187.40 L 159.30 246.50 Z" fill="#6e6e96" fill-rule="nonzero" group-id="11,46" node-id="834" stroke="none" target-height="65.100006" target-width="19.399994" target-x="156.3" target-y="184.4"></path></g><g node-id="1100"><path d="M 92.40 185.90 L 108.80 185.90 L 108.80 248.00 L 92.40 248.00 Z" fill="#ddddeb" fill-rule="nonzero" group-id="11,47" node-id="839" stroke="none" target-height="62.100006" target-width="16.400002" target-x="92.4" target-y="185.9"></path><path d="M 110.30 249.50 L 90.90 249.50 L 90.90 184.40 L 110.30 184.40 L 110.30 249.50 Z M 93.90 246.50 L 107.30 246.50 L 107.30 187.40 L 93.90 187.40 L 93.90 246.50 Z" fill="#6e6e96" fill-rule="nonzero" group-id="11,47" node-id="841" stroke="none" target-height="65.100006" target-width="19.400002" target-x="90.9" target-y="184.4"></path></g><g node-id="1101"><path d="M 54.00 81.30 L 211.50 81.30 L 211.50 186.30 L 54.00 186.30 Z" fill="#ffffff" fill-rule="nonzero" group-id="11,48" node-id="846" stroke="none" target-height="105" target-width="157.5" target-x="54" target-y="81.3"></path><path d="M 211.50 187.80 L 54.00 187.80 L 53.00 187.40 L 52.50 186.30 L 52.50 81.30 L 52.60 80.80 L 53.40 80.00 L 211.50 79.80 L 212.60 80.30 L 213.00 81.30 L 213.00 186.30 L 212.60 187.40 L 211.50 187.80 Z M 55.50 184.80 L 210.00 184.80 L 210.00 82.80 L 55.50 82.80 L 55.50 184.80 Z" fill="#6e6e96" fill-rule="nonzero" group-id="11,48" node-id="848" stroke="none" target-height="108" target-width="160.5" target-x="52.5" target-y="79.8"></path></g><g node-id="1102"><path d="M 60.80 88.30 L 204.80 88.30 L 204.80 179.10 L 60.80 179.10 Z" fill="#ffe3b0" fill-rule="nonzero" group-id="11,49" node-id="853" stroke="none" target-height="90.8" target-width="144" target-x="60.8" target-y="88.3"></path><path d="M 204.80 180.60 L 60.20 180.50 L 59.40 179.70 L 59.30 179.10 L 59.30 88.30 L 59.40 87.70 L 60.20 86.90 L 205.40 86.90 L 206.20 87.70 L 206.30 88.30 L 206.30 179.10 L 205.90 180.20 L 204.80 180.60 Z M 62.30 177.60 L 203.30 177.60 L 203.30 89.80 L 62.30 89.80 L 62.30 177.60 Z" fill="#6e6e96" fill-rule="nonzero" group-id="11,49" node-id="855" stroke="none" target-height="93.700005" target-width="147" target-x="59.3" target-y="86.9"></path></g><g node-id="1103"><g node-id="1150"><path d="M 130.20 111.50 L 131.30 115.40 L 131.90 119.20 L 131.90 123.10 L 131.40 126.90 L 130.40 130.50 L 128.90 134.10 L 126.90 137.40 L 124.60 140.50 L 121.80 143.30 L 118.70 145.80 L 115.20 147.90 L 111.30 149.60 L 107.30 150.70 L 103.30 151.40 L 99.30 151.50 L 95.40 151.10 L 91.60 150.20 L 88.00 148.90 L 84.60 147.10 L 81.50 144.90 L 78.60 142.30 L 76.20 139.40 L 74.10 136.10 L 72.50 132.40 L 71.40 128.50 L 70.80 124.60 L 70.80 120.80 L 71.40 117.00 L 72.40 113.30 L 73.90 109.80 L 75.80 106.40 L 78.10 103.40 L 80.90 100.50 L 84.00 98.10 L 87.50 96.00 L 91.40 94.30 L 99.30 92.00 L 103.00 91.40 L 106.80 91.30 L 110.30 91.60 L 113.70 92.50 L 116.10 93.40 L 120.70 96.50 L 124.80 101.00 L 128.50 107.40 L 130.20 111.50 Z" fill="#b89289" fill-rule="nonzero" group-id="11,50,97" node-id="862" stroke="none" target-height="60.199997" target-width="61.09999" target-x="70.8" target-y="91.3"></path></g><g node-id="1151"><path d="M 74.00 126.20 L 74.30 122.30 L 75.70 116.40 L 77.00 112.90 L 78.90 109.50 L 81.50 106.10 L 83.60 104.10 L 89.00 100.30 L 92.20 98.90 L 95.90 97.80 L 102.60 96.40 L 108.20 95.90 L 111.70 96.10 L 115.70 96.90 L 120.80 99.10 L 123.50 100.90 L 121.50 98.00 L 117.70 94.40 L 114.90 92.70 L 110.40 91.20 L 104.70 90.80 L 101.50 91.10 L 97.70 92.00 L 94.00 93.30 L 89.80 95.30 L 85.00 98.00 L 81.50 100.60 L 78.80 103.00 L 76.70 105.40 L 75.00 108.10 L 73.10 113.00 L 72.50 116.60 L 72.90 122.50 L 74.00 126.20 Z" fill="#c79e94" fill-rule="nonzero" group-id="11,50,98" node-id="867" stroke="none" target-height="35.399994" target-width="51" target-x="72.5" target-y="90.8"></path></g><g node-id="1152"><path d="M 129.00 111.90 L 130.00 115.40 L 130.60 118.90 L 130.60 122.40 L 130.30 125.90 L 129.40 129.40 L 128.10 132.80 L 126.20 136.30 L 123.80 139.40 L 121.10 142.20 L 118.00 144.70 L 114.60 146.70 L 110.90 148.40 L 107.00 149.50 L 103.20 150.10 L 99.40 150.20 L 95.60 149.80 L 92.00 149.00 L 88.50 147.70 L 85.30 146.00 L 82.30 143.90 L 79.60 141.40 L 77.20 138.60 L 75.20 135.50 L 73.70 131.90 L 72.60 128.20 L 72.10 124.50 L 72.10 120.90 L 72.60 117.20 L 73.60 113.70 L 75.00 110.30 L 76.90 107.10 L 79.10 104.20 L 81.80 101.50 L 84.80 99.10 L 88.10 97.10 L 91.80 95.50 L 96.80 93.90 L 101.30 93.00 L 105.30 92.60 L 108.90 92.70 L 112.10 93.30 L 115.00 94.30 L 117.70 95.80 L 120.30 97.80 L 122.70 100.30 L 124.90 103.40 L 127.10 107.30 L 129.00 111.90 Z M 90.90 93.10 L 86.90 94.90 L 83.30 97.00 L 80.00 99.60 L 77.10 102.50 L 74.70 105.80 L 72.70 109.20 L 71.20 112.90 L 70.10 116.80 L 69.60 120.70 L 69.60 124.70 L 70.10 128.80 L 71.20 132.80 L 73.00 136.70 L 75.10 140.10 L 77.70 143.20 L 80.60 145.90 L 83.90 148.10 L 87.40 150.00 L 91.20 151.40 L 95.10 152.30 L 99.20 152.70 L 103.40 152.60 L 107.50 152.00 L 111.80 150.80 L 115.80 149.00 L 119.40 146.80 L 122.80 144.10 L 125.80 141.00 L 128.30 137.60 L 130.40 133.90 L 131.80 130.10 L 132.80 126.30 L 133.20 122.50 L 133.10 118.60 L 132.50 114.80 L 131.40 111.10 L 129.30 106.00 L 127.00 101.90 L 124.50 98.50 L 121.90 95.70 L 119.10 93.60 L 116.10 92.00 L 112.90 90.80 L 109.40 90.20 L 105.50 90.00 L 101.20 90.40 L 96.30 91.40 L 90.90 93.10 Z" fill="#6e6e96" fill-rule="nonzero" group-id="11,50,99" node-id="872" stroke="none" target-height="62.699997" target-width="63.6" target-x="69.6" target-y="90"></path></g><g node-id="1153"><path d="M 100.20 151.00 L 103.90 151.00 L 106.40 149.80 L 107.40 148.10 L 107.30 144.00 L 113.70 143.70 L 113.90 145.80 L 114.90 148.30 L 115.80 149.40 L 117.10 150.00 L 118.90 150.30 L 120.50 154.40 L 121.20 158.20 L 121.10 160.10 L 120.50 161.70 L 119.00 163.50 L 117.70 164.20 L 114.80 164.40 L 111.00 163.10 L 106.40 159.90 L 102.70 155.90 L 101.40 154.00 L 100.20 151.00 Z" fill="#f9e6d4" fill-rule="nonzero" group-id="11,50,100" node-id="877" stroke="none" target-height="20.699997" target-width="21" target-x="100.2" target-y="143.7"></path></g><g node-id="1154"><path d="M 100.00 152.30 L 104.40 152.20 L 105.80 151.70 L 107.20 150.80 L 108.30 149.30 L 108.70 146.70 L 108.60 144.00 L 107.40 145.30 L 113.70 145.00 L 112.40 143.70 L 113.00 147.40 L 114.60 150.00 L 115.90 150.90 L 117.30 151.40 L 119.00 151.50 L 117.80 150.80 L 119.40 155.40 L 119.90 159.20 L 119.50 160.90 L 118.30 162.40 L 117.30 162.90 L 115.50 163.20 L 113.60 162.80 L 111.70 162.10 L 107.80 159.40 L 105.70 157.40 L 102.70 153.60 L 101.50 151.00 L 100.00 152.30 Z M 118.20 165.40 L 119.80 164.50 L 121.00 163.30 L 121.90 161.80 L 122.40 160.00 L 122.40 158.00 L 121.70 154.10 L 119.70 148.90 L 117.50 148.80 L 116.40 148.20 L 115.20 145.80 L 115.00 142.40 L 106.00 142.80 L 106.20 146.80 L 106.00 148.10 L 105.50 148.90 L 103.80 149.70 L 98.90 149.70 L 99.30 152.70 L 100.50 154.90 L 104.10 159.40 L 108.70 163.30 L 111.50 164.80 L 114.00 165.60 L 116.20 165.80 L 118.20 165.40 Z" fill="#6e6e96" fill-rule="nonzero" group-id="11,50,101" node-id="882" stroke="none" target-height="23.40001" target-width="23.5" target-x="98.9" target-y="142.4"></path></g><g node-id="1155"><path d="M 123.00 107.90 L 120.10 104.50 L 117.10 101.90 L 114.90 100.50 L 112.60 99.50 L 110.10 98.90 L 107.50 98.70 L 104.70 99.00 L 101.40 99.90 L 98.40 101.20 L 94.90 103.20 L 90.80 105.90 L 86.80 109.30 L 83.70 112.40 L 81.30 115.20 L 79.70 117.80 L 78.40 120.80 L 77.80 123.50 L 77.80 126.10 L 78.30 128.70 L 79.30 131.00 L 80.90 133.40 L 83.10 135.70 L 86.00 138.00 L 90.10 140.70 L 94.40 142.90 L 98.80 144.70 L 103.00 145.80 L 105.90 146.30 L 110.80 146.00 L 113.00 145.40 L 115.00 144.30 L 116.60 142.80 L 119.50 139.10 L 122.20 134.90 L 124.30 130.40 L 125.90 125.80 L 126.50 122.60 L 126.50 116.50 L 125.90 113.50 L 124.70 110.70 L 123.00 107.90 Z" fill="#f9e6d4" fill-rule="nonzero" group-id="11,50,102" node-id="887" stroke="none" target-height="47.600006" target-width="48.699997" target-x="77.8" target-y="98.7"></path></g><g node-id="1156"><path d="M 122.40 107.60 L 119.50 104.30 L 116.50 101.60 L 114.30 100.20 L 112.00 99.20 L 109.50 98.60 L 106.90 98.40 L 104.10 98.70 L 100.90 99.60 L 97.80 100.90 L 94.30 102.90 L 90.30 105.70 L 86.20 109.00 L 83.10 112.10 L 80.80 114.90 L 79.10 117.60 L 77.80 120.50 L 77.20 123.30 L 77.20 125.90 L 77.70 128.40 L 78.70 130.70 L 80.30 133.10 L 82.50 135.40 L 85.40 137.80 L 89.50 140.40 L 93.80 142.70 L 98.30 144.40 L 102.50 145.60 L 105.30 146.00 L 110.20 145.80 L 112.50 145.10 L 114.40 144.00 L 116.00 142.60 L 118.90 138.80 L 121.60 134.60 L 123.70 130.10 L 125.30 125.50 L 125.90 122.30 L 125.90 116.20 L 125.30 113.20 L 124.10 110.40 L 122.40 107.60 Z M 114.60 138.20 L 113.10 139.60 L 111.40 140.50 L 109.60 141.00 L 105.50 140.90 L 103.30 140.40 L 100.00 139.20 L 93.60 136.00 L 85.00 129.90 L 87.10 127.50 L 91.40 121.40 L 96.50 112.00 L 99.50 105.40 L 100.30 106.00 L 104.00 107.00 L 111.30 107.60 L 116.90 107.70 L 118.70 108.90 L 120.10 110.60 L 121.20 112.70 L 122.10 117.70 L 122.00 120.70 L 120.70 126.80 L 118.20 132.90 L 114.60 138.20 Z" fill="#e8b98e" fill-opacity="0.39" fill-rule="nonzero" group-id="11,50,103" node-id="892" stroke="none" target-height="47.6" target-width="48.700005" target-x="77.2" target-y="98.4"></path></g><g node-id="1157"><path d="M 124.00 107.10 L 121.10 103.80 L 118.40 101.20 L 115.60 99.40 L 112.80 98.20 L 110.10 97.60 L 107.30 97.40 L 104.40 97.80 L 101.30 98.60 L 97.90 100.00 L 94.20 102.10 L 90.00 104.90 L 85.90 108.30 L 82.70 111.50 L 80.20 114.60 L 78.50 117.40 L 77.30 120.10 L 76.60 122.70 L 76.40 125.20 L 76.70 127.60 L 77.40 129.90 L 78.50 132.20 L 80.10 134.50 L 82.30 136.80 L 85.20 139.10 L 89.60 141.90 L 94.10 144.20 L 98.70 146.00 L 103.20 147.20 L 106.10 147.60 L 111.30 147.20 L 113.70 146.50 L 115.80 145.30 L 117.60 143.70 L 120.80 139.50 L 123.50 135.00 L 125.10 131.90 L 127.20 125.50 L 127.80 122.20 L 127.90 119.00 L 127.70 115.90 L 127.00 112.80 L 125.70 109.90 L 124.00 107.10 Z M 115.60 142.00 L 114.10 143.30 L 112.30 144.30 L 110.20 144.90 L 105.60 145.00 L 102.90 144.50 L 98.90 143.40 L 94.70 141.70 L 90.60 139.50 L 86.70 137.00 L 83.70 134.60 L 81.60 132.20 L 80.20 129.90 L 79.30 127.50 L 79.00 125.20 L 79.20 122.60 L 80.10 120.00 L 81.60 117.10 L 83.90 114.00 L 87.20 110.70 L 91.60 107.00 L 96.20 103.80 L 100.20 101.80 L 103.70 100.50 L 106.80 100.00 L 109.70 100.10 L 111.80 100.60 L 113.90 101.40 L 117.90 104.20 L 121.90 108.70 L 123.50 111.20 L 124.60 113.80 L 125.20 116.50 L 125.40 119.40 L 124.60 125.30 L 123.20 129.70 L 121.20 134.00 L 118.60 138.20 L 115.60 142.00 Z" fill="#6e6e96" fill-rule="nonzero" group-id="11,50,104" node-id="897" stroke="none" target-height="50.200005" target-width="51.5" target-x="76.4" target-y="97.4"></path></g><g node-id="1158"><path d="M 90.80 159.90 L 88.60 167.80 L 87.30 179.20 L 89.90 173.80 L 92.20 167.90 L 93.70 162.40 L 93.80 160.20 L 93.50 159.10 L 93.10 158.80 L 92.30 159.00 L 90.80 159.90 Z" fill="#ffffff" fill-rule="nonzero" group-id="11,50,105" node-id="902" stroke="none" target-height="20.399994" target-width="6.5" target-x="87.3" target-y="158.8"></path></g><g node-id="1159"><path d="M 90.70 159.50 L 89.00 163.90 L 87.50 172.50 L 86.80 179.00 L 86.90 179.50 L 87.50 179.60 L 89.90 176.00 L 90.70 173.90 L 94.00 162.70 L 94.20 159.20 L 93.80 158.40 L 93.10 158.20 L 92.20 158.40 L 90.70 159.50 Z M 87.60 179.00 L 88.90 168.40 L 90.90 160.30 L 92.70 159.20 L 93.20 159.10 L 93.40 159.50 L 93.00 162.70 L 91.60 167.50 L 88.20 176.90 L 87.10 178.90 L 87.60 179.00 Z" fill="#6e6e96" fill-rule="nonzero" group-id="11,50,106" node-id="907" stroke="none" target-height="21.40001" target-width="7.399994" target-x="86.8" target-y="158.2"></path></g><g node-id="1160"><path d="M 94.50 99.10 L 99.40 100.60 L 107.30 102.20 L 112.10 102.70 L 117.10 102.70 L 122.40 102.10 L 115.50 97.80 L 112.30 96.40 L 106.20 94.80 L 101.30 95.10 L 99.00 95.80 L 96.70 97.10 L 94.50 99.10 Z" fill="#b89289" fill-rule="nonzero" group-id="11,50,107" node-id="912" stroke="none" target-height="7.899994" target-width="27.900002" target-x="94.5" target-y="94.8"></path></g><g node-id="1161"><path d="M 100.30 96.40 L 97.50 103.20 L 91.50 114.00 L 86.80 120.70 L 83.30 125.10 L 74.40 134.50 L 74.60 126.00 L 76.30 116.90 L 77.80 111.70 L 80.20 105.80 L 81.20 104.10 L 83.90 101.30 L 86.40 99.70 L 89.10 98.50 L 94.40 97.10 L 100.30 96.40 Z" fill="#b89289" fill-rule="nonzero" group-id="11,50,108" node-id="917" stroke="none" target-height="38.1" target-width="25.900002" target-x="74.4" target-y="96.4"></path></g><g node-id="1162"><path d="M 98.30 96.70 L 94.40 105.40 L 92.30 109.40 L 86.40 118.90 L 82.60 124.00 L 78.40 128.90 L 73.20 134.00 L 73.40 135.40 L 74.80 135.70 L 80.20 130.70 L 84.50 125.70 L 91.60 115.70 L 96.60 106.80 L 100.70 97.50 L 100.60 96.50 L 99.90 95.90 L 98.90 95.90 L 98.30 96.70 Z" fill="#6e6e96" fill-rule="nonzero" group-id="11,50,109" node-id="922" stroke="none" target-height="39.799995" target-width="27.5" target-x="73.2" target-y="95.9"></path></g><g node-id="1163"><path d="M 97.60 101.40 L 102.00 102.90 L 105.40 103.70 L 114.20 104.50 L 119.50 104.20 L 125.80 103.40 L 126.80 102.40 L 126.30 101.10 L 125.30 100.90 L 119.30 101.70 L 114.30 101.90 L 109.50 101.60 L 102.70 100.50 L 98.30 99.00 L 97.00 99.70 L 97.00 100.70 L 97.60 101.40 Z" fill="#6e6e96" fill-rule="nonzero" group-id="11,50,110" node-id="927" stroke="none" target-height="5.5" target-width="29.800003" target-x="97" target-y="99"></path></g><g node-id="1164"><path d="M 97.70 160.40 L 98.00 162.60 L 97.70 167.40 L 95.50 174.60 L 98.90 177.50 L 99.80 179.00 L 129.10 179.00 L 130.50 174.20 L 130.70 171.40 L 130.40 167.30 L 129.40 163.10 L 127.90 159.10 L 125.90 155.50 L 124.30 153.40 L 120.80 150.20 L 119.10 150.20 L 118.20 150.90 L 117.80 151.90 L 117.30 157.40 L 116.90 158.80 L 116.10 160.10 L 115.00 161.00 L 114.00 161.40 L 113.00 161.30 L 111.60 160.60 L 103.40 152.10 L 102.10 151.30 L 99.60 150.90 L 97.60 151.10 L 94.40 152.50 L 91.10 155.40 L 89.70 157.60 L 91.80 157.00 L 94.50 157.00 L 96.60 158.20 L 97.70 160.40 Z" fill="#ffffff" fill-rule="nonzero" group-id="11,50,111" node-id="932" stroke="none" target-height="28.800003" target-width="41" target-x="89.7" target-y="150.2"></path></g><g node-id="1165"><path d="M 102.90 174.50 L 110.20 173.80 L 116.60 172.40 L 119.80 171.30 L 122.60 169.80 L 125.40 167.30 L 126.30 165.70 L 126.80 164.00 L 126.80 162.10 L 126.20 159.70 L 125.10 157.50 L 123.20 154.70 L 120.30 151.40 L 125.20 156.70 L 127.00 159.30 L 128.60 162.60 L 129.90 167.30 L 130.10 170.00 L 129.90 172.60 L 129.20 175.40 L 127.90 178.50 L 101.70 178.50 L 102.90 174.50 Z" fill="#6e6e96" fill-opacity="0.15" fill-rule="nonzero" group-id="11,50,112" node-id="937" stroke="none" target-height="27.100006" target-width="28.40001" target-x="101.7" target-y="151.4"></path></g><g node-id="1166"><path d="M 96.50 160.80 L 96.80 162.70 L 96.40 167.00 L 95.10 172.40 L 94.30 174.40 L 94.40 175.20 L 95.40 176.40 L 97.90 178.20 L 99.20 180.10 L 129.10 180.30 L 129.80 180.10 L 130.30 179.50 L 130.40 178.20 L 129.20 177.50 L 128.30 177.80 L 127.90 178.60 L 127.90 179.50 L 128.60 180.20 L 129.50 180.30 L 130.30 179.60 L 131.20 177.10 L 131.80 174.40 L 132.00 171.50 L 131.40 165.60 L 130.60 162.70 L 129.00 158.50 L 126.90 154.70 L 125.20 152.50 L 121.40 149.10 L 119.10 148.80 L 117.60 149.70 L 117.00 150.50 L 116.30 153.00 L 115.70 158.20 L 115.10 159.20 L 113.70 160.10 L 112.70 159.80 L 111.40 158.70 L 104.50 151.40 L 103.00 150.30 L 101.30 149.70 L 99.40 149.60 L 97.40 149.80 L 93.80 151.30 L 91.90 152.70 L 90.10 154.60 L 88.60 157.00 L 88.50 157.70 L 88.80 158.40 L 89.50 158.80 L 92.30 158.20 L 94.90 158.50 L 95.80 159.30 L 96.50 160.80 Z M 90.90 158.10 L 92.10 156.20 L 95.10 153.60 L 97.80 152.30 L 100.90 152.20 L 103.30 153.70 L 108.50 159.50 L 111.30 162.00 L 113.60 162.70 L 114.80 162.50 L 117.10 160.90 L 118.00 159.40 L 118.50 157.80 L 119.00 152.40 L 119.30 151.70 L 120.10 151.30 L 123.40 154.30 L 124.90 156.30 L 126.80 159.70 L 128.20 163.50 L 129.10 167.40 L 129.40 171.30 L 129.30 173.90 L 127.90 178.50 L 128.70 177.80 L 129.60 177.90 L 130.30 178.60 L 130.30 179.50 L 130.50 178.70 L 130.10 177.80 L 129.20 177.50 L 128.30 177.80 L 127.90 178.60 L 128.40 178.00 L 129.10 177.80 L 99.80 177.80 L 101.00 178.50 L 99.90 176.70 L 96.70 174.00 L 96.80 174.80 L 96.50 175.50 L 98.40 170.10 L 99.30 165.10 L 99.30 162.50 L 99.00 160.10 L 98.30 158.40 L 97.30 157.10 L 96.00 156.20 L 93.00 155.60 L 89.20 156.40 L 90.00 156.30 L 90.70 156.70 L 91.00 157.40 L 90.90 158.10 Z" fill="#6e6e96" fill-rule="nonzero" group-id="11,50,113" node-id="942" stroke="none" target-height="31.5" target-width="43.5" target-x="88.5" target-y="148.8"></path></g><g node-id="1167"><path d="M 101.70 179.00 L 101.20 169.50 L 99.80 164.20 L 97.50 159.20 L 96.20 157.40 L 95.30 156.30 L 93.60 155.50 L 91.40 156.00 L 90.40 156.70 L 89.20 158.10 L 87.20 162.40 L 86.60 165.10 L 86.40 169.00 L 86.60 179.10 L 101.70 179.00 Z" fill="#f9e6d4" fill-rule="nonzero" group-id="11,50,114" node-id="947" stroke="none" target-height="23.600006" target-width="15.299995" target-x="86.4" target-y="155.5"></path></g><g node-id="1168"><path d="M 110.00 120.40 L 110.40 117.00 L 111.30 115.60 L 112.20 115.30 L 113.30 115.40 L 115.90 116.40 L 116.90 116.10 L 117.30 115.30 L 116.60 114.00 L 114.40 113.10 L 112.60 112.80 L 111.10 112.90 L 109.90 113.50 L 108.70 114.60 L 108.00 116.10 L 107.60 117.60 L 107.50 120.70 L 108.00 121.50 L 108.90 121.80 L 109.80 121.40 L 110.00 120.40 Z" fill="#6e6e96" fill-rule="nonzero" group-id="11,50,115" node-id="952" stroke="none" target-height="9" target-width="9.800003" target-x="107.5" target-y="112.8"></path></g><g node-id="1169"><path d="M 95.60 128.40 L 95.90 125.00 L 96.90 123.50 L 97.70 123.30 L 98.80 123.40 L 101.50 124.40 L 102.40 124.10 L 102.90 123.20 L 102.20 122.00 L 100.00 121.00 L 98.20 120.70 L 96.70 120.80 L 95.40 121.40 L 94.20 122.60 L 93.50 124.00 L 93.10 125.60 L 93.00 128.60 L 93.50 129.50 L 94.40 129.80 L 95.30 129.30 L 95.60 128.40 Z" fill="#6e6e96" fill-rule="nonzero" group-id="11,50,116" node-id="957" stroke="none" target-height="9.100006" target-width="9.900002" target-x="93" target-y="120.7"></path></g><g node-id="1170"><path d="M 106.70 136.90 L 110.20 136.80 L 112.20 136.10 L 114.20 134.70 L 116.30 131.80 L 117.10 129.60 L 117.00 128.60 L 116.30 128.00 L 114.90 128.40 L 113.90 130.90 L 112.10 133.10 L 110.40 134.10 L 106.20 134.60 L 105.70 135.90 L 106.70 136.90 Z" fill="#6e6e96" fill-rule="nonzero" group-id="11,50,117" node-id="962" stroke="none" target-height="8.899994" target-width="11.400002" target-x="105.7" target-y="128"></path></g><g node-id="1171"><path d="M 81.80 145.20 L 78.90 142.70 L 76.50 140.20 L 74.80 137.60 L 73.30 134.90 L 71.70 129.60 L 71.20 125.50 L 71.30 121.80 L 71.90 118.20 L 72.60 115.20 L 75.00 108.90 L 73.70 116.80 L 73.80 124.50 L 74.40 128.70 L 75.70 132.80 L 77.00 135.50 L 78.60 138.00 L 80.70 140.40 L 83.00 142.40 L 86.00 144.20 L 89.60 145.70 L 93.50 146.70 L 98.10 147.20 L 103.80 147.30 L 107.30 146.90 L 113.00 145.40 L 115.20 144.20 L 118.00 142.20 L 120.20 139.90 L 122.00 137.30 L 124.50 131.30 L 125.30 128.00 L 125.90 123.00 L 126.00 118.00 L 125.30 108.90 L 123.50 99.70 L 126.40 104.70 L 129.90 112.40 L 131.30 117.10 L 132.40 123.70 L 132.40 127.10 L 132.00 130.50 L 131.00 133.70 L 129.50 136.90 L 126.20 141.20 L 120.90 145.30 L 114.20 148.30 L 109.80 149.70 L 104.50 150.80 L 101.00 151.20 L 95.00 151.00 L 90.90 150.00 L 87.40 148.60 L 81.80 145.20 Z" fill="#6e6e96" fill-opacity="0.25" fill-rule="nonzero" group-id="11,50,118" node-id="967" stroke="none" target-height="51.5" target-width="61.199997" target-x="71.2" target-y="99.7"></path></g><g node-id="1172"><path d="M 74.00 126.20 L 84.60 117.20 L 91.70 109.60 L 96.90 102.20 L 99.90 95.90 L 95.60 106.30 L 93.40 110.90 L 87.40 121.00 L 83.90 125.70 L 81.30 128.60 L 75.90 133.10 L 74.00 126.20 Z" fill="#6e6e96" fill-opacity="0.25" fill-rule="nonzero" group-id="11,50,119" node-id="972" stroke="none" target-height="37.200005" target-width="25.900002" target-x="74" target-y="95.9"></path></g><g node-id="1173"><path d="M 93.50 156.80 L 95.20 159.20 L 96.80 163.40 L 97.10 166.40 L 97.10 174.10 L 87.70 174.10 L 87.70 177.80 L 100.60 177.80 L 101.10 171.40 L 100.90 168.60 L 100.40 165.70 L 99.60 162.80 L 98.20 160.30 L 97.00 158.90 L 95.40 157.70 L 93.50 156.80 Z" fill="#e8b98e" fill-opacity="0.39" fill-rule="nonzero" group-id="11,50,120" node-id="977" stroke="none" target-height="21" target-width="13.400002" target-x="87.7" target-y="156.8"></path></g><g node-id="1174"><path d="M 103.00 179.10 L 102.80 167.00 L 102.30 164.00 L 101.20 161.10 L 99.60 158.40 L 97.80 156.30 L 96.40 155.20 L 93.70 154.20 L 92.20 154.40 L 89.60 155.70 L 88.40 157.00 L 87.10 159.00 L 86.10 161.60 L 85.40 164.90 L 85.10 168.80 L 85.50 180.30 L 103.00 180.30 L 103.00 179.10 Z M 87.90 178.90 L 87.70 169.00 L 87.90 165.30 L 88.50 162.70 L 90.00 159.10 L 91.20 157.70 L 92.30 157.00 L 93.50 156.80 L 94.40 157.20 L 96.70 160.20 L 99.40 167.40 L 100.20 171.80 L 100.50 179.00 L 101.70 177.80 L 86.60 177.80 L 87.90 178.90 Z" fill="#6e6e96" fill-rule="nonzero" group-id="11,50,121" node-id="982" stroke="none" target-height="26.100006" target-width="17.900002" target-x="85.1" target-y="154.2"></path></g><path d="M 108.80 155.90 L 109.40 153.70 L 110.90 151.60 L 112.30 151.00 L 113.30 151.00 L 116.40 152.00 L 113.20 148.80 L 107.80 150.20 L 105.20 151.90 L 108.80 155.90 Z" fill="#e8b98e" fill-opacity="0.39" fill-rule="nonzero" group-id="11,50,122" node-id="987" stroke="none" target-height="7.099991" target-width="11.200005" target-x="105.2" target-y="148.8"></path></g><g node-id="1104"><path d="M 148.70 118.10 L 190.50 118.10 L 190.50 122.20 L 148.70 122.20 Z" fill="#6e6e96" fill-opacity="0.5" fill-rule="nonzero" group-id="11,51" node-id="993" stroke="none" target-height="4.0999985" target-width="41.800003" target-x="148.7" target-y="118.1"></path></g><g node-id="1105"><path d="M 157.10 130.40 L 182.10 130.40 L 182.10 134.50 L 157.10 134.50 Z" fill="#6e6e96" fill-opacity="0.5" fill-rule="nonzero" group-id="11,52" node-id="998" stroke="none" target-height="4.100006" target-width="25" target-x="157.1" target-y="130.4"></path></g><g node-id="1106"><path d="M 151.10 142.70 L 188.10 142.70 L 188.10 146.80 L 151.10 146.80 Z" fill="#6e6e96" fill-opacity="0.5" fill-rule="nonzero" group-id="11,53" node-id="1003" stroke="none" target-height="4.100006" target-width="37" target-x="151.1" target-y="142.7"></path></g><g node-id="1107"><path d="M 61.60 171.90 L 204.80 171.90 L 204.80 178.80 L 61.60 178.80 Z" fill="#6e6e96" fill-opacity="0.15" fill-rule="nonzero" group-id="11,54" node-id="1008" stroke="none" target-height="6.900009" target-width="143.20001" target-x="61.6" target-y="171.9"></path></g><g node-id="1108"><path d="M 92.40 186.30 L 108.80 186.30 L 108.80 192.50 L 92.40 192.50 Z" fill="#6e6e96" fill-opacity="0.15" fill-rule="nonzero" group-id="11,55" node-id="1013" stroke="none" target-height="6.199997" target-width="16.400002" target-x="92.4" target-y="186.3"></path></g><g node-id="1109"><path d="M 157.80 186.30 L 174.20 186.30 L 174.20 192.50 L 157.80 192.50 Z" fill="#6e6e96" fill-opacity="0.15" fill-rule="nonzero" group-id="11,56" node-id="1018" stroke="none" target-height="6.199997" target-width="16.399994" target-x="157.8" target-y="186.3"></path></g><g node-id="1110"><path d="M 84.80 239.00 L 116.40 239.00 L 116.40 248.00 L 84.80 248.00 Z" fill="#ddddeb" fill-rule="nonzero" group-id="11,57" node-id="1023" stroke="none" target-height="9" target-width="31.599998" target-x="84.8" target-y="239"></path><path d="M 116.40 249.50 L 84.20 249.40 L 83.40 248.60 L 83.30 248.00 L 83.30 239.00 L 83.40 238.50 L 84.20 237.70 L 116.90 237.70 L 117.70 238.50 L 117.90 239.00 L 117.90 248.00 L 117.40 249.10 L 116.40 249.50 Z M 86.30 246.50 L 114.90 246.50 L 114.90 240.50 L 86.30 240.50 L 86.30 246.50 Z" fill="#6e6e96" fill-rule="nonzero" group-id="11,57" node-id="1025" stroke="none" target-height="11.800003" target-width="34.6" target-x="83.3" target-y="237.7"></path></g><g node-id="1111"><path d="M 150.40 239.00 L 182.00 239.00 L 182.00 248.00 L 150.40 248.00 Z" fill="#ddddeb" fill-rule="nonzero" group-id="11,58" node-id="1030" stroke="none" target-height="9" target-width="31.600006" target-x="150.4" target-y="239"></path><path d="M 182.00 249.50 L 149.80 249.40 L 149.10 248.60 L 148.90 248.00 L 148.90 239.00 L 149.40 238.00 L 150.40 237.50 L 182.60 237.70 L 183.40 238.50 L 183.50 239.00 L 183.50 248.00 L 183.10 249.10 L 182.00 249.50 Z M 151.90 246.50 L 180.50 246.50 L 180.50 240.50 L 151.90 240.50 L 151.90 246.50 Z" fill="#6e6e96" fill-rule="nonzero" group-id="11,58" node-id="1032" stroke="none" target-height="12" target-width="34.600006" target-x="148.9" target-y="237.5"></path></g><g node-id="1112"><path d="M 169.30 239.00 L 182.00 239.00 L 182.00 248.00 L 169.30 248.00 Z" fill="#6e6e96" fill-opacity="0.15" fill-rule="nonzero" group-id="11,59" node-id="1037" stroke="none" target-height="9" target-width="12.699997" target-x="169.3" target-y="239"></path></g><g node-id="1113"><path d="M 104.90 239.00 L 116.40 239.00 L 116.40 248.00 L 104.90 248.00 Z" fill="#6e6e96" fill-opacity="0.15" fill-rule="nonzero" group-id="11,60" node-id="1042" stroke="none" target-height="9" target-width="11.5" target-x="104.9" target-y="239"></path></g><g node-id="1114"><path d="M 93.60 192.50 L 96.30 192.50 L 96.30 237.80 L 93.60 237.80 Z" fill="#ffffff" fill-opacity="0.39" fill-rule="nonzero" group-id="11,61" node-id="1047" stroke="none" target-height="45.300003" target-width="2.7000046" target-x="93.6" target-y="192.5"></path></g><path d="M 159.20 192.50 L 161.90 192.50 L 161.90 237.80 L 159.20 237.80 Z" fill="#ffffff" fill-opacity="0.39" fill-rule="nonzero" group-id="11,62" node-id="1052" stroke="none" target-height="45.300003" target-width="2.699997" target-x="159.2" target-y="192.5"></path></g></svg>