<svg xmlns="http://www.w3.org/2000/svg" xmlns:xlink="http://www.w3.org/1999/xlink" id="ejAuclCWLbt1" viewBox="0 0 256 250" shape-rendering="geometricPrecision" text-rendering="geometricPrecision" project-id="eeb85445c868405abd5808fe22046f05" export-id="87cf849b62d4486a9f2d6f49552c92e3" cached="false">
<style><![CDATA[
#ejAuclCWLbt2 {animation: ejAuclCWLbt2_c_o 3000ms linear infinite normal forwards}@keyframes ejAuclCWLbt2_c_o { 0% {opacity: 0} 16.666667% {opacity: 1} 83.333333% {opacity: 1} 100% {opacity: 0}} #ejAuclCWLbt7 {animation: ejAuclCWLbt7_c_o 3000ms linear infinite normal forwards}@keyframes ejAuclCWLbt7_c_o { 0% {opacity: 0} 26.666667% {opacity: 0} 36.666667% {opacity: 1} 66.666667% {opacity: 1} 76.666667% {opacity: 0} 100% {opacity: 0}} #ejAuclCWLbt206_to {animation: ejAuclCWLbt206_to__to 3000ms linear infinite normal forwards}@keyframes ejAuclCWLbt206_to__to { 0% {transform: translate(57px,0px)} 100% {transform: translate(-250px,0px)}} #ejAuclCWLbt233 {animation: ejAuclCWLbt233_f_p 3000ms linear infinite normal forwards}@keyframes ejAuclCWLbt233_f_p { 0% {fill: #ffe3b0} 100% {fill: #ed3da1}} #ejAuclCWLbt235_ts {animation: ejAuclCWLbt235_ts__ts 3000ms linear infinite normal forwards}@keyframes ejAuclCWLbt235_ts__ts { 0% {transform: translate(101.333473px,131.666737px) scale(0,0)} 3.333333% {transform: translate(101.333473px,131.666737px) scale(1,1)} 26.666667% {transform: translate(101.333473px,131.666737px) scale(1,1)} 33.333333% {transform: translate(101.333473px,131.666737px) scale(0,0)} 100% {transform: translate(101.333473px,131.666737px) scale(0,0)}} #ejAuclCWLbt237 {animation: ejAuclCWLbt237_f_p 3000ms linear infinite normal forwards}@keyframes ejAuclCWLbt237_f_p { 0% {fill: #ffc0cb} 26.666667% {fill: #fff} 100% {fill: #fff}} #ejAuclCWLbt238_ts {animation: ejAuclCWLbt238_ts__ts 3000ms linear infinite normal forwards}@keyframes ejAuclCWLbt238_ts__ts { 0% {transform: translate(169.599998px,120.149998px) scale(1,1)} 50% {transform: translate(169.599998px,120.149998px) scale(0.014352,1)} 100% {transform: translate(169.599998px,120.149998px) scale(1,1)}} #ejAuclCWLbt240_ts {animation: ejAuclCWLbt240_ts__ts 3000ms linear infinite normal forwards}@keyframes ejAuclCWLbt240_ts__ts { 0% {transform: translate(169.600006px,132.449997px) scale(0,1)} 50% {transform: translate(169.600006px,132.449997px) scale(1,1)} 100% {transform: translate(169.600006px,132.449997px) scale(0,1)}} #ejAuclCWLbt242_ts {animation: ejAuclCWLbt242_ts__ts 3000ms linear infinite normal forwards}@keyframes ejAuclCWLbt242_ts__ts { 0% {transform: translate(169.600006px,144.75px) scale(1,1)} 50% {transform: translate(169.600006px,144.75px) scale(0,1)} 100% {transform: translate(169.600006px,144.75px) scale(1,1)}} #ejAuclCWLbt263_ts {animation: ejAuclCWLbt263_ts__ts 3000ms linear infinite normal forwards}@keyframes ejAuclCWLbt263_ts__ts { 0% {transform: translate(104.047288px,133.223071px) scale(0,0)} 33.333333% {transform: translate(104.047288px,133.223071px) scale(0,0)} 40% {transform: translate(104.047288px,133.223071px) scale(0.06,0.06)} 63.333333% {transform: translate(104.047288px,133.223071px) scale(0.06,0.06)} 66.666667% {transform: translate(104.047288px,133.223071px) scale(0,0)} 100% {transform: translate(104.047288px,133.223071px) scale(0,0)}} #ejAuclCWLbt266_ts {animation: ejAuclCWLbt266_ts__ts 3000ms linear infinite normal forwards}@keyframes ejAuclCWLbt266_ts__ts { 0% {transform: translate(104px,123px) scale(0,0)} 66.666667% {transform: translate(104px,123px) scale(0,0)} 73.333333% {transform: translate(104px,123px) scale(0.04,0.04)} 96.666667% {transform: translate(104px,123px) scale(0.04,0.04)} 100% {transform: translate(104px,123px) scale(0,0)}} #ejAuclCWLbt292_tr {animation: ejAuclCWLbt292_tr__tr 3000ms linear infinite normal forwards}@keyframes ejAuclCWLbt292_tr__tr { 0% {transform: translate(135.33781px,207.03926px) rotate(720deg);animation-timing-function: cubic-bezier(0.415,0.08,0.115,0.955)} 100% {transform: translate(135.33781px,207.03926px) rotate(439.480519deg)}} #ejAuclCWLbt293_tr {animation: ejAuclCWLbt293_tr__tr 3000ms linear infinite normal forwards}@keyframes ejAuclCWLbt293_tr__tr { 0% {transform: translate(11.12px,29.9px) rotate(-720deg);animation-timing-function: cubic-bezier(0.415,0.08,0.115,0.955)} 100% {transform: translate(11.12px,29.9px) rotate(-439.480519deg)}}
]]></style>
<defs><linearGradient id="ejAuclCWLbt286-fill" x1="0.5" y1="0" x2="0.5" y2="1" spreadMethod="pad" gradientUnits="objectBoundingBox" gradientTransform="translate(0 0)"><stop id="ejAuclCWLbt286-fill-0" offset="0%" stop-color="rgba(255,255,255,0)"/><stop id="ejAuclCWLbt286-fill-1" offset="100%" stop-color="#010022"/></linearGradient></defs><g id="ejAuclCWLbt2" transform="translate(-2.200003-10.899998)" opacity="0"><path d="M256,126.4l-.2-5.8-.7-5.7-1.1-5.4-1.6-5.2-1.9-5.2-2.3-4.9-2.7-4.7-3-4.4-3.4-4.3-3.6-3.9-4-3.6-4.2-3.4-4.5-3-4.7-2.6-4.9-2.3-5.1-2-5.3-1.5-5.4-1.1-5.7-.7-7.6-.2-3.3-5-3.6-4.7-4-4.3-4.4-4-4.8-3.6-5-3.2-5.2-2.8-5.6-2.3-5.8-1.9-5.9-1.3-6.2-.8-6.4-.3-5.9.2-5.6.7-5.4,1.1-5.3,1.5-5.2,2-4.9,2.3-4.7,2.6-4.4,3.1-4.3,3.3-3.9,3.6-3.6,4-3.4,4.2-3,4.5L61.6,60l-2.3,4.9-1.9,5.2-1.6,5.3-1.1,5.4-.7,5.6-.2,7.3-5.2,3.2-4.8,3.7-4.4,4-4.2,4.4-3.7,4.8-3.3,5-2.9,5.3-2.5,5.7-1.9,5.8-1.4,6.1-.8,6.2-.3,6.6.2,5.8.7,5.6l1.1,5.4l1.5,5.3l2,5.1l2.3,4.9l2.7,4.7l3,4.4l3.3,4.3l3.7,3.9l3.9,3.6l4.3,3.4l4.4,3l4.7,2.7l4.9,2.3l5.2,1.9l5.3,1.5l5.4,1.1l5.6.7l5.8.3l6.6-.3l4.5,4.9l5,4.5l5.4,4.1l8.7,5l4.7,2l9.9,3.1l5.1,1l10.7.8l5.4-.2l10.3-1.5l4.9-1.4l9.5-3.6l8.7-4.9l5.3-4l4.9-4.3l4.6-4.9l4-5.2l3.5-5.7l3-6l3.5-9.4l2-10.2L224,185l5.1-3.6l4.7-4l4.4-4.5l3.9-4.8l3.5-5.1l3.1-5.5l2.5-5.7l2.1-6.1l1.5-6.2.9-6.4.3-6.7Z" fill="#d6f0ff"/></g><g><g><path d="M256,126.4l-.2-5.8-.7-5.7-1.1-5.4-1.6-5.2-1.9-5.2-2.3-4.9-2.7-4.7-3-4.4-3.4-4.3-3.6-3.9-4-3.6-4.2-3.4-4.5-3-4.7-2.6-4.9-2.3-5.1-2-5.3-1.5-5.4-1.1-5.7-.7-7.6-.2-3.3-5-3.6-4.7-4-4.3-4.4-4-4.8-3.6-5-3.2-5.2-2.8-5.6-2.3-5.8-1.9-5.9-1.3-6.2-.8-6.4-.3-5.9.2-5.6.7-5.4,1.1-5.3,1.5-5.2,2-4.9,2.3-4.7,2.6-4.4,3.1-4.3,3.3-3.9,3.6-3.6,4-3.4,4.2-3,4.5L61.6,60l-2.3,4.9-1.9,5.2-1.6,5.3-1.1,5.4-.7,5.6-.2,7.3-5.2,3.2-4.8,3.7-4.4,4-4.2,4.4-3.7,4.8-3.3,5-2.9,5.3-2.5,5.7-1.9,5.8-1.4,6.1-.8,6.2-.3,6.6.2,5.8.7,5.6l1.1,5.4l1.5,5.3l2,5.1l2.3,4.9l2.7,4.7l3,4.4l3.3,4.3l3.7,3.9l3.9,3.6l4.3,3.4l4.4,3l4.7,2.7l4.9,2.3l5.2,1.9l5.3,1.5l5.4,1.1l5.6.7l5.8.3l6.6-.3l4.5,4.9l5,4.5l5.4,4.1l8.7,5l4.7,2l9.9,3.1l5.1,1l10.7.8l5.4-.2l10.3-1.5l4.9-1.4l9.5-3.6l8.7-4.9l5.3-4l4.9-4.3l4.6-4.9l4-5.2l3.5-5.7l3-6l3.5-9.4l2-10.2L224,185l5.1-3.6l4.7-4l4.4-4.5l3.9-4.8l3.5-5.1l3.1-5.5l2.5-5.7l2.1-6.1l1.5-6.2.9-6.4.3-6.7Z" fill="#d6f0ff" fill-opacity="0"/></g><g id="ejAuclCWLbt7" opacity="0"><path d="M243.3,95.1l-1.4-.2-2.4-1.5-4.1-7.9-3.7-6.3-4.2-5.9-4.7-5.6-5.1-5.1-5.5-4.8-5.9-4.3-6.2-3.9-6.6-3.4-5.7-2.4-5.8-2-6-1.7-6-1.2-6.2-.8-6.1-.4h-6.1l-6.2.4-2.6-.4-2-1.6-.6-1.1-.3-2.7.4-1.2l1.6-2l2.4-1l6.9-.4h6.8l6.8.4l6.8.9l6.7,1.4l6.6,1.8l6.5,2.3l6.4,2.7l5.5,2.7l10.3,6.5l4.8,3.6l6.1,5.3l5.7,5.7l5.2,6.2l6.8,10l3,5.3l3,6.8v1.3l-.9,2.4-2,1.6-2,.5Z" fill="#f59fb3" fill-opacity="0.48"/><path d="M244.6,130.7l-2.4-.7-1.8-1.7-.5-1.1-1.6-13-2.9-11.2-4.3-10.7-2.7-5-6.4-9.5-7.5-8.5-8.8-7.6-9.8-6.3-5.3-2.7-6.3-2.6-6.4-2.1-6.4-1.6-6.5-1-6.6-.6h-6.6l-6.4.5-6.5.9-6.4,1.5-6.2,1.9-6,2.4-5.9,3-5.7,3.3-5.4,3.8-5.2,4.3-6,5.6-1.1.5-2.6.1-2.3-1.3-.8-1-.7-2.5.5-2.4.8-1.1l5.5-5.4l5.8-4.8l6.1-4.2l6.3-3.7l6.6-3.3l6.8-2.7l6.9-2.2l7.1-1.6l7.3-1.1l7.2-.5h7.3l7.4.7l7.2,1.1l7.2,1.8l7.1,2.3l7.1,3l6,3l5.6,3.4l5.3,3.6l5,4.1l4.8,4.4l4.4,4.6l4,4.9l3.8,5.2l3.3,5.4l3,5.6l2.6,5.9l2.3,6l1.8,6.2l1.4,6.3l1,6.5.5,6.7-.1,1.3-1.2,2.3-2.1,1.3-1.6.3Z" fill="#ffff75" fill-opacity="0.48"/><path d="M236.3,144.1l-1.9-.4-1.1-.6-1.6-2-.3-1.2.4-7.6v-6.2l-.5-6-1-5.9-1.4-5.9-1.9-5.6-2.3-5.5-2.7-5.3-3.1-5.1-3.4-4.8-3.9-4.6-4.2-4.3-4.6-3.9-4.8-3.6-5.3-3.2-5.5-2.9-5.8-2.4-5.8-1.9-6-1.4-6-1-6.1-.4h-6l-6,.4-6.1,1-5.9,1.4-5.8,1.9-5.7,2.3-6.8,3.4-2.5-.1-2.2-1.2-.9-1.1-.6-2.5.7-2.5l1.8-1.8l6.3-3.2l6.4-2.7l6.6-2.1l6.7-1.6l6.8-1.1l6.8-.5h6.8l6.9.5l6.8,1.1l6.7,1.6l6.6,2.1l6.5,2.8l6.3,3.2l5.9,3.7l5.5,4l5.1,4.4l4.8,4.9l4.3,5.1l4,5.5l3.5,5.7l3,6l2.6,6.2l2.1,6.4l1.6,6.6l1.1,6.7.6,6.8v6.9l-.5,7.1-.3,1.2-1.4,1.9-2.1,1.1-1.2.2Z" fill="#afeb75" fill-opacity="0.48"/><path d="M224.1,107.4l-1.5-.2-1.3-.6-1.1-1-3.2-6.8-2.8-5.2-3.2-4.9-3.7-4.6-4-4.3-4.3-3.9-4.7-3.5-5-3.2-5.3-2.7-6-2.5-6-1.8-6.1-1.3-6.1-.7-6.2-.2-6.1.4-6,.9-6,1.4-5.8,1.9-5.6,2.4-5.4,2.9-5.2,3.4-4.8,3.8-4.5,4.3-4.1,4.7-4.7,6.3-1.1.7-2.5.5-2.4-.8-1.1-.9-1.1-2.3.1-2.5.6-1.2l3.7-5.2l4-4.7l4.4-4.5l4.7-4.1l5-3.7l5.4-3.3l5.5-2.9l5.8-2.4l6-2l6.3-1.6l6.2-1l6.3-.5h6.4l6.2.5l6.3,1l6.1,1.4l6.1,2l5.9,2.5l6.1,3.2l5.7,3.6l5.3,4l5,4.5l4.6,4.9l4.2,5.2l3.7,5.6l3.2,5.9l2.8,6.3.3,1.4-.1,1.2-1,2.3-2.1,1.6-1.8.3Z" fill="#75d5eb" fill-opacity="0.48"/></g><g><path d="M28.3,82.7h103.2v131.7h-103.2v-131.7Z" fill="#fff"/><g><g><path d="M28.3,82.7h138v134.2h-138v-134.2Z" fill="#fff" fill-opacity="0.33"/><path d="M166.3,218.4h-138l-1-.5-.5-1v-134.2l.2-.6.8-.8l138.5-.1l1,.4.5,1.1v134.2l-.5,1-1,.5Zm-136.5-3h135v-131.2h-135v131.2Z" fill="#6e6e96" fill-opacity="0.33"/></g><g><path d="M120.5,128.8h14.9v23h-14.9v-23Z" fill="#bddfff" fill-opacity="0.33"/><path d="M135.4,153.3h-14.9l-.6-.1-.8-.8-.1-23.6.1-.6.8-.8l15.5-.1.6.1.8.8.1,23.6-.5,1.1-1,.4Zm-13.4-3h11.9v-20h-11.9v20Z" fill="#6e6e96" fill-opacity="0.33"/></g><g><path d="M120.5,157.4h14.9v22.9h-14.9v-22.9Z" fill="#bddfff" fill-opacity="0.33"/><path d="M135.4,181.8h-14.9l-.6-.1-.8-.8-.1-23.5.1-.6.8-.8l15.5-.1.6.1.8.8.1,23.5-.5,1.1-1,.4Zm-13.4-3h11.9v-19.9h-11.9v19.9Z" fill="#6e6e96" fill-opacity="0.33"/></g><g><path d="M99.6,99.8h14.9v23.4h-14.9v-23.4Z" fill="#bddfff" fill-opacity="0.33"/><path d="M114.5,124.7h-14.9l-.6-.2-.8-.7-.1-24l.1-.6.8-.8l15.5-.1.5.1.8.8.2,24-.5,1-1,.5Zm-13.4-3h11.9v-20.4h-11.9v20.4Z" fill="#6e6e96" fill-opacity="0.33"/></g><g><path d="M99.6,128.8h14.9v23h-14.9v-23Z" fill="#bddfff" fill-opacity="0.33"/><path d="M114.5,153.3h-14.9l-.6-.1-.8-.8-.1-23.6.1-.6.8-.8l15.5-.1.5.1.8.8.2,23.6-.5,1.1-1,.4Zm-13.4-3h11.9v-20h-11.9v20Z" fill="#6e6e96" fill-opacity="0.33"/></g><g><path d="M141.5,128.8h17.4v23h-17.4v-23Z" fill="#bddfff" fill-opacity="0.33"/><path d="M158.9,153.3h-17.4l-.6-.1-.8-.8-.1-23.6.4-1.1l1.1-.4h17.4l.6.1.8.8.1,23.6-.4,1.1-1.1.4Zm-15.9-3h14.4v-20h-14.4v20Z" fill="#6e6e96" fill-opacity="0.33"/></g><g><path d="M120.5,99.8h14.9v23.4h-14.9v-23.4Z" fill="#bddfff" fill-opacity="0.33"/><path d="M135.4,124.7h-14.9l-.6-.2-.8-.7-.1-24l.1-.6.8-.8l15.5-.1.6.1.8.8.1,24-.5,1-1,.5Zm-13.4-3h11.9v-20.4h-11.9v20.4Z" fill="#6e6e96" fill-opacity="0.33"/></g><g><path d="M99.6,157.4h14.9v22.9h-14.9v-22.9Z" fill="#bddfff" fill-opacity="0.33"/><path d="M114.5,181.8h-14.9l-.6-.1-.8-.8-.1-23.5.1-.6.8-.8l15.5-.1.5.1.8.8.2,23.5-.5,1.1-1,.4Zm-13.4-3h11.9v-19.9h-11.9v19.9Z" fill="#6e6e96" fill-opacity="0.33"/></g><g><path d="M141.5,99.8h17.4v23.4h-17.4v-23.4Z" fill="#bddfff" fill-opacity="0.33"/><path d="M158.9,124.7h-17.4l-.6-.2-.8-.7-.1-24l.4-1.1l1.1-.4h17.4l.6.1.8.8.1,24-.4,1-1.1.5Zm-15.9-3h14.4v-20.4h-14.4v20.4Z" fill="#6e6e96" fill-opacity="0.33"/></g><g><path d="M141.5,157.4h17.4v22.9h-17.4v-22.9Z" fill="#bddfff" fill-opacity="0.33"/><path d="M158.9,181.8h-17.4l-.6-.1-.8-.8-.1-23.5.4-1l1.1-.5h17.4l.6.1.8.8.1,23.5-.4,1.1-1.1.4Zm-15.9-3h14.4v-19.9h-14.4v19.9Z" fill="#6e6e96" fill-opacity="0.33"/></g><g><path d="M35.6,128.8h16.1v23h-16.1v-23Z" fill="#bddfff" fill-opacity="0.33"/><path d="M51.7,153.3h-16.1l-.6-.1-.8-.8-.1-23.6.1-.6.8-.8l16.7-.1.5.1.8.8.2,23.6-.5,1.1-1,.4Zm-14.6-3h13.1v-20h-13.1v20Z" fill="#6e6e96" fill-opacity="0.33"/></g><g><path d="M35.6,99.8h16.1v23.4h-16.1v-23.4Z" fill="#bddfff" fill-opacity="0.33"/><path d="M51.7,124.7h-16.1l-.6-.2-.8-.7-.1-24l.1-.6.8-.8l16.7-.1.5.1.8.8.2,24-.5,1-1,.5Zm-14.6-3h13.1v-20.4h-13.1v20.4Z" fill="#6e6e96" fill-opacity="0.33"/></g><g><path d="M35.6,157.4h16.1v22.9h-16.1v-22.9Z" fill="#bddfff" fill-opacity="0.33"/><path d="M51.7,181.8h-16.1l-.6-.1-.8-.8-.1-23.5.1-.6.8-.8l16.7-.1.5.1.8.8.2,23.5-.5,1.1-1,.4Zm-14.6-3h13.1v-19.9h-13.1v19.9Z" fill="#6e6e96" fill-opacity="0.33"/></g><g><path d="M57.7,157.4h14.9v22.9h-14.9v-22.9Z" fill="#bddfff" fill-opacity="0.33"/><path d="M72.6,181.8h-14.9l-.6-.1-.8-.8-.1-23.5.5-1l1-.5h14.9l.6.1.8.8.1,23.5-.5,1.1-1,.4Zm-13.4-3h11.9v-19.9h-11.9v19.9Z" fill="#6e6e96" fill-opacity="0.33"/></g><g><path d="M57.7,128.8h14.9v23h-14.9v-23Z" fill="#bddfff" fill-opacity="0.33"/><path d="M72.6,153.3h-14.9l-.6-.1-.8-.8-.1-23.6.5-1.1l1-.4h14.9l.6.1.8.8.1,23.6-.5,1.1-1,.4Zm-13.4-3h11.9v-20h-11.9v20Z" fill="#6e6e96" fill-opacity="0.33"/></g><g><path d="M78.7,157.4h14.8v22.9h-14.8v-22.9Z" fill="#bddfff" fill-opacity="0.33"/><path d="M93.5,181.8h-14.8l-.6-.1-.8-.8-.1-23.5.1-.6.8-.8l15.4-.1.6.1.8.8.1,23.5-.4,1.1-1.1.4Zm-13.3-3h11.8v-19.9h-11.8v19.9Z" fill="#6e6e96" fill-opacity="0.33"/></g><g><path d="M78.7,99.8h14.8v23.4h-14.8v-23.4Z" fill="#bddfff" fill-opacity="0.33"/><path d="M93.5,124.7h-14.8l-.6-.2-.8-.7-.1-24l.1-.6.8-.8l15.4-.1.6.1.8.8.1,24-.4,1-1.1.5Zm-13.3-3h11.8v-20.4h-11.8v20.4Z" fill="#6e6e96" fill-opacity="0.33"/></g><g><path d="M78.7,128.8h14.8v23h-14.8v-23Z" fill="#bddfff" fill-opacity="0.33"/><path d="M93.5,153.3h-14.8l-.6-.1-.8-.8-.1-23.6.1-.6.8-.8l15.4-.1.6.1.8.8.1,23.6-.4,1.1-1.1.4Zm-13.3-3h11.8v-20h-11.8v20Z" fill="#6e6e96" fill-opacity="0.33"/></g><g><path d="M57.7,99.8h14.9v23.4h-14.9v-23.4Z" fill="#bddfff" fill-opacity="0.33"/><path d="M72.6,124.7h-14.9l-.6-.2-.8-.7-.1-24l.1-.6.8-.8l15.5-.1.6.1.8.8.1,24-.5,1-1,.5Zm-13.4-3h11.9v-20.4h-11.9v20.4Z" fill="#6e6e96" fill-opacity="0.33"/></g><g><path d="M24.6,82.7h145.4v6.7h-145.4v-6.7Z" fill="#d5b697" fill-opacity="0.33"/><path d="M170,90.9h-145.4l-1-.5-.5-1v-6.7l.1-.6.8-.8l146-.1l1.1.4.4,1.1v6.7l-.4,1-1.1.5Zm-143.9-3h142.4v-3.7h-142.4v3.7Z" fill="#6e6e96" fill-opacity="0.33"/></g><g><path d="M120.5,186.3h14.9v22.9h-14.9v-22.9Z" fill="#bddfff" fill-opacity="0.33"/><path d="M135.4,210.7h-14.9l-.6-.1-.8-.8-.1-23.5.1-.6.8-.8l15.5-.1.6.1.8.8.1,23.5-.5,1.1-1,.4Zm-13.4-3h11.9v-19.9h-11.9v19.9Z" fill="#6e6e96" fill-opacity="0.33"/></g><g><path d="M141.5,186.3h17.4v22.9h-17.4v-22.9Z" fill="#bddfff" fill-opacity="0.33"/><path d="M158.9,210.7h-17.4l-.6-.1-.8-.8-.1-23.5.4-1.1l1.1-.4h17.4l.6.1.8.8.1,23.5-.4,1.1-1.1.4Zm-15.9-3h14.4v-19.9h-14.4v19.9Z" fill="#6e6e96" fill-opacity="0.33"/></g><g><path d="M35.6,186.3h16.1v22.9h-16.1v-22.9Z" fill="#bddfff" fill-opacity="0.33"/><path d="M51.7,210.7h-16.1l-.6-.1-.8-.8-.1-23.5.1-.6.8-.8l16.7-.1.5.1.8.8.2,23.5-.5,1.1-1,.4Zm-14.6-3h13.1v-19.9h-13.1v19.9Z" fill="#6e6e96" fill-opacity="0.33"/></g><g><path d="M57.7,186.3h14.9v22.9h-14.9v-22.9Z" fill="#bddfff" fill-opacity="0.33"/><path d="M72.6,210.7h-14.9l-.6-.1-.8-.8-.1-23.5.5-1.1l1-.4h14.9l.6.1.8.8.1,23.5-.5,1.1-1,.4Zm-13.4-3h11.9v-19.9h-11.9v19.9Z" fill="#6e6e96" fill-opacity="0.33"/></g><g><path d="M78.7,186.3h35.8v30.6h-35.8v-30.6Z" fill="#e4bc96" fill-opacity="0.33"/><path d="M114.5,218.4h-35.8l-1.1-.5-.4-1v-30.6l.1-.6.8-.8l36.4-.1l1.1.4.4,1.1v30.6l-.4,1-1.1.5Zm-34.3-3h32.8v-27.6h-32.8v27.6Z" fill="#6e6e96" fill-opacity="0.33"/></g><path d="M96.4,218.4l-1.1-.5-.4-1v-30.6l.1-.6.8-.8h1.2l.8.8.1.6v30.6l-.5,1-1,.5Z" fill="#6e6e96" fill-opacity="0.33"/></g><path d="M88.3,66.6l-21-.2L66,65.1l-.2-1l.2-1l1.3-1.3h22l1.3,1.3v2l-1.3,1.3-1,.2Z" fill="#fff"/></g><g><g><path d="M124.3,21.3h63.6v9.6h-63.6v-9.6Z" fill="#ebebf7"/><path d="M187.9,32.4h-63.6l-1.1-.5-.4-1v-9.6l.1-.6.8-.8l64.2-.1l1.1.4.4,1.1v9.6l-.4,1-1.1.5Zm-62.1-3h60.6v-6.6h-60.6v6.6Z" fill="#ccccde"/></g><g><path d="M105.9,30.7h100.1v169.6h-100.1v-169.6Z" fill="#fff"/><path d="M206,201.8h-100.1l-.6-.1-.8-.8-.1-170.2.1-.6.8-.8L206,29.2l.6.1.8.8.1,170.2-.4,1.1-1.1.4Zm-98.6-3h97.1v-166.6h-97.1v166.6Z" fill="#ccccde"/></g><g><path d="M114.5,39.2h83.5v161.1h-83.5v-161.1Z" fill="#cfe7ff"/><path d="M198,201.8h-83.5l-.6-.1-.8-.8L113,39.2l.1-.6.8-.8l84.1-.1.6.1.8.8.1,161.7-.5,1.1-1,.4Zm-82-3h80.5v-158.1h-80.5v158.1Z" fill="#ccccde"/></g><g><path d="M115.5,123l78.4-82.8-56.8.2-21.6,23.4v59.2Z" fill="#fff" fill-opacity="0.49"/></g><g><path d="M197.3,62.4l-82.4,87l22.6.7L197.3,87v-24.6Z" fill="#fff" fill-opacity="0.27"/></g><g><path d="M114.5,149.5h83.5v50.8h-83.5v-50.8Z" fill="#cfe7ff"/><path d="M198,201.8l-84.1-.1-.8-.8-.1-.6v-50.8l.1-.6.8-.8h84.7l.8.8.1.6v50.8l-.5,1.1-1,.4Zm-82-3h80.5v-47.8h-80.5v47.8Z" fill="#ccccde"/></g><g><g><path d="M136.4,161.9l-20.7,21.3v12.9l20.7-21.2v-13Z" fill="#fff" fill-opacity="0.1813"/></g><path d="M115.6,173.3l11.1-11.4h-11.1" fill="#fff" fill-opacity="0.1813"/></g><g><g><path d="M166.3,161.9l-20.1,21.3v12.9l20.1-21.2v-13Z" fill="#fff" fill-opacity="0.1813"/></g><path d="M146.8,173.3l10.8-11.4h-10.8" fill="#fff" fill-opacity="0.1813"/></g><g><g><path d="M196.9,161.9l-22.4,21.3v12.9l22.4-21.2v-13Z" fill="#fff" fill-opacity="0.1813"/></g><path d="M175.3,173.3l12-11.4h-12" fill="#fff" fill-opacity="0.1813"/></g><path d="M123.6,39.2h3v110.3h-3v-110.3Z" fill="#ccccde"/><path d="M134.3,39.2h3v110.3h-3v-110.3Z" fill="#ccccde"/><path d="M144.7,39.2h3v110.3h-3v-110.3Z" fill="#ccccde"/><path d="M155.6,39.2h3v110.3h-3v-110.3Z" fill="#ccccde"/><path d="M166,39.2h3v110.3h-3v-110.3Z" fill="#ccccde"/><path d="M176.1,39.2h3v110.3h-3v-110.3Z" fill="#ccccde"/><path d="M186.2,39.2h3v110.3h-3v-110.3Z" fill="#ccccde"/><path d="M198,63.9h-83.5l-.6-.1-.8-.8v-1.2l.8-.7l84.1-.2l1,.5.5,1-.5,1.1-1,.4Z" fill="#ccccde"/><path d="M198,86.4h-83.5l-.6-.1-.8-.8v-1.2l.8-.7l84.1-.2l1,.5.5,1L199,86l-1,.4Z" fill="#ccccde"/><path d="M198,107.8h-83.5l-.6-.1-.8-.8v-1.2l.8-.8l84.1-.1l1,.5.5,1-.5,1.1-1,.4Z" fill="#ccccde"/><path d="M114.5,126.2h83.5v3h-83.5v-3Z" fill="#ccccde"/><g><path d="M137.6,157.6h8.6v42.7h-8.6v-42.7Z" fill="#f0f0ff"/><path d="M146.2,201.8h-8.6l-1-.4-.5-1.1v-42.6l.2-.6.7-.8l9.2-.1l1,.4.5,1.1v42.6l-.5,1.1-1,.4Zm-7.1-3h5.6v-39.6h-5.6v39.6Z" fill="#ccccde"/></g><g><path d="M166,155.7h8v44.6h-8v-44.6Z" fill="#f0f0ff"/><path d="M174,201.8h-8l-1.1-.4-.4-1.1v-44.6l.1-.6.8-.8l8.6-.1l1.1.4.4,1.1v44.6l-.4,1.1-1.1.4Zm-6.5-3h5v-41.6h-5v41.6Z" fill="#ccccde"/></g><g><path d="M114.5,149.5h83.5v12.4h-83.5v-12.4Z" fill="#f0f0ff"/><path d="M198,163.4h-83.5l-1.1-.4-.4-1.1v-12.4l.4-1.1l1.1-.4h83.5l1,.4.5,1.1v12.4L199,163l-1,.4Zm-82-3h80.5v-9.4h-80.5v9.4Z" fill="#ccccde"/></g><g><path d="M142.1,13.8h28v7.5h-28v-7.5Z" fill="#ebebf7"/><path d="M170.1,22.8l-28.6-.1-.8-.8-.1-.6v-7.5l.1-.6.8-.8h29.2l.8.8.1.6v7.5l-.4,1.1-1.1.4Zm-26.5-3h25v-4.5h-25v4.5Z" fill="#ccccde"/></g><path d="M156.1,15.3l-1.1-.5-.4-1v-12.3l.1-.6.8-.8h1.2l.8.8.1.6v12.3l-.4,1-1.1.5Z" fill="#ccccde"/><g><path d="M102.3,196h108.9v8.8h-108.9v-8.8Z" fill="#f0f0ff"/><path d="M211.2,206.3h-108.9l-1-.5-.5-1v-8.8l.1-.5.8-.8l109.5-.2l1,.5.5,1v8.8l-.5,1-1,.5Zm-107.4-3h105.9v-5.8h-105.9v5.8Z" fill="#ccccde"/></g></g><g><g><path d="M246.6,216.5h-84.5v-72.2l42.2-27.1l42.3,27.1v72.2Z" fill="#fff"/><path d="M248.1,218h-87.5v-74.6l43.7-28l43.8,28.1v74.5Zm-84.5-3h81.5v-69.9L204.3,119l-40.7,26.1v69.9Z" fill="#ccccde"/></g><g><path d="M204.3,112.6l-49.7,30.2v5h7.5l42.2-26.1l42.2,26.5l6.5.1v-5.5l-48.7-30.2Z" fill="#e0e6fc"/><path d="M253,149.8l-7.3-.4-41.4-25.9-41.5,25.6-.7.2h-7.5l-1-.4-.5-1.1v-5l.7-1.2l49.7-30.3.8-.2.8.2l48.7,30.3.7,1.2v5.5l-.4,1-1.1.5Zm-6.1-3.1h4.6v-3l-47.2-29.3-48.2,29.3v2.6h5.5l41.9-25.9.8-.2.8.2l41.8,26.3Z" fill="#ccccde"/></g><g><path d="M170,180.3h28.7v19h-28.7v-19Z" fill="#d4eaff"/><path d="M198.7,200.8h-28.7l-1-.5-.5-1v-19l.5-1l1-.5h28.7l1.1.5.4,1v19l-.4,1-1.1.5Zm-27.2-3h25.7v-16h-25.7v16Z" fill="#ccccde"/></g><g><path d="M162.1,205h84.5v11.5h-84.5v-11.5Z" fill="#fcebe3"/><path d="M246.6,218h-84.5l-1.1-.4-.4-1.1v-11.5l.4-1l1.1-.5h84.5l1.1.5.4,1v11.5l-.4,1.1-1.1.4Zm-83-3h81.5v-8.5h-81.5v8.5Z" fill="#ccccde"/></g><g><path d="M199.9,216.5l-.7-3.3-2-2.3-1.3-.6-1.5-.3-2.6.8-1.1.9-.6-2.1-1-1.8-1.2-1.4-1.5-1.2-1.7-.7-1.9-.3-1.7.3-3,1.5-1.5-1.8-1.7-1.4-2-.9-2.3-.3-2,.3-1.8.7-1.7,1.2-1.4,1.6-1.1,1.8-.8,2.1-1.2-.1-1.6.2-1.4.7-1.2,1.1-1,1.4-.5,1.6-.3,2.3h45.3Z" fill="#cce8d6"/><path d="M154.6,218l-1-.4-.5-1.5.3-2.3.8-2l1.2-1.8l1.5-1.3l1.8-.8l2.1-.2l1-2.2l1.3-1.8l1.6-1.5l1.8-1.1l2-.7l2.1-.3l2.2.3l2.1.7l1.9,1.2l1.6,1.6l2.1-.9l2.3-.3l3.6.8l3,2.3l2.1,3.4l2.9-.7l1.9.3l1.6.8l1.5,1.2l1.1,1.7.7,1.8.2,2.2-.4,1.1-1.1.4h-45.3Zm5.9-7.3l-1.5.3-1.3.9-.9,1.4-.6,1.7h42.1l-.6-1.4-.9-1.1-1.1-.7-1.3-.3-1.4.3-2,1.3h-.8l-.6-.4-1.7-4-2.3-2.2-1.3-.5-2.8-.1-3,1.6h-.7l-.6-.2-1.7-2.1-1.4-1.1-1.7-.7-1.8-.3-1.6.3-1.5.6-1.4,1-2.1,2.8-1,2.4-1,.6-1.5-.1Z" fill="#ccccde"/></g><g><path d="M211.5,180.3h22.1v36.2h-22.1v-36.2Z" fill="#ffdede"/><path d="M233.6,218h-22.1l-.6-.1-.8-.8-.1-36.8.1-.5.8-.8l22.7-.2.6.2.7.8.2,36.7-.5,1.1-1,.4ZM213,215h19.1v-33.2h-19.1v33.2Z" fill="#ccccde"/></g><path d="M246.6,175.1h-84.5l-.6-.1-.8-.8v-1.2l.8-.8l85.1-.1l1.1.4.4,1.1-.4,1.1-1.1.4Z" fill="#ccccde"/><g><g><path d="M170,149.1h15.5v17.6h-15.5v-17.6Z" fill="#d4eaff"/><path d="M185.5,168.2h-15.5l-1-.4-.5-1.1v-17.6l.5-1.1l1-.4h15.5l1,.4.5,1.1v17.6l-.5,1.1-1,.4Zm-14-3h12.5v-14.6h-12.5v14.6Z" fill="#ccccde"/></g><path d="M185.5,159.4h-15.5l-.6-.1-.7-.8v-1.2l.7-.8l16.1-.1l1,.4.5,1.1-.5,1.1-1,.4Z" fill="#ccccde"/></g><g><g><path d="M222.9,149.1h15.4v17.6h-15.4v-17.6Z" fill="#d4eaff"/><path d="M238.3,168.2h-15.4l-1.1-.4-.4-1.1v-17.6l.4-1.1l1.1-.4h15.4l1.1.4.4,1.1v17.6l-.4,1.1-1.1.4Zm-13.9-3h12.4v-14.6h-12.4v14.6Z" fill="#ccccde"/></g><path d="M238.3,159.4h-15.4l-.6-.1-.8-.8v-1.2l.8-.8l16-.1l1.1.4.4,1.1-.4,1.1-1.1.4Z" fill="#ccccde"/></g><g><g><path d="M196.5,149.1h15.5v17.6h-15.5v-17.6Z" fill="#d4eaff"/><path d="M212,168.2h-15.5l-1-.4-.5-1.1v-17.6l.5-1.1l1-.4h15.5l1,.4.5,1.1v17.6l-.5,1.1-1,.4Zm-14-3h12.5v-14.6h-12.5v14.6Z" fill="#ccccde"/></g><path d="M212,159.4h-15.5l-1-.4-.5-1.1.5-1.1l1-.4h15.5l1,.4.5,1.1-.5,1.1-1,.4Z" fill="#ccccde"/></g><path d="M184.4,200.8l-1-.5-.5-1v-19l.1-.5.8-.8h1.2l.8.8.1.5v19l-.4,1-1.1.5Z" fill="#ccccde"/><g><path d="M208.5,212.4h28.1v4.1h-28.1v-4.1Z" fill="#f0f0ff"/><path d="M236.6,218l-28.7-.1-.7-.8-.2-.6v-4.1l.2-.6.7-.8h29.2l.8.8.2.6v4.1l-.5,1.1-1,.4ZM210,215h25.1v-1.1h-25.1v1.1Z" fill="#ccccde"/></g><path d="M215.2,200.1l-1.1-.4-.4-1.1v-4.6l.1-.6.8-.8h1.2l.8.8.1.6-.1,5.2-.8.8-.6.1Z" fill="#ccccde"/></g><g><g><path d="M57.2,175.4l-.2-2.7-.8-2.5-1.2-2.4-1.6-2.1-1.9-1.8-2.3-1.5-2.5-1.1-2.7-.7-3.3-.2-1.6-2.1-2-1.8-2.2-1.5-2.5-1.1-2.7-.7-3-.2-2.9.2-2.7.7-2.5,1.1-2.3,1.5-1.9,1.8-1.6,2.1-1.2,2.4-.8,2.5-.2,3.1-2.4,1.5-1.9,1.8-1.7,2.1-1.2,2.4-.7,2.5-.3,2.8.3,2.7.7,2.5l1.2,2.4l1.6,2.1L8.1,193l2.3,1.5l2.5,1.1l2.7.7l4.5.2l3.4,2.9l4.2,1.9l4.9.7l2.7-.3l2.5-.5l2.4-1l4-2.9l2.9-3.9l1-2.2.5-2.4l2.5-1.5l2-1.8l1.8-2.2l1.2-2.4.8-2.6.3-2.9Z" fill="#d7f7e4"/><path d="M32.6,203.5l-2.5-.2-4.7-1.3-2.2-1-3.7-3-3.4-.1-3.1-.7-2.9-1.2-2.6-1.6-2.2-2-1.9-2.3-1.3-2.7-.9-2.8-.3-3.1.3-2.8.7-2.7l1.2-2.5l1.6-2.3l2-2l2.4-1.7.4-2.9.8-2.7l1.4-2.5l1.7-2.2l2.1-1.9l2.5-1.6l2.7-1.2l2.9-.7l3.1-.3l3,.2l2.7.7l2.7,1.1l2.4,1.4l2.1,1.8l1.8,2.2l3.2.3l2.9.8l2.7,1.2l2.4,1.7l2.1,2l1.7,2.3l1.3,2.5.8,2.7.2,3-.2,3-.8,2.7-1.3,2.6-1.7,2.3-2.2,2-2.5,1.7-.7,2.6-1.1,2.3-1.5,2.2-3.8,3.5-2.3,1.4-2.5.9-2.7.6-2.8.3Zm-11.9-8.6l3.7,3.3l3.9,1.7l4.3.6l2.4-.2l4.4-1.4l2-1.2l3.2-3l2-3.9.6-3l3-1.8l1.9-1.6l1.5-2l1.2-2.2.7-2.3.2-2.5-.2-2.4-.7-2.3-1.1-2.1-1.4-1.9-1.8-1.6-2-1.4-2.3-1-2.5-.6-3.9-.2-1.9-2.7-1.8-1.6-2.1-1.3-2.3-1-2.4-.6-2.6-.2-2.6.2-2.5.6-2.3,1-2,1.4-1.8,1.6-1.4,1.9-1.1,2.1-.7,2.3-.2,3.7-3,1.8-1.8,1.7-1.4,1.9-1.1,2.1-.7,2.3-.2,2.4.2,2.4.7,2.3l1.1,2.1l1.4,1.9l1.8,1.6l2.1,1.4l2.2,1l2.5.6l4.8.1Z" fill="#ccccde"/></g><g><path d="M40.8,159.8h-.4l-2.7-3.2-1.7-1.3-3.9-1.9-2.2-.6l2.5.9l2.3,1.3l1.9,1.7l3.5,4.8l2.9.2l2.3.6l1.8.9l1.5,1.2l1.1,1.6.9,1.8.5,2.2v5.2l-.5,2-.8,1.7-1.1,1.5-1.6,1.4L45,183l-.4,2.1-1.9,3.7-3,2.9-1.9,1.2-4.2,1.3-2.3.2-4.2-.6-1.9-.7-2.5-1.5-2.1-1.9-3.9-.1-2.3-.4-4-1.6-3-2.7-1-1.7-.6-1.9-.2-2.3.2-2.4.5-1.8.8-1.6L9,171.1l2.6-2.2v-5l.4-1.6l5.9-6.9l2.8-1.9-2.9,1.3-2.5,1.8-2.1,2.3-1.6,2.6-.7,1.9-.6,4.4L8,169.3l-2,1.8-1.6,2.2-1.2,2.3-.8,2.6-.3,2.7.3,2.8.7,2.5l1.2,2.3l1.6,2.1l2,1.8l2.2,1.6l2.5,1.1l2.7.7l4.5.1l3.4,2.9l2.1,1.1l4.5,1.3l2.5.2l2.7-.2l2.6-.6l2.3-.9l4.1-2.9l2.9-3.9.9-2.3.5-2.4l2.5-1.5l2.1-1.8l1.7-2.1l1.3-2.4.8-2.7.3-2.8-.3-2.8-.7-2.5-1.2-2.3-1.6-2.1-2-1.8-2.2-1.5-2.5-1.1-2.7-.7-3-.3Z" fill="#6e6e96" fill-opacity="0.1"/></g><g><path d="M17.8,183.6l2.5.9l1.7.9l1.5,1.3l1.3,1.7l1.2,3l.4,4.3-.2,5.9-.6,3.6-1.2,4.1-2.7,5.3-2,2.6h20.1l-2.4-3.9-2.9-6-1.1-3.7-.8-3.9-.1-4.1.3-2.7.7-2.7l1.2-2.8l1.6-2.5l2.3-2.5l3-2.5-6,2.6-6.9,1.5-6.7.2-4.2-.6Z" fill="#ede3da"/><path d="M39.8,218.7h-23.4l4-4.9l2.5-5l1.2-3.8.8-6.7-.5-6.9-.5-1.5-2.2-2.8-1.5-1-2.8-1.1.7-2.9l6.5.7l3.2-.2l7-1.4l6-2.6l1.7,2.5-2.7,2.2-2.1,2.3-1.7,2.5-1.1,2.7-.7,2.8-.2,2.8.5,5.3l1,3.8l1.3,3.4l2.8,5.2l3.2,4.6h-3Zm-17-3h14.2L34,210l-1.4-3.6-1.5-7.2.1-6L32,190l1.2-2.9l1.7-2.8-5.5,1.2-4.7.3l2.1,3.1.6,1.9.5,5.2-.2,5.4-1.4,7-1.4,3.6-2.1,3.7Z" fill="#ccccde"/></g><path d="M36.6,183.5l-2.4,3.9-2.7,6.4-1.5,7l.2,6.3.6,3.2l1.1,3.3l1.7,3.6h6.2l-3.9-7.4-1.3-3.5-1.5-7.1.1-6.2.6-3.1l1.1-3.1l1.7-3.3Z" fill="#6e6e96" fill-opacity="0.11"/></g><path d="M0,215.5h256v27h-256v-27Z" fill="#f0f0ff"/><path d="M0,214h256v3h-256v-3Z" fill="#ccccde"/><path d="M0,241h256v3h-256v-3Z" fill="#ccccde"/><path d="M0,227.5h10.5v3h-10.5v-3Z" fill="#ccccde"/><path d="M25.5,227.5h13v3h-13v-3Z" fill="#ccccde"/><path d="M118,227.5h10.5v3h-10.5v-3Z" fill="#ccccde"/><path d="M142.5,227.5h13.5v3h-13.5v-3Z" fill="#ccccde"/><path d="M185.2,228h9.8v3h-9.8v-3Z" fill="#ccccde"/><g id="ejAuclCWLbt206_to" transform="translate(57,0)"><g transform="translate(0,0)"><g><path d="M240.3,207.6l-.1,1.4-.5,1.1-1.1.8-1.3.3h-25.1l-1.4-.3-1-.8-.5-1.1v-1.4l2.2-11.2.5-1.4l1-1.1l1.3-.8l1.5-.3h18.6l1.4.3l1.3.8.9,1.1.6,1.4l1.7,11.2Z" fill="#e0f8ff"/><path d="M237.3,212.7h-25.1l-1.4-.2-2.1-1.4-1-2.4.1-1.4l2.2-11.2l1.1-2.4l2.1-1.7l1.3-.5l19.9-.2l1.3.2l2.4,1.2l1.5,2.2.4,1.3l1.8,12.5-1,2.4-2.2,1.4-1.3.2Zm-21.5-18.4l-1.8.7-1,1.7-2.3,11.2.3,1.3l1.2.5h25.1l.7-.2.8-.9-1.7-12-1-1.6-1.7-.7h-18.6Z" fill="#ccccde"/></g><g><path d="M246.9,220.6l-.3,1.4-.7,1.1-1.2.8-1.4.3h-39.8l-1.4-.3-1.2-.8-.7-1.1-.3-1.4v-8l.3-1.4.7-1.1l1.2-.8l1.4-.3h39.8l1.4.3l1.2.8.7,1.1.3,1.4v8Z" fill="#fff2c4"/><path d="M243.3,225.7h-39.8l-2.6-.7-1.8-1.8-.5-1.2v-10.8l.5-1.2l1.8-1.8l2.6-.7h39.8l2.6.7l1.8,1.8.5,1.2v10.8l-.5,1.2-1.8,1.8-2.6.7Zm-39.8-15.2l-1.5.6-.6,1.5.2,8.8l1.1,1.1.8.2h39.8l1.5-.6.6-1.5v-8l-.2-.8-1.1-1.1-40.6-.2Z" fill="#ccccde"/></g><g><path d="M218.1,222.5l-.2,1.8-.7,1.5-1,1.4-1.4,1.1-1.6.6-1.8.3-1.8-.3-1.6-.6-1.3-1.1-1.1-1.4-.6-1.5-.3-1.8.3-1.9.6-1.5l1.1-1.4l1.3-1l1.6-.7l1.8-.3l1.8.3l1.6.7l1.4,1l1,1.4.7,1.5.2,1.9Z" fill="#e7e7fc"/><path d="M211.4,230.7l-2.2-.3-1.9-.9-1.7-1.2-1.3-1.7-.8-1.9-.3-2.2.3-2.2.8-2l1.3-1.6l1.7-1.3l1.9-.9l2.2-.3l2.2.3l2,.9l1.6,1.3l1.3,1.6.8,2l.3,2.2-.3,2.2-.8,1.9-1.3,1.7-1.6,1.2-2,.9-2.2.3Zm0-13.5l-1.4.2-2.3,1.4-1.3,2.2-.2,1.5.7,2.6l1.9,1.9l1.2.5l1.4.2l2.6-.7l1.9-1.9.7-2.6-.2-1.5-1.3-2.2-2.3-1.4-1.4-.2Z" fill="#ccccde"/></g><g><path d="M241.9,222.5l-.3,1.8-.7,1.5-1,1.4-1.4,1.1-1.5.6-1.9.3-1.8-.3-1.5-.6-1.4-1.1-1.1-1.4-.6-1.5-.3-1.8.3-1.9.6-1.5l1.1-1.4l1.4-1l1.5-.7l1.8-.3l1.9.3l1.5.7l1.4,1l1,1.4.7,1.5.3,1.9Z" fill="#e7e7fc"/><path d="M235.1,230.7l-2.2-.3-1.9-.9-1.7-1.2-1.2-1.7-.9-1.9-.3-2.2.3-2.2.9-2l1.2-1.6l1.7-1.3l1.9-.9l2.2-.3l2.2.3l2,.9l1.6,1.3l1.3,1.6.9,2l.3,2.2-.3,2.2-.9,1.9-1.3,1.7-1.6,1.2-2,.9-2.2.3Zm0-13.5l-1.4.2-2.2,1.4-1.4,2.2-.2,1.5.7,2.6l1.9,1.9l1.2.5l1.4.2l2.7-.7l1.8-1.9.8-2.6-.2-1.5-1.4-2.2-2.2-1.4-1.5-.2Z" fill="#ccccde"/></g><path d="M223.5,192.8h3v16.2h-3v-16.2Z" fill="#ccccde"/></g></g><path d="M53,227.5h13v3h-13v-3Z" fill="#ccccde"/><path d="M78.5,227.5h13v3h-13v-3Z" fill="#ccccde"/><g><g><path d="M157.8,185.9h16.4v62.1h-16.4v-62.1Z" fill="#ddddeb"/><path d="M175.7,249.5h-19.4v-65.1h19.4v65.1Zm-16.4-3h13.4v-59.1h-13.4v59.1Z" fill="#6e6e96"/></g><g><path d="M92.4,185.9h16.4v62.1h-16.4v-62.1Z" fill="#ddddeb"/><path d="M110.3,249.5h-19.4v-65.1h19.4v65.1Zm-16.4-3h13.4v-59.1h-13.4v59.1Z" fill="#6e6e96"/></g><g><path d="M54,81.3h157.5v105h-157.5v-105Z" fill="#fff"/><path d="M211.5,187.8h-157.5l-1-.4-.5-1.1v-105l.1-.5.8-.8l158.1-.2l1.1.5.4,1v105l-.4,1.1-1.1.4Zm-156-3h154.5v-102h-154.5v102Z" fill="#6e6e96"/></g><g><path id="ejAuclCWLbt233" d="M60.8,88.3h144v90.8h-144v-90.8Z" fill="#ffe3b0"/><path d="M204.8,180.6l-144.6-.1-.8-.8-.1-.6v-90.8l.1-.6.8-.8h145.2l.8.8.1.6v90.8l-.4,1.1-1.1.4Zm-142.5-3h141v-87.8h-141v87.8Z" fill="#6e6e96"/></g><g id="ejAuclCWLbt235_ts" transform="translate(101.333473,131.666737) scale(0,0)"><g transform="translate(-101.333473,-131.666737)"><path d="M78.814611,110.236583q.593426-.679039,1.294747-1.188318.593425-.436525,1.321721-.800296t1.510537-.315268q1.132904.072755,1.888173.485028t1.200338,1.018558.606912,1.382329.107896,1.576341-.350661,1.527837-.714808,1.370204-.903625,1.176192-.97106.970055q-.728295.679039-1.537512,1.29745t-1.537512,1.091312-1.308233.751793-.849678.278891q-.323686,0-.849677-.291017t-1.173365-.763918-1.375668-1.091313-1.45659-1.248946q-.458556-.412274-1.025008-.933679t-1.065468-1.139815-.849678-1.358078-.377634-1.588466q-.053948-.824547.188817-1.564214t.714808-1.321701t1.159877-.982181t1.550999-.569907t1.712842.157634t1.550998.78817q.809217.53353,1.537512,1.285323Zm7.28295-2.303882q.350661,0,.674348.024252.296713.024251.620399.072754t.566452.145508.512504.25464.512504.303142l.539477.388022q.161844-.145508.350661-.266765.350661-.242514.944086-.557782.323687-.16976.755269-.254639t.876652-.060629.876651.157634.728295.424399q.836191.800296.998034,1.564215t-.040461,1.430832-.606912,1.176192-.728295.800296q-.6204.557782-1.173365.970055t-1.362181.945805q-.431582.266765-.903625.460776t-.714809.194011q-.242765.024251-.52599-.181885t-.687835-.472902q-.188817-.121257-.35066-.291017l-.323687-.266765-.323686-.291017q.296712-.485028.48553-1.091312.161843-.50928.242765-1.200444t-.080922-1.491461q-.188817-.751793-.499017-1.309574t-.606913-.897302q-.35066-.412273-.755269-.679039Z" fill="#ffc0cb" stroke="#ed3da1" stroke-opacity="0.1"/><path id="ejAuclCWLbt237" d="M132.697483,133.788679c-.177181-.31776-.335051-.645374-.472794-.981151.075198.053679.149071.108647.225261.159964.066237.278133.148885.552317.247533.821187Zm-.885606,6.252355c-.032747-.035321-.066817-.070643-.100777-.107359-.077513-.227279-.161861-.452195-.243894-.677004.105408.265928.220519.528634.344671.784363Zm-7.040738-5.632251c-.496168-.354069-.994652-.703415-1.502397-1.043849.070346-.095871.139478-.189703.207508-.285574.507856-.706313,1.00634-1.421858,1.572743-2.080719.047081-.051424.090413-.106285.134958-.160501.097107.10115.189878.206165.278075.314776.077292.310481.146535.62225.221622.935845.174651.753122.355367,1.504525.528805,2.25829.081041.357505.159546.71254.235845,1.067682.014334.067422.025911.137205.036386.211497-.571145-.405601-1.142289-.810988-1.713434-1.217447h-.000111Zm-4.372345-28.586397c.005954-.00526.01279-.008695.017641-.01256.072662-.045843.149954-.089108.225151-.130441-.079718.04874-.160759.094905-.242792.143001Zm-1.130602,23.934867h.001103c-.001103-.003436-.001103-.007515-.002316-.010843.001103.003436.002316.007407.002316.009662v.001181c0,0,0,.001718.001212.002254v.006872c-.001102.009018-.008269-.006872-.002315-.009126Zm18.816245,5.808426c-.002205-.02641-.005844-.04917-.008049-.073218-.029439-.20892-.05513-.416766-.081041-.624613-.052704-.397549-.103203-.798211-.161861-1.199196-.180495-1.25717-.422184-2.515736-.919565-3.692065-.287227-.681298-.680192-1.267691-1.186945-1.81243-.527813-.564277-1.111748-1.079706-1.568002-1.692939-.5137-.692248-.767187-1.485844-.983957-2.312827-.194718-.737018-.429351-1.452456-.715585-2.161023-.138486-.34838-.288439-.704703-.456254-1.057484.404652.428684.777661.879161,1.080214,1.384605.796515,1.331033,1.376921,2.792292,2.090081,4.175179.002315.007301.004741.014816.011797.024693.022163.044876.068031.068924.11026.068388.077292-.001825.150063-.061731.152379-.145579c0-.011058-.002316-.02233-.004631-.034355-.002426-.009662-.004742-.017177-.004742-.02276-.405755-1.525245-.83279-3.052744-1.480125-4.501871-.312034-.697724-.689784-1.366354-.942939-2.082544-.090303-.25809-.171234-.519616-.251061-.782215.431555.615487.931252,1.185347,1.416835,1.758105.446993.53003.882078,1.071225,1.290258,1.630779.350626.479678.574674,1.051256.949997,1.527499.004631.008481.012901.016533.018744.022223.03385.043481.084459.063342.13132.061732.074976,0,.153591-.051425.154804-.138171c0-.017714-.003528-.033603-.009262-.051962-.5395-1.558847-1.757097-2.737968-2.552289-4.138677-.455152-.798749-.865538-1.619506-1.245493-2.453039-.122167-.265605-.248745-.528311-.363746-.793702-.038591-.090933-.107724-.223306-.161862-.358578-.126688-1.903255-.452726-3.853747-1.18926-5.632466-.107944-1.304193-.351838-2.593463-.878438-3.793197-.444567-1.014539-1.113071-1.927088-2.016318-2.604414-.83268-.626975-1.876619-.937564-2.910964-1.028496-.203223-.017614-.407143-.026533-.611169-.026732-1.73692,0-3.702628.628692-4.400682,2.249164-.69199.385954-1.277027.920064-1.773195,1.53276-.10769.064362-.214432.130216-.320194.19754-1.346491.864989-2.322398,2.057207-2.723413,3.600058-.161861.61946-.245107,1.249548-.245107,1.87867c0,.588111.071448,1.175792.219196,1.752952.279177,1.108908.780087,2.145993,1.305474,3.155487.439936.846845.906665,1.687786,1.263245,2.568449-.003639.003435-.00816.006656-.011688.012024c0-.001181,0-.001181-.002425,0-.880865.481181-1.891835.767937-2.599151,1.5348-.325927.355142-.590991.752477-.83268,1.160869-.191301.322613-.419869.669059-.572248,1.030107-.094244.082624-.190077.163515-.287447.24263-.765863.620641-1.652571,1.072836-2.477203,1.626806-.645018.434051-1.284193.924573-1.717073,1.580427-.325927.4975-.565301,1.12834-.566513,1.743935.001212.173706.020067.346017.062186.512208.003528.009663.005954.020076.010585.028987-.00471.063525-.007064.127194-.007057.190884c0,.310589.045758.623539.123271.923392.192293.754839.536964,1.600396,1.101273,2.173691.025801.027484.062186.041226.096146.041226.004631,0,.011688,0,.015216-.003436.092618.090182.188764.172526.291967.252293-.02264.381436-.03356.763446-.032747,1.145518c0,.832566.04223,1.666206.090303,2.487286.076079,1.385248.245217,2.748811.442141,4.119352.112686.791341.238161,1.589552.275649,2.384436-.836319-.550535-1.670213-1.105472-2.513478-1.643339-1.217377-.777706-2.451292-1.525782-3.689839-2.265805-.638071-.381445-1.27846-.759348-1.915209-1.140686-.467501-.281065-.928386-.587252-1.417387-.83729-1.729532-.885065-3.569766-1.750698-5.498648-2.141269-.419096-.085672-.885384-.162219-1.348806-.162219-.083797,0-.168696.002469-.25095.008159-.03579-.023116-.077787-.035439-.120735-.035428-.025341-.000537-.050578.003316-.074535.01138-.073874.020398-.145983.047989-.212801.076439-.200562.042407-.393627.106285-.577099.202157-.32703.167909-.562986.424818-.714151.724134-.070664.060926-.140321.122952-.208943.186052-.277255.252672-.543332.516728-.797507.791448-.130876.13892-.259093.280193-.384586.423745-.125145.142787-.240476.318534-.387011.416874-.350846.232861-.585368.647373-.83235.956888-.258616.326294-.520754.649927-.786371.970844-.559348.672603-1.168091,1.281219-1.778488,1.911629-1.243287,1.284761-2.510722,2.546763-3.807926,3.781173-.653178.622465-1.296543,1.262001-1.993274,1.833042-.706102.577805-1.360383,1.208107-2.043772,1.80427-1.214509,1.059845-2.469375,2.077391-3.720932,3.09601-.929488.428361-1.960966.673783-2.942057.94905-.680963.189488-1.365344.387136-2.018522.662403-.674349.285467-1.272066.688706-1.887204,1.061993-.571145.344836-1.161806.673783-1.823143.7995-.197144.036502-.392524.047882-.589448.047882-.370031,0-.73885-.043266-1.115497-.043266-.132955.000079-.265815.006924-.398037.020506-.366613.041118-.962346.154167-1.073818.605073-.008821.038971-.012901.075688-.012901.11219.012901.502439.779867.67593,1.124097.735407v.001074c.00827.001288.019406.001288.028227.001288.028667,0,.055681-.006871.079166-.020613.680853.250038,1.309002.661114,2.024918.854146.270434.072898.54976.109806.830365.10972.57302,0,1.126082-.155241,1.659628-.422564.434644-.219441.84503-.453268,1.272065-.648661.015216.00451.029771.00451.045207.00451.029329,0,.061525-.006872.090302-.020613.147197-.073005.285572-.146008.427477-.208921.217528-.073527.441203-.128522.668504-.164365.040465-.006872.079828-.012562.119632-.017285h.040465c.291416,0,.578863.044661.863333.116591.183582.043373.374662.101669.566955.15975.282705.200976.712607.260452,1.053861.261525.054468,0,.106731-.00322.156017-.004508.099111-.004819.197828-.015503.295606-.031993.014665-.001074.029329-.003436.045097-.00569.03407-.006657.071448-.013635.10607-.022868.00893-.001074.014775-.002147.021169-.004509.265726-.06055.521418-.164474.751309-.331094.364739-.265176.630355-.653278.754176-1.075734.128453-.443284.066818-.900095.11897-1.329423.7136-.338179,1.444401-.638354,2.172776-.945722.790562-.331095,1.558741-.696543,2.328242-1.066502c1.678262-.80519,3.4358-1.448053,5.124647-2.245084c1.505485-.7105,3.157615-1.521272,4.252934-2.807215c1.080103-1.272308,1.88136-2.740867,2.936875-4.023267.372457-.452194.77292-.905678,1.225646-1.287015c1.335906,1.514187,2.811951,2.898362,4.295164,4.268688c1.411653,1.302046,2.783283,2.63587,4.242238,3.887458-.379524.114437-.758382.230958-1.136556.34956-2.567505.804009-5.172389,1.531472-7.619601,2.660777-.989801.456812-1.969237.954741-2.878217,1.553266-.771046.508129-1.590936,1.100749-2.077071,1.903684-.205414.340327-.324383.711359-.324383,1.082605c0,.324223.091515.647587.295715.946689.408623.591546,1.059595.954633,1.728651,1.192432c1.393461.496642,2.931583.613233,4.432327.613233.512486,0,1.022106-.01503,1.5207-.030919c1.982137-.063878,3.953028-.26947,5.922375-.477424.830365-.086746,1.658305-.141499,2.491206-.220407c1.768564-.170056,3.532498-.40646,5.277907-.729717c2.480511-.459066,4.983514-1.0621,7.379676-1.911736.886708-.173492,1.748718-.475063,2.568608-.847275c1.23976-.562023,2.40796-1.36367,3.116378-2.537637.549975-.913622.808204-1.964235.808204-3.017208c0-.050137,0-.095979-.002536-.143861-.025691-1.137465-.241689-2.298979-.724737-3.339284-.467942-1.011749-1.098958-2.037239-1.977507-2.772861-.318412-.398727-.629286-.803108-.932465-1.212938-.474999-.637066-.925519-1.293886-1.274821-2.00181-.39881-.807337-.663874-1.67866-.661558-2.553634c0-.494386.084458-.990061.274546-1.476503.234412-.589185.585037-1.083786.989801-1.557775.187221.1809.373343.362876.558354.545919c1.199735,1.176222,2.380836,2.36844,3.600638,3.527592.971167.922748,1.95766,1.914205,3.086939,2.667863.478527.319714,1.016924.617742,1.61398.675071.060974.00569.12316.009018.185236.009018.205304,0,.404653-.036502.6029-.10972.00401-.000738.007928-.00189.011688-.003436.267489-.076439.504437-.212248.666188-.469157.154915-.252508.218314-.543664.218314-.831601c0-.042191,0-.082129-.002426-.1211-.016428-.267109-.063288-.529708-.126688-.787798.159546.162004.321407.323042.490325.479464.007057.004616.014113.012668.022162.019539.031755.028557.069243.042299.106952.042299.087656-.001288.165389-.068709.167595-.158891c0-.026195-.00816-.055826-.027014-.082129-.004631-.007837-.009372-.014708-.015216-.026303-.54766-.817536-.927725-1.723321-1.214069-2.659811-.131209-.429435-.240255-.866707-.349523-1.302905.839848,1.728904,1.901428,3.366661,3.725121,4.276848.007057.005582.017642.010199.02955.014815.023375.01138.047853.016963.071449.016963.093072-.00069.168534-.073643.16991-.164259c0-.039937-.016319-.079875-.052595-.111975-.008269-.008052-.016648-.014923-.021169-.020613-1.067313-.954741-1.849716-2.198276-2.494845-3.45448-.359997-.701267-.654391-1.414988-.864325-2.169934-.09372-.342582-.181818-.688598-.269695-1.034508.253267.420094.514913.835895.770605,1.253949.30608.50115.635647,1.114491,1.195103,1.418208.01643.009233.035063.017178.051602.025123.023375.01256.049176.01825.072551.01825.088098-.000966.149071-.075258.149071-.152986c0-.025229-.005844-.050136-.017642-.073111-.548762-1.089368-1.107117-2.197203-1.381442-3.366554.396383.793596.9006,1.525675,1.487182,2.198277.03859.046808.077292.09265.119521.13817.087851.099164.178595.195862.272121.289976.002315.004724.004741.005797.004741.005797l.002315.001074c.76002.768688,1.656099,1.379667,2.533325,2.00546.023486.015889.050609.02523.0763.024049.06803,0,.126798-.051318.127901-.117665c0-.029631-.015326-.061624-.04223-.086854-.898505-.785543-1.923478-1.454924-2.702352-2.349007-.023375-.029739-.049286-.058296-.073874-.086746-.533657-.638463-.90435-1.378486-1.141188-2.161882.405756.239732.837422.436306,1.297095.560627.879761.234257,1.79227.273013,2.66718.475277.011687.002147.018744.004402.030542.007837.011687.002362.023375.002362.037488.002362.093941,0,.152379-.08009.152379-.158783c0-.049063-.02569-.101776-.079608-.126684-.009156-.006052-.018997-.011059-.029329-.014923-1.028611-.508236-2.118087-.928438-3.06235-1.569154-.549975-.373394-1.001819-.816033-1.353547-1.325772-.002426-.093724-.003529-.188522-.003529-.280958c0-1.061026.160649-2.105948.235735-3.176743.010586-.140211.017642-.281817.023375-.422994.046971.059906.098683.117129.150174.172418.319721.357855.672243.686621,1.0532.982225.423507.331094.866861.62472,1.241083,1.003803.83268.835895,1.446164,1.87341,1.861292,2.963422.08082.211282.158333.421598.223827.635027.075197.434051.140801.87594.201885,1.316754.002426.214718.003529.438668.032858.660041.028226.221588.103202.423745.143117.63041.002205.013742.00463.02523.007056.036717.016319.089001.098572.132266.171123.130119.08909,0,.192293-.056041.194829-.1634c0-.007837,0-.014708-.002536-.020398" fill="#ffc0cb"/></g></g><g id="ejAuclCWLbt238_ts" transform="translate(169.599998,120.149998) scale(1,1)"><g transform="translate(-169.599998,-120.149998)"><path d="M148.7,118.1h41.8v4.1h-41.8v-4.1Z" fill="#6e6e96" fill-opacity="0.5"/></g></g><g id="ejAuclCWLbt240_ts" transform="translate(169.600006,132.449997) scale(0,1)"><g transform="translate(-169.600006,-132.449997)"><path d="M157.1,130.4h25v4.1h-25v-4.1Z" fill="#6e6e96" fill-opacity="0.5"/></g></g><g id="ejAuclCWLbt242_ts" transform="translate(169.600006,144.75) scale(1,1)"><g transform="translate(-169.600006,-144.75)"><path d="M151.1,142.7h37v4.1h-37v-4.1Z" fill="#6e6e96" fill-opacity="0.5"/></g></g><g><path d="M61.6,171.9h143.2v6.9h-143.2v-6.9Z" fill="#6e6e96" fill-opacity="0.15"/></g><g><path d="M92.4,186.3h16.4v6.2h-16.4v-6.2Z" fill="#6e6e96" fill-opacity="0.15"/></g><g><path d="M157.8,186.3h16.4v6.2h-16.4v-6.2Z" fill="#6e6e96" fill-opacity="0.15"/></g><g><path d="M84.8,239h31.6v9h-31.6v-9Z" fill="#ddddeb"/><path d="M116.4,249.5l-32.2-.1-.8-.8-.1-.6v-9l.1-.5.8-.8h32.7l.8.8.2.5v9l-.5,1.1-1,.4Zm-30.1-3h28.6v-6h-28.6v6Z" fill="#6e6e96"/></g><g><path d="M150.4,239h31.6v9h-31.6v-9Z" fill="#ddddeb"/><path d="M182,249.5l-32.2-.1-.7-.8-.2-.6v-9l.5-1l1-.5l32.2.2.8.8.1.5v9l-.4,1.1-1.1.4Zm-30.1-3h28.6v-6h-28.6v6Z" fill="#6e6e96"/></g><g><path d="M169.3,239h12.7v9h-12.7v-9Z" fill="#6e6e96" fill-opacity="0.15"/></g><g><path d="M104.9,239h11.5v9h-11.5v-9Z" fill="#6e6e96" fill-opacity="0.15"/></g><g><path d="M93.6,192.5h2.7v45.3h-2.7v-45.3Z" fill="#fff" fill-opacity="0.39"/></g><path d="M159.2,192.5h2.7v45.3h-2.7v-45.3Z" fill="#fff" fill-opacity="0.39"/></g><g id="ejAuclCWLbt263_ts" transform="translate(104.047288,133.223071) scale(0,0)"><g transform="translate(-534.387512,-511.999511)"><path d="M999.499,600.463c-10.071-39.555-33.716-68.565-69.593-87.543-13.819-7.309-28.281-13.393-42.275-20.381-6.521-3.255-12.655-7.292-18.902-11.08-1.354-.82-2.438-2.087-4.338-3.756c30.46-4.156,57.04-15.37,80.773-33.438-1.602.749-3.21,1.482-4.801,2.249-19.645,9.466-39.423,18.609-61.241,21.952-5.367.823-10.856.827-16.247,1.525-4.921.638-7.405-1.684-9.318-5.907-7.098-15.667-5.835-31.521-1.229-47.395c1.797-6.19,4.256-12.199,6.624-18.208c30.09-76.343,4.62-151.398-65.712-193.656-17.224796-10.36269-35.635487-18.612146-54.834-24.57-21.386-6.64-38.895-18.817-52.635-36.142-11.199-14.122-21.706-28.819-32.006-43.619-37.282-53.57-88.292-85.189-152.442-95.939C492.466,3.072,483.51,2.17,474.6,1h-38.837c-1.315.281-2.618.725-3.947.818-36.972,2.618-72.627,11.021-107.011,24.728-38.354,15.29-73.479,35.731-102.1,66.052-16.254,17.219-28.832,36.665-33.81,60.236-2.72,12.88-2.673,25.763,1.006,39.676c1.975-6.297,3.42-11.529,5.244-16.625c15.253-42.592,45.204-71.768,84.738-91.882c38.689-19.685,80.191-27.868,123.296-28.453c30.834-.417,61.17,3.296,90.489,13.381c32.576,11.205,59.647,30.978,84.145,54.622c19.724,19.038,39.272,38.255,58.882,57.412.12.117-.021.503-.025.596-11.822-5.482-23.463-11.438-35.521-16.36-29.594-12.078-57.446-26.996-83.623-45.545C473.511,88.465,424.159,74.5,370.135,77.824c-29.537,1.817-58.142,8.573-86.773,15.654-15.555,3.848-27.805,13.047-41.616,20.583c1.342,2.674,2.372,4.98,3.618,7.164c8.757,15.36,21.591,26.707,36.393,35.83c38.938,24,82.134,35.118,127.009,39.996c28.417,3.091,57.092,3.728,85.557,6.469c37.527,3.615,74.525,10.328,110.063,23.448c23.514,8.683,45.568,19.952,63.041,38.536c3.849,4.094,7.139,8.712,10.688,13.09-8.253-3.287-15.666-7.411-23.401-10.787-35.097-15.319-72.338-22.602-109.859-28.617-29.407-4.715-58.962-8.532-88.312-13.558-27.489-4.707-54.739-10.785-82.195-15.688-23.292-4.162-46.671-7.77-69.098-15.677-32.309-11.392-56.681-31.279-68.878-64.238-.197-.534-.755-.933-1.358-1.648-4.565,6.375-8.593,12.725-13.373,18.449-4.092,4.902-4.839,10.037-4.176,16.093c2.698,24.595,15.333,43.645,33.029,59.867c19.332,17.721,41.896,30.272,65.996,40.12c38.107,15.568,77.403,25.919,118.917,26.283c18.732.166,37.471.453,56.19,1.147c30.336,1.124,60.473,3.979,89.857,12.234c53.625,15.066,91.428,47.364,108.269,101.358c6.162,19.762,10.096,40.23,14.766,60.441c3.59,15.542,5.06,31.612,12.615,46.102c12.611,24.182,31.74,41.878,54.863,55.618c5.906,3.509,12.093,6.543,19.139,10.326-22.872-4.688-41.595-14.509-56.838-30.919-16.32-17.569-26.976-38.335-34.699-60.729-7.765-22.51-14.22-45.511-22.853-67.673-20.136-51.684-55.965-86.11-111.482-97.916-27.759-5.903-55.949-7.588-84.144-9.612-28.34-2.035-56.896-3.012-84.901-7.382-81.432-12.709-144.474-54.503-189.046-123.958-.552-.86-1.257-1.623-2.641-3.387.39,2.575.524,3.91.801,5.214c4.207,19.892,14.229,36.786,27.704,51.583c31.963,35.101,70.979,58.933,116.638,72.013c38.103,10.916,77.203,14.353,116.55,16.331c30.946,1.556,61.841,3.494,92.442,9.042c47.35,8.587,83.289,32.89,106.521,75.357.668,1.222,1.155,2.542,1.729,3.816-1.191-.334-1.717-.99-2.196-1.677-21.941-31.379-51.299-52.377-88.377-61.971-33.733-8.728-68.359-9.578-102.943-10.051-25.535-.349-51.091.276-76.605-.556-18.778-.612-37.636-3.358-54.242-12.729-22.804-12.869-45.626-25.947-67.116-40.843-33.976-23.553-60.097-54.126-75.318-93.174-.208-.534-.671-.969-1.689-2.393-.434,9.76-2.008,18.547-.968,27.013c2.662,21.663,12.7,40.429,25.709,57.613c22.891,30.234,52.991,51.628,85.943,69.458c2.688,1.454,5.661,2.622,7.922,4.591c19.204,16.73,41.407,28.54,64.064,39.688c4.377,2.152,8.963,4.602,12.281,8.042c8.829,9.151,18.398,18.028,25.214,28.6c25.551,39.639,34.527,82.982,27.049,129.845-3.216,20.148-5.35,40.549-2.73,61.057c3.193,25.015,13.828,45.443,36.429,58.232c3.305,1.871,4.357,3.542,3.974,7.448-2.842,28.968,3.314,55.312,24.297,76.683c23.447,23.883,52.231,36.143,85.581,36.335c43.8.251,71.032-26.907,70.503-69.157-.248-19.712-21.455-39.531-41.113-38.42-10.48.593-17.022,8.567-14.846,18.448.528-1.074.943-1.956,1.392-2.822c1.908-3.685,3.897-7.699,8.738-7.483c4.946.221,7.177,4.277,8.693,8.322c2.973,7.924,3.404,16.089,0,23.94-8.791,20.276-25.42,30.037-46.434,32.896-20.611,2.804-34.981-7.219-45.308-24.089-9.403-15.36-11.581-32.462-11.629-50.076-.015-4.184,1.02-6.179,5.492-7.287c11.825-2.934,22.396-8.689,32.038-16.159-11.68,5.098-23.487,9.441-37.712,9.946c2.902-14.76,4.771-28.97,8.583-42.634c7.086-25.379,15.644-50.345,22.985-75.656c14.718-50.725,5.931-95.977-32.413-133.957-3.119-3.089-6.411-6.005-9.624-9.002c1.553-.301,2.846-.109,3.971.432c12.101,5.819,24.258,11.542,36.186,17.701c1.999,1.033,3.819,3.85,4.305,6.142c3.104,14.644,5.569,29.426,8.69,44.067c8.72,40.924,20.797,80.718,40.732,117.775c17.617,32.749,38.474,62.86,70.681,83.076c17.14,10.758,34.547,21.18,52.402,30.682c24.182,12.864,49.23,24.109,73.315,37.14c25.926,14.024,38.556,41.651,34.087,70.749-4.323,28.153-17.974,51.457-38.758,70.136-32.674,29.362-66.165,57.818-99.478,86.463-3.142,2.701-3.694,5.037-2.723,8.729c4.719,17.949,16.043,30.183,32.787,37.337c6.632,2.833,13.858,4.274,20.813,6.35h21.462c10.918-3.073,21.873-6.025,32.733-9.293c3.342-1.005,6.424-2.875,10.512-4.759-4.336-1.605-7.823-2.767-11.208-4.172-20.008-8.307-26.57-22.734-19.342-43.162c6.118-17.301,17.314-31.474,28.657-45.555c11.518-14.297,23.095-28.565,34.078-43.272c4.743-6.353,8.311-13.646,11.902-20.769c1.628-3.226,3.356-4.221,6.939-4.18c35.623.411,65.39-12.325,88.318-40.008c12.079-14.583,16.558-32.351,19.51-50.305c1.881-11.438,1.093-23.312,1.632-34.982.071-1.554.516-3.393,1.457-4.559c15.503-19.215,24.193-41.188,26.954-65.62.131-1.158.575-2.281.874-3.42v-24.527c-1.476-7.986-2.499-16.096-4.5-23.953ZM516.648,505.91c.432,20.613-2.254,40.794-7.44,60.615-8.255,31.566-17.017,63-25.656,94.824-8.27-3.22-14.857-9.374-19.246-18.002-5.873-11.547-8.33-24.038-10.181-36.713-3.313-22.681-1.136-45.058,2.394-67.569c4.383-27.937,4.788-55.957-3.106-83.558-5.406-18.898-15.033-35.293-28.945-49.175-1.199353-1.204183-2.387405-2.41957-3.564-3.646-.111-.117-.15-.302-.716-1.484c23.586,11.201,46.05,22.078,65.273,38.536c20.332,17.41,30.627,39.351,31.187,66.172ZM669.421,206.414c-.879-.791-1.771-1.569-2.084-3.28c11.141,5.92,23.008,10.798,33.294,17.95c37.311,25.942,65.145,59.982,83.235,101.755c5.056,11.671,7.398,23.977,6.91,36.81-.988,26.012-1.779,52.029-2.69,79.194-10.69-10.118-18.573-21.298-22.091-34.532-4.35-16.371-7.606-33.103-10.206-49.853-3.83-24.673-7.976-49.232-21.871-70.573-18.435-28.315-39.278-54.746-64.497-77.471ZM577.859,455.382c-.729-4.682-1.444-9.366-2.37-15.378c2.461,1.999,4.004,3.188,5.476,4.456c26.38,22.722,43.271,51.668,55.21,83.916c12.391,33.471,28.601,64.757,53.744,90.635c6.973,7.177,14.721,13.602,21.33,19.654-69.29-42.157-120.255-98.932-133.39-183.283Zm127.036,70.465c-7.876-22.937-13.797-46.543-20.604-69.847l1.521-.765c4.568,13.332,8.733,26.818,13.825,39.945c4.48,11.55,9.379,23.024,15.174,33.962c16.781,31.684,42.297,52.039,77.887,59.735c21.267531,4.601991,42.334412,10.086733,63.146,16.44c16.526,5.048,31.356,13.833,44.52,26.714-10.317-2.341-19.686-4.923-29.219-6.532-19.124-3.227-38.459-5.298-57.494-8.953-52.842-10.144-90.924-38.77-108.756-90.699Zm190.22,89.183c8.537,6.115,14.839,13.563,19.252,22.555L895.115,615.03ZM863.664,840.712c.621-2.057,1.086-3.765,1.649-5.438c12.51-37.029,6.518-71.804-13.086-104.764-6.596-11.094-16.445-19.101-27.541-25.32-20.772-11.646-41.854-22.733-62.661-34.319-10.827-6.028-21.339-12.621-31.992-18.959.276-.385.557-.769.835-1.149c21.126,11.831,43.939,18.931,67.322,24.4c16.888,3.95,33.895,7.419,50.677,11.763c20.888,5.406,40.197,13.907,54.536,31.042c6.973,8.331,12.203,17.558,15.506,27.917.924,2.892.481,4.664-2.454,6.083-7.933,3.827-15.734,7.923-23.389,12.646c9.203-2.55,18.404-5.1,27.602-7.647c7.516,32.185-21.183,74.739-57.004,83.745ZM971.35,696.928c-.497,1.002-1.118,1.944-1.279,2.225-7.175-11.185-13.965-22.708-21.739-33.523-4.413-6.141-10.495-11.073-15.701-16.662-1.177-1.265-2.525-2.952-2.64-4.527-2.227-30.991-18.956-53.225-42.846-71.063-20.679-15.442-43.887-26.116-68.279-33.942-16.304-5.229-28.852-14.867-39.308-27.897-16.12-20.088-27.618-42.863-38.186-66.144-3.628-7.99-6.561-16.294-9.81-24.455l1.108-.564c.598.652,1.282,1.244,1.782,1.964c13.531,19.5,31.229,33.955,52.724,43.929c1.9.884,4.222,2.76,4.675,4.59c9.095,36.658,32.76,61.566,65.126,78.388c15.275,7.939,32.167,12.791,48.39,18.877c9.388,3.522,19.037,6.373,28.331,10.12c27.369,11.032,41.478,32.626,46.62,60.664c3.716,20.237.138,39.624-8.968,58.02ZM113.602,511.08c10.972-3.646,22.157-6.677,33.033-10.583c19.591-7.034,30.777-21.645,35.791-41.407c2.816-11.1,2.464-22.263.375-33.426-3.836-20.496-12.246-39.329-22.262-57.321-17.116-30.744-18.572-62.69-9.55-95.873c5.933-21.817,15.895-41.935,25.918-62.04c1.783-3.575,3.154-7.354,4.715-11.04-1.29-.078-1.85.234-2.199.703-14.927,19.957-28.417,40.759-37.386,64.183-8.562,22.361-11.999,45.297-7.735,69.116c3.284,18.338,11.382,34.781,19.42,51.346c5.543,11.424,11.563,23.023,14.471,35.234c6.403,26.9-3.119,46.952-27.029,58.364-7.198,3.435-14.728,6.181-22.145,9.147-10.093,4.035-20.515,7.378-30.264,12.114-12.271,5.959-19.978,16.113-22.979,29.608-.172.773-.659,1.476-1,2.213v22.484c1.417,6.608,2.833,13.217,4.248,19.826c1.054-2.014.979-3.873,1.065-5.727.583-12.588,3.014-24.563,10.423-35.214c8.17-11.74,20.17-17.413,33.09-21.707Z" fill="#fff"/><path d="M618.865,847.936c-5.347-4.947-10.688-10.238-16.921-13.841-70.619-40.819-144.394-48.26-221.253-19.881-4.012,1.481-7.06,1.465-10.358-1.036-5.696-4.319-11.474-8.528-17.216-12.785-22.413-16.619-44.662-33.471-67.351-49.707-6.126-4.384-13.461-7.197-20.476-10.181-4.824-2.051-8.805-.609-12.467,3.785-21.547,25.869-28.423,54.52-18.895,87.269c4.352,14.954,7.395,30.372,9.82,45.77c1.151,7.314-.538,15.078-.954,22.891c3.358-.835,6.758-1.911,10.242-2.504c7.481-1.271,15.118-3.753,22.489-3.174c41.816,3.279,83.08,10.091,123.278,22.383c34.231,10.468,67.032,24.184,94.851,47.286c11.665,9.688,21.774,21.252,32.567,31.937c5.229-6.884,11.116-14.771,17.151-22.546c19.726-25.411,39.818-50.547,59.103-76.289c7.397-9.873,13.164-20.996,19.344-31.739c3.699-6.434,2.369-12.713-2.954-17.638ZM283.945,564.629c18.19,5.637,36.141,12.046,54.296,17.801c2.21.701,5.407.125,7.526-1.015c17.429-9.36,29.011-23.81,35.859-42.224.549-1.475,1.201-2.906,1.806-4.36.552.092,1.104.185,1.654.275l-2.657,50.407c14.099-1.109,24.568-8.44,28.765-21.154c6.45-19.548,3.294-39.216.498-59.585-9.95,7.671-19.093,14.972-28.499,21.914-14.224,10.5-29.452,19.091-47.141,22.22-13.412,2.372-25.532-6.926-25.905-20.526-.259-9.476-3.548-15.221-13.092-17.778-6.958-1.865-9.56-6.783-9.261-14.018.068-1.692.355-3.375.604-5.63-1.039-.412-1.799-.732-2.571-1.016-9.89-3.644-13.564-9.597-12.371-20.022.232-2.027.627-4.066.564-6.09-.139-4.518-1.414-7.765-6.766-9.109-5.866-1.475-11.405-4.338-16.994-6.805-3.946-1.742-5.158-4.756-4.309-9.159c2.031-10.521,3.28-21.2,5.521-31.671c4.206-19.659,1.539-37.655-8.37-55.563-9.18-16.594-16.362-34.385-23.371-52.065-11.409-28.779-22.307-57.786-28.663-88.234-.491-2.352-.917-4.716-1.609-8.29-11.623,20.983-22.524,40.809-29.764,62.325-3.023,8.985-5.715,18.265-6.973,27.625-3.679,27.374,1.153,53.847,12.726,78.606c9.777,20.919,21.856,40.75,32.392,61.331c4.771,9.323,9.303,19.009,12.097,29.042c3.877,13.928-1.119,24.607-13.979,31.087-8.279,4.17-17.332,6.905-26.202,9.772-13.255,4.284-27.033,7.178-39.923,12.331-32.523,13.002-48.379,38.333-46.655,73.169.986,19.944,7.874,38.546,13.712,57.406c4.513,14.58,9.327,29.263,11.671,44.265c2.697,17.252-5.104,26.291-22.406,29.911-3.814.8-7.703,1.237-12.161,1.936c20.055,14.019,59.991,7.665,70.423-24.386c3.338-10.258,4.483-20.765,2.48-31.25-2.836-14.853-6.797-29.488-9.803-44.313-4.602-22.695.629-35.515,21.173-46.068c14.739-7.571,30.734-12.698,46.182-18.879c1.105-.442,2.325-.595,3.374-.854-9.78,5.877-19.979,11.093-29.171,17.709-26.233,18.877-36.292,44.804-30.338,76.398c2.572,13.654,7.212,26.906,10.594,40.422c6.104,24.389-.958,41.126-22.525,54.095-2.808,1.688-5.68,3.271-8.357,4.807h34.036c.266-4.363.493-7.894.692-11.424c2.108-37.399,4.316-74.792,6.271-112.2.92-17.594,6.487-33.272,17.767-46.86c9.639-11.607,21.857-18.765,36.803-21.082c20.72-3.215,40.723.693,60.35,6.776Zm-6.85-45.076c-2.654,10.668-21.459,22.786-35.945,24.559l35.945-24.559Z" fill="#fff" stroke="#fff"/></g></g><g id="ejAuclCWLbt266_ts" transform="translate(104,123) scale(0,0)"><g transform="translate(-542.368795,-511.956619)"><g transform="matrix(2.669157 0 0 2.878318-157.892445 1021.520276)"><polyline points="110.589996,290.988708 110.589996,291.678711 110.589996,291.988708" fill="#fff"/><g><path d="M161.70001,64.285v48.6c0,24-15.36,37.32-41.28,37.32-11,0-19.67-2.88-26-7.92-6.24,5-15,7.92-26,7.92-25.8,0-41.16-13.32-41.16-37.32v-48.6h28.32v47.78c-.07,10.08,3.77,15.22,12.34,15.22s12.36-5.16,12.36-15.24v-47.76h28.32v47.78c0,10.08,3.84,15.24,12.47,15.24s12.36-5.16,12.36-15.24v-47.78h28.27Z" fill="#fff"/><path d="M171.07001,63.585c0-7.79,6.36-13.79,16.32-13.79s16.32,5.49,16.32,13.32c0,8.27-6.36,14.27-16.32,14.27s-16.32-6-16.32-13.8Zm2.76,19.08h27.09v65.62h-27.09v-65.62Z" fill="#fff"/><path d="M285.42001,110.865v37.42h-27.12v-32.74c0-8.16-3.12-11.28-8-11.28-5.51,0-10.2,3.48-10.2,13.2v30.82h-27.18v-65.62h25.8v6.48c5.15-5.16,12.11-7.68,19.79-7.68c15.15,0,26.91,8.76,26.91,29.4Z" fill="#fff"/><path d="M342.30001,146.025c-4.2,2.4-10.32,3.48-16.68,3.48-18.12,0-28.67-8.52-28.67-26.64v-55h27.11v18.42h13.44v19.8h-13.44v16.54c0,4.08,2.4,6.36,5.64,6.36c2.172513.01411,4.301068-.611935,6.12-1.8l6.48,18.84Z" fill="#fff"/><path d="M398.10001,124.665l14.16,14.28c-6.48,7-15.72,10.56-28.68,10.56-24.12,0-39.71-14.52-39.71-34.08c0-19.92,16.08-34,37.67-34c19.08,0,35.64,11.76,35.64,33.6l-44.88,8.64c2.16,4.08,6.24,5.76,12.12,5.76s9.36-1.52,13.68-4.76Zm-27.6-13.8l21-4.08c-1.39935-4.210497-5.405781-6.995455-9.84-6.84-6.12,0-10.32,3.48-11.16,10.92Z" fill="#fff"/><path d="M472.74001,81.465v24c-1.983949-.32017-3.990383-.480684-6-.48-8.16,0-13.92,3.72-13.92,14.16v29.14h-27.11v-65.62h25.79v7.08c4.8-5.52,12.12-8.28,21.24-8.28Z" fill="#fff"/></g></g><path d="M528.991209,435.636191c-.50423-4.117882-.840384-7.563457-1.176537-11.345185s-.50423-7.39538-.672308-11.177108v-22.102101c.496523-14.914784,1.871533-29.787348,4.117882-44.540355c2.29286-15.023567,5.806085-29.835323,10.504801-44.288241c13.975015-46.215714,41.067486-87.379921,77.987641-118.494153c25.367359-20.973932,54.167968-37.407053,85.130906-48.574199h.672307c22.02303-8.168711,46.498273,3.062434,54.666984,25.085464s-3.062434,46.498273-25.085464,54.666984c-2.559702.97187-5.204314,1.703359-7.899611,2.184998-23.808628,3.603672-46.811868,11.309331-67.987071,22.774409-10.595682,5.90055-20.587931,12.824757-29.833634,20.673448-9.427357,8.070381-18.066149,17.018706-25.799791,26.724213-7.979579,10.094235-15.065538,20.863768-21.177678,32.18671-6.284048,11.690064-11.70497,23.82394-16.219413,36.304591-4.663797,12.646445-8.481952,25.588867-11.429223,38.741706-1.428653,6.723073-2.773267,13.278068-3.781728,20.169217-.50423,3.445575-1.008461,6.723073-1.260576,10.168647s-.672307,6.891149-.840384,9.832494v.50423c-.146569,2.710919-1.398172,5.243203-3.46282,7.006095s-4.761778,2.602218-7.462173,2.322169c-4.808159-.357885-8.704016-4.043155-9.328263-8.824033h.336153Z" fill="#ffc229"/><path d="M584.624634,491.101539c2.437114-2.941344,4.706151-5.378458,7.059227-8.40384s4.706151-5.042304,7.227303-7.479419c4.874228-4.958266,10.00057-9.748455,15.210951-14.286529c10.615274-9.290972,21.845953-17.854364,33.615363-25.631714c24.053189-16.35603,50.585405-28.728272,78.57591-36.640745c14.653731-3.967451,29.652468-6.528211,44.792471-7.647495c3.781728-.50423,7.731533,0,11.513261-.50423h11.513262c3.949805,0,7.731533,0,11.681338.672307l11.597301,1.260576c31.00429,4.663649,60.919948,14.853759,88.324365,30.085749c20.653843,11.255184,28.272962,37.122561,17.017778,57.776405s-37.122562,28.272961-57.776405,17.017777c-2.182188-1.090114-4.239237-2.414515-6.134804-3.949805l-6.554996-5.294419c-2.096039-1.793354-4.283997-3.476399-6.554995-5.042305-4.428801-3.320981-9.029259-6.406654-13.782299-9.244225-9.391342-5.732213-19.328599-10.517861-29.665558-14.286529l-7.89961-2.60519c-2.605191-.840384-5.462496-1.512691-8.40384-2.10096l-4.285959-1.0925-4.117882-.840384c-2.773267-.50423-5.546535-1.176538-8.403841-1.428653-11.414559-1.57218-22.960531-1.966433-34.455746-1.176537-24.3434,1.72023-48.243594,7.397235-70.760339,16.807681-11.705519,4.901068-23.100028,10.514127-34.119593,16.807681-5.630573,3.109421-11.009031,6.386919-16.303451,10.000571l-7.815571,5.462496c-2.569111,1.705978-5.03829,3.557862-7.39538,5.546535h-.504231c-4.304793,3.370634-10.518528,2.659423-13.950375-1.59673-2.798751-3.711434-2.587682-8.882647.50423-12.353646l.252115.168077Z" fill="#ffe045"/><path d="M580.002522,557.912072c3.613651,1.176538,6.554996,2.10096,9.832494,3.277498l9.49634,3.445575c6.30288,2.437114,12.521723,5.126343,18.572487,7.89961c12.366603,5.6523,24.378229,12.051016,35.968438,19.160757c23.988359,14.464256,45.756026,32.325632,64.625535,53.028234c9.908649,10.730517,18.772709,22.380425,26.472098,34.791901c7.949791,12.669762,14.621571,26.097774,19.917102,40.08632.672307,1.764807,1.512691,3.445575,2.100961,5.210381l1.848845,5.462496c1.176538,3.613651,2.437114,7.227303,3.445574,10.840955c1.764807,7.39538,3.949805,14.79076,5.126343,22.270177c2.610505,15.075195,4.015592,30.334439,4.20192,45.632855.970585,15.514732-6.602046,30.322682-19.748814,38.617947s-29.772295,8.755715-43.358039,1.200816-21.966361-21.921019-21.855976-37.465688c-.010634-2.811928.185988-5.620816.588269-8.40384v-.840384c2.245041-10.424242,3.566759-21.026106,3.949805-31.68248.50423-5.378458,0-10.672878,0-15.883258c0-2.605191-.50423-5.29442-.672307-8.403841v-3.949805c0-1.260576-.50423-2.605191-.672307-3.865767-1.707015-10.821152-4.52313-21.437904-8.403841-31.682479-3.817495-10.693817-8.658136-20.99425-14.454606-30.758057-12.107607-20.553772-27.139679-39.237703-44.624394-55.465348-8.986128-8.420232-18.411612-16.358959-28.236904-23.782869-4.958266-3.613651-10.00057-7.39538-15.29499-10.672878-2.605191-1.680768-5.210381-3.445575-7.815572-4.958266s-5.462496-3.277498-7.89961-4.538074h-.504231c-4.82201-2.691231-6.582742-8.760137-3.949805-13.614222c1.892448-4.37604,6.848154-6.541867,11.345185-4.958266ZM463.273175,481.100969c-2.269037-2.437114-4.874228-5.210381-7.563456-7.731534s-5.378458-5.042304-8.403841-7.731533c-5.462496-5.042304-11.177108-9.832494-16.807681-14.370568-11.234412-9.290051-23.051962-17.851459-35.380169-25.631714-12.298391-7.763023-25.100612-14.69756-38.321514-20.757486-12.842607-5.782929-26.137058-10.504848-39.750166-14.118452-13.106287-3.66481-26.578923-5.863273-40.170358-6.554996-13.149975-1.005035-26.371312-.525797-39.414013,1.428653-1.608545.129853-3.208045.354345-4.790189.672307l-4.706151,1.008461c-3.193459.672307-6.470957,1.092499-9.580378,1.932883-6.26192,1.601423-12.433576,3.537079-18.48845,5.79865-12.152772,4.389192-23.905448,9.815667-35.128054,16.219413l-1.00846.50423c-20.677049,11.162358-46.487989,3.449177-57.650347-17.227873s-3.449177-46.487988,17.227873-57.650347c2.169827-1.135744,4.416316-2.118583,6.723073-2.941344c16.819045-5.751426,34.074954-10.135664,51.599581-13.109991c8.736389-1.491696,17.544225-2.529563,26.38806-3.109422c4.454036,0,8.908071,0,13.278068-.50423h13.362107c17.551767.628661,34.988216,3.10751,52.019773,7.39538c16.583719,4.033939,32.738308,9.662715,48.238046,16.807681c15.105852,7.133321,29.608035,15.480508,43.363817,24.959407c13.40305,9.163884,26.177449,19.214949,38.237475,30.085749c11.878935,10.748561,23.104113,22.198242,33.615363,34.28767c5.126343,6.134804,10.168647,12.185569,15.126913,18.404411c2.437114,3.109421,4.706151,6.386919,7.059226,9.49634l6.89115,10.084609c2.82185,4.327085,1.849099,10.095677-2.235699,13.258101s-9.913149,2.659201-13.395445-1.15657l-.336154.252115Z" fill="#ffc229"/><path d="M444.280496,298.905703c-1.344615-4.958266-2.941344-10.336724-4.79019-15.547105s-3.613651-10.420762-5.714611-15.631143c-4.117882-10.336724-8.403841-20.337294-13.446145-30.169788-9.597445-19.389592-20.84397-37.918242-33.615363-55.38131-6.386919-8.403841-13.109991-16.807681-20.169217-24.623253s-14.454606-15.210952-22.18614-22.102101c-15.097213-13.72089-31.539913-25.883982-49.078429-36.304592-20.212918-12.067414-26.816154-38.235793-14.74874-58.448711s38.235793-26.816154,58.448711-14.748741c2.854994,1.70957,5.505375,3.739649,7.89961,6.050765l.756346.840384c18.221147,17.93184,34.605903,37.638592,48.910353,58.826885c7.059226,10.504801,13.530183,21.177678,19.580948,32.018633s11.345185,22.018063,16.051336,33.615362c9.193407,22.139781,16.47529,45.025698,21.765947,68.407263c2.605191,11.681339,4.874228,23.278639,6.554996,35.128054.840384,5.882688,1.512691,11.849415,2.10096,17.732104s1.008461,11.681339,1.008461,18.236334c.094829,5.459561-4.207091,9.985929-9.664417,10.168647-4.60544.143213-8.692648-2.930926-9.832493-7.395379l.168077-.672308ZM291.246557,549.256116c-4.874228.756346-10.672878,1.764807-15.883259,2.941345s-10.672878,2.437114-16.051335,3.949805c-10.672878,2.941344-21.177678,6.386919-31.346326,10.168647-20.408546,7.511209-40.0974,16.849351-58.826884,27.900751-9.328264,5.378458-17.732104,11.345185-26.135945,17.39595s-16.807681,12.773838-24.455176,19.49691c-15.224487,13.593537-29.073589,28.653029-41.346896,44.960548-14.179211,18.959764-41.043658,22.835167-60.003422,8.655956s-22.835167-41.043657-8.655956-60.003422c2.009339-2.667902,4.321899-5.093269,6.891149-7.227303l.840384-.672308c19.703044-16.117744,40.989589-30.196146,63.533035-42.019203c11.177108-5.882688,22.438255-11.09307,33.615363-15.883259s23.110562-8.908071,34.7919-12.521722c23.33283-7.266267,47.266179-12.441045,71.516684-15.463067c11.820062-1.553577,23.714188-2.4793,35.632285-2.773268h17.90018c6.134804,0,11.765377,0,18.152296.924423c4.933455.599517,8.69467,4.703828,8.862329,9.670748s-3.308224,9.315521-8.190022,10.246354h-.840384v.252115Zm514.315048,33.615363c6.218842,1.008461,11.765377,2.10096,17.564027,3.445575s11.261146,2.773267,16.807682,4.454035c11.261146,3.109421,22.270178,7.059226,33.615362,11.261147c22.275922,8.716511,43.663731,19.551125,63.869189,32.354786c20.705442,13.074437,40.047073,28.193005,57.734385,45.128625c18.114012,17.473051,34.416216,36.731614,48.658238,57.48227v.840384c8.646921,12.565057,9.933628,28.788726,3.37543,42.559707s-19.964955,22.997137-35.170074,24.203062-29.898581-5.79159-38.545502-18.356647c-2.006279-2.851304-3.617619-5.960909-4.79019-9.244225-6.999576-18.389385-15.751864-36.062818-26.135944-52.776119-10.945665-17.362779-23.646108-33.555141-37.901321-48.322084-14.707412-15.191781-30.800515-28.977831-48.069969-41.178819-8.403841-6.218842-17.732104-11.933454-27.228444-17.39595l-14.034414-8.067687c-4.790189-2.437114-9.832494-4.706151-14.454606-6.554996h-.672307c-2.45517-1.02111-4.402599-2.977954-5.411857-5.43802s-.997239-5.220785.033399-7.671971c1.9049-4.250741,6.399456-6.721031,11.009031-6.050766l-.252115-.672307Z" fill="#ce111b"/><path d="M522.688329,674.809496c2.941344,25.211522,6.134804,50.002852,8.908071,75.130335s5.042304,50.423044,6.723072,76.222835c3.445575,51.011313,4.454036,102.190702,4.874228,153.117977.807445,15.615276-7.019976,30.413997-20.381982,38.534688s-30.102767,8.25316-43.591609.344938-21.549472-22.58122-20.989238-38.207319c.00362-3.048696.313314-6.089326.924423-9.076148c10.252686-48.742276,19.917102-97.652628,27.144405-146.731058c3.613651-24.287099,6.891149-49.498621,9.664417-74.037836s4.958266-49.918813,7.227303-74.962259c.233292-2.672943,1.530876-5.14003,3.601133-6.846806s4.73952-2.510068,7.407898-2.229341c4.368876.599771,7.804069,4.034964,8.40384,8.40384l.084039.336154ZM744.465684,318.150499c5.210381-3.781728,10.00057-6.723073,15.29499-9.916532s10.168647-6.050765,15.379028-8.403841c10.504801-5.714612,21.177678-10.840954,32.18671-15.631144c22.220521-9.544694,45.219436-17.164139,68.743416-22.774408c12.017492-2.773267,24.203061-5.126343,36.304592-6.723072s25.211522-2.773267,37.229014-3.277498c25.500489-.936657,51.03125.639663,76.222835,4.70615h.756345c21.6904,5.238973,35.687239,26.298251,32.118871,48.325212s-23.498044,37.590144-45.733092,35.713195c-3.331189-.487179-6.58177-1.419954-9.664417-2.773267-28.458385-12.110717-58.622151-19.736707-89.416865-22.606332-10.504801-1.008461-21.009602-1.680768-31.850556-1.680768-21.68311-.039503-43.330521,1.759762-64.709573,5.378458-10.840292,1.812881-21.58272,4.168923-32.18671,7.059226l-15.883258,4.622113c-5.29442,1.680768-10.672878,3.613651-15.29499,5.462496h-.504231c-5.127407,1.957549-10.878852-.544703-12.941914-5.630573-1.319681-4.387616.261491-9.131131,3.949805-11.849415Z" fill="#ff2528"/><path d="M477.055474,569.08918c-2.941344.840384-6.386919,1.932883-9.664417,3.109421s-6.554996,2.269037-9.832493,3.613652c-6.554996,2.437114-12.773838,5.210381-19.244795,8.403841-12.507001,5.659325-24.609181,12.173724-36.220554,19.49691-22.721031,13.825004-43.066803,31.219646-60.255537,51.515543-16.059922,19.008004-27.96804,41.163974-34.959977,65.045727-3.347369,11.569259-5.487756,23.454039-6.386919,35.464207-.565193,6.00522-.789655,12.037641-.672307,18.068258-.167696,2.995024-.167696,5.997085,0,8.992109l.840384,8.655956v1.680768c.656332,23.014271-17.123077,42.370799-40.110128,43.668088s-42.831424-15.935917-44.768663-38.877899c-.274757-2.794543-.274757-5.609297,0-8.40384l1.59673-12.521723c.672307-4.033844,1.008461-8.403841,2.016922-12.269607c1.677312-7.998169,3.752842-15.907622,6.218842-23.698831c13.055377-48.527925,41.008489-91.736206,79.920524-123.536457c24.36991-19.778124,51.786196-35.472954,81.181101-46.473239c14.083045-5.48441,28.513051-10.032389,43.195741-13.614222c7.227303-1.764807,14.622683-3.445575,22.018063-4.706151c7.47919-1.430501,15.023554-2.496248,22.606331-3.193459c5.484501-.438498,10.308255,3.599994,10.840954,9.076148.495562,4.800813-2.566538,9.25154-7.227303,10.5048h-1.092499Z" fill="#ffe045"/><path d="M451.171645,31.243379c.840319,15.793692,13.891545,28.168976,29.707577,28.168976s28.867257-12.375284,29.707576-28.168976c.584761-10.990513-4.946108-21.405893-14.378637-27.076935s-21.225351-5.671042-30.657879,0-14.963398,16.086422-14.378637,27.076935Z" fill="#ff2528"/><path d="M1026.330499,610.099923c0,14.945028,12.115339,27.060367,27.060367,27.060367s27.060367-12.115339,27.060367-27.060367-12.115339-27.060367-27.060367-27.060367c-7.176856,0-14.059766,2.850995-19.134569,7.925798s-7.925798,11.957713-7.925798,19.134569Z" fill="#ffc229"/><path d="M342.173832,986.507946c0,8.837494,5.323578,16.804792,13.488359,20.186755s17.562848,1.51257,23.811901-4.736482s8.118444-15.647121,4.736481-23.811901-11.349262-13.488358-20.186756-13.488358c-5.801828-.022444-11.372507,2.272393-15.47505,6.374936s-6.39738,9.673222-6.374935,15.47505ZM1041.03722,217.472487c0,12.067414,9.782572,21.849986,21.849986,21.849986s21.849986-9.782572,21.849986-21.849986-9.782573-21.849984-21.849986-21.849984-21.849985,9.782571-21.849986,21.849984Z" fill="#ff2528"/><path d="M55.602865,783.975386c0,7.385912,3.940337,14.210776,10.336724,17.903731s14.277061,3.692956,20.673448,0s10.336724-10.517819,10.336724-17.903731c0-11.41763-9.255818-20.673448-20.673448-20.673448s-20.673448,9.255818-20.673448,20.673448Z" fill="#ffc229"/></g></g></g></svg>