<svg width="32" height="32" viewBox="0 0 32 32" fill="none" xmlns="http://www.w3.org/2000/svg">
<path fill-rule="evenodd" clip-rule="evenodd" d="M29.3334 16.0003C29.3334 23.3641 23.3639 29.3337 16.0001 29.3337C8.63628 29.3337 2.66675 23.3641 2.66675 16.0003C2.66675 8.63653 8.63628 2.66699 16.0001 2.66699C23.3639 2.66699 29.3334 8.63653 29.3334 16.0003Z" fill="#F8FAFD"/>
<path d="M16.0001 28.0003C9.37266 28.0003 4.00008 22.6277 4.00008 16.0003C4.00008 9.37291 9.37266 4.00033 16.0001 4.00033C22.6275 4.00033 28.0001 9.37291 28.0001 16.0003C28.0001 22.6277 22.6275 28.0003 16.0001 28.0003ZM16.0001 29.3337C23.3639 29.3337 29.3334 23.3641 29.3334 16.0003C29.3334 8.63653 23.3639 2.66699 16.0001 2.66699C8.63628 2.66699 2.66675 8.63653 2.66675 16.0003C2.66675 23.3641 8.63628 29.3337 16.0001 29.3337Z" fill="#EFF1F5"/>
<path d="M20.7072 12.7072L12.7072 20.7072L11.293 19.293L19.293 11.293L20.7072 12.7072Z" fill="#D3D6E0"/>
<path d="M19.293 20.7072L11.293 12.7072L12.7072 11.293L20.7072 19.293L19.293 20.7072Z" fill="#D3D6E0"/>
</svg>
