<?xml version="1.0" encoding="UTF-8"?>
<svg width="22px" height="14px" viewBox="0 0 22 14" version="1.1" xmlns="http://www.w3.org/2000/svg" xmlns:xlink="http://www.w3.org/1999/xlink">
    <!-- Generator: Sketch 54.1 (76490) - https://sketchapp.com -->
    <title>en</title>
    <desc>Created with Sketch.</desc>
    <defs>
        <rect id="path-1" x="0" y="0" width="20" height="12" rx="1"></rect>
    </defs>
    <g id="Page-1" stroke="none" stroke-width="1" fill="none" fill-rule="evenodd">
        <g id="首页" transform="translate(-1719.000000, -114.000000)">
            <g id="导航">
                <g id="语言下拉" transform="translate(1700.000000, 60.000000)">
                    <g id="en" transform="translate(20.000000, 55.000000)">
                        <mask id="mask-2" fill="white">
                            <use xlink:href="#path-1"></use>
                        </mask>
                        <rect stroke="#979797" stroke-width="0.1" x="-0.05" y="-0.05" width="20.1" height="12.1" rx="1"></rect>
                        <g id="zhongguo-2" mask="url(#mask-2)">
                            <path d="M0.0820013936,12.9071874 L19.9097037,12.9071874 L19.9097037,0.0797734213 L0.0820013936,0.0797734213 L0.0820013936,12.9071874 Z M20.0023861,13.0071874 L20.0023861,12.9071874 L20.0023861,13.0071874 Z M0,12.9869608 L0,0 L19.9917051,0 L19.9917051,12.9869608 L0,12.9869608 Z" id="形状" fill="#353636" fill-rule="nonzero"></path>
                            <polygon id="路径" fill="#E12020" points="0 0 20 0 20 13 0 13"></polygon>
                            <path d="M4.03294903,1.83050208 L4.52236628,3.39265079 L6.08470683,3.39265079 L4.82353117,4.34181399 L5.29412469,5.90394699 L4.03294903,4.93504099 L2.77177337,5.90394699 L3.26119062,4.34181399 L2,3.39265079 L3.56235551,3.39265079 L4.03294903,1.83050208 Z M8.09883212,1 L8.08000838,1.55367853 L8.5506019,1.75142087 L8.0423609,1.8898405 L8.02353716,2.42372908 L7.74118105,1.96893743 L7.25176379,2.08756711 L7.57176738,1.67232393 L7.30823501,1.21751657 L7.77882853,1.43503313 L8.09883212,1 Z M9.84941007,2.75987533 L9.62355511,3.23448836 L9.98119122,3.61018308 L9.47296519,3.53108615 L9.2470803,4.00566775 L9.17178534,3.47176345 L8.66354434,3.39266651 L9.11531412,3.15539143 L9.04001915,2.62148713 L9.39767023,2.99719756 L9.84941007,2.75987533 Z M9.3223603,4.93504099 L9.49177397,5.44915534 L10,5.44915534 L9.58589267,5.76554307 L9.73646763,6.27965742 L9.3223603,5.96328541 L8.90823801,6.27965742 L9.07765167,5.76554307 L8.66352938,5.44915534 L9.17177037,5.44915534 L9.3223603,4.93504099 Z M8.09881716,6.59604515 L8.06118464,7.12994945 L8.55058693,7.32769179 L8.0423609,7.4660957 L8.00471342,8 L7.74118105,7.54519263 L7.23294005,7.68361227 L7.57176738,7.26836909 L7.28941127,6.81356172 L7.77882853,7.01130405 L8.09881716,6.59604515 Z" id="形状" fill="#FBDC00" fill-rule="nonzero"></path>
                        </g>
                    </g>
                </g>
            </g>
        </g>
    </g>
</svg>