<?xml version="1.0" standalone="no"?><!DOCTYPE svg PUBLIC "-//W3C//DTD SVG 1.1//EN" "http://www.w3.org/Graphics/SVG/1.1/DTD/svg11.dtd"><svg t="1726046909246" class="icon" viewBox="0 0 1024 1024" version="1.1" xmlns="http://www.w3.org/2000/svg" p-id="4205" width="256" height="256" xmlns:xlink="http://www.w3.org/1999/xlink"><path d="M192 679a312 86 0 1 0 624 0 312 86 0 1 0-624 0Z" fill="#EFEFF4" p-id="4206"></path><path d="M576.6 535c-6 28.6-31.4 50-61.6 50s-55.6-21.4-61.6-50H260v112c0 17.6 14.4 32 32 32h446c17.6 0 32-14.4 32-32v-112h-193.4z" fill="#FFFFFF" p-id="4207"></path><path d="M716.6 300.2c-1.8 0-3.6-0.6-5-1.8-3.4-2.8-4-7.8-1.2-11.2l31.4-39.2c2.8-3.4 7.8-4 11.2-1.2 3.4 2.8 4 7.8 1.2 11.2l-31.4 39.2c-1.4 2-3.8 3-6.2 3zM740 329c-3 0-5.8-1.6-7.2-4.4-2-4-0.4-8.8 3.6-10.8l44-22c4-2 8.8-0.4 10.8 3.6s0.4 8.8-3.6 10.8l-44 22c-1.2 0.6-2.4 0.8-3.6 0.8zM682 287h-0.4c-4.4-0.2-7.8-4-7.6-8.4l2-44c0.2-4.4 4-7.8 8.4-7.6 4.4 0.2 7.8 4 7.6 8.4l-2 44c-0.2 4.2-3.8 7.6-8 7.6zM776 527l-55.4-185.4c-5-16.8-20.8-28.6-38.6-28.6H348c-17.6 0-33.4 11.8-38.6 28.6L254 527h-2v120c0 22 18 40 40 40h446c22 0 40-18 40-40v-120h-2z m-451.2-180.8c3-10.2 12.6-17.2 23.2-17.2h334c10.6 0 20.2 7 23.2 17.2l54 180.8H570l-1.4 6.4c-5.4 25.2-28 43.6-53.8 43.6s-48.6-18.4-53.8-43.6l-1.4-6.4h-189.2l54.4-180.8zM762 647c0 13.2-10.8 24-24 24H292c-13.2 0-24-10.8-24-24v-104h179.2c9 29.4 36.6 50 67.8 50s58.8-20.6 67.8-50H762v104z" fill="#C0C4CC" p-id="4208"></path></svg>