<?xml version="1.0" standalone="no"?><!DOCTYPE svg PUBLIC "-//W3C//DTD SVG 1.1//EN" "http://www.w3.org/Graphics/SVG/1.1/DTD/svg11.dtd"><svg t="1727581343601" class="icon" viewBox="0 0 7168 1024" version="1.1" xmlns="http://www.w3.org/2000/svg" p-id="3896" xmlns:xlink="http://www.w3.org/1999/xlink" width="1792" height="256"><path d="M227.555556 1024v-113.777778H113.777778v-113.777778H0V227.555556h113.777778V113.777778h113.777778v682.666666h455.111111v-227.555555H341.333333v-113.777778h568.888889v455.111111h-113.777778v113.777778zM682.666667 227.555556V113.777778H227.555556V0h568.888888v113.777778h113.777778v113.777778zM1592.888889 1024v-113.777778h-113.777778v-113.777778h-341.333333v-113.777777h341.333333v-113.777778H1024v-113.777778h568.888889v113.777778h113.777778v455.111111z m-568.888889-113.777778v-113.777778h113.777778v113.777778z m113.777778 113.777778v-113.777778h341.333333v113.777778zM1820.444444 1024V568.888889h113.777778v-113.777778h341.333334v113.777778h113.777777v455.111111h-227.555555V568.888889h-113.777778v455.111111z m682.666667 0V568.888889h-113.777778v-113.777778h227.555556v113.777778h113.777778v455.111111zM2958.222222 1024v-113.777778h-113.777778v-341.333333h113.777778v-113.777778h455.111111v113.777778h-341.333333v113.777778h341.333333v113.777777h-341.333333v113.777778h455.111111v113.777778z m455.111111-341.333333v-113.777778h113.777778v113.777778zM4096 1024v-113.777778h-113.777778V113.777778h113.777778V0h682.666667v113.777778h113.777777v796.444444h-113.777777v113.777778z m568.888889-113.777778V113.777778H4209.777778v796.444444zM5233.777778 1024v-113.777778h-113.777778v-113.777778h-113.777778v-341.333333h227.555556v341.333333h227.555555v-341.333333h227.555556v341.333333h-113.777778v113.777778h-113.777778v113.777778zM5916.444444 1024v-113.777778h-113.777777v-341.333333h113.777777v-113.777778h455.111112v113.777778h-341.333334v113.777778h341.333334v113.777777h-341.333334v113.777778h455.111111v113.777778z m455.111112-341.333333v-113.777778h113.777777v113.777778zM6599.111111 1024V455.111111h113.777778v113.777778h113.777778v455.111111z m227.555556-455.111111v-113.777778h341.333333v113.777778z" p-id="3897"></path></svg>