<svg width="100" height="100" viewBox="0 0 100 100" fill="none" xmlns="http://www.w3.org/2000/svg">
<circle cx="50" cy="50" r="50" fill="#FCB222" fill-opacity="0.1"/>
<circle cx="50" cy="50" r="36" fill="#FCB222"/>
<path d="M47.6024 55.9999C47.7053 56.5614 48.0018 57.069 48.4403 57.4344C48.8789 57.7998 49.4316 57.9999 50.0024 57.9999C50.5732 57.9999 51.1259 57.7998 51.5644 57.4344C52.0029 57.069 52.2995 56.5614 52.4024 55.9999L54.0024 34C54.0002 32.9398 53.578 31.9237 52.8284 31.174C52.0787 30.4244 51.0626 30.0022 50.0024 30C49.4468 30.0137 48.8997 30.1399 48.3942 30.371C47.8887 30.6021 47.4353 30.9333 47.0614 31.3446C46.6876 31.7558 46.401 32.2386 46.2189 32.7638C46.0369 33.289 45.9632 33.8456 46.0024 34.4L47.6024 55.9999ZM50.0024 61.9999C49.2113 61.9999 48.4379 62.2345 47.7801 62.674C47.1223 63.1136 46.6096 63.7383 46.3069 64.4692C46.0041 65.2001 45.9249 66.0043 46.0793 66.7803C46.2336 67.5562 46.6146 68.2689 47.174 68.8283C47.7334 69.3877 48.4461 69.7687 49.222 69.923C49.998 70.0774 50.8022 69.9982 51.5331 69.6954C52.264 69.3927 52.8887 68.88 53.3283 68.2222C53.7678 67.5644 54.0024 66.791 54.0024 65.9999C54.0346 65.4662 53.9533 64.9317 53.7637 64.4318C53.574 63.9319 53.2805 63.4779 52.9024 63.0999C52.5244 62.7218 52.0704 62.4282 51.5705 62.2386C51.0705 62.049 50.5361 61.9677 50.0024 61.9999Z" fill="white"/>
</svg>
